SplineFontDB: 3.0
FontName: Pfennig
FullName: Pfennig
FamilyName: Pfennig
Weight: Medium
Copyright: Copyright 2009, 2010 by Daniel Johnson. Released under the terms of the SIL Open Font License.
UComments: "2009-7-16: Created." 
Version: 20100423
ItalicAngle: 0
UnderlinePosition: -100
UnderlineWidth: 50
Ascent: 800
Descent: 200
LayerCount: 2
Layer: 0 0 "Back"  1
Layer: 1 0 "Fore"  0
NeedsXUIDChange: 1
XUID: [1021 1003 1579404955 6722392]
FSType: 0
OS2Version: 0
OS2_WeightWidthSlopeOnly: 0
OS2_UseTypoMetrics: 1
CreationTime: 1247766582
ModificationTime: 1272034877
PfmFamily: 33
TTFWeight: 500
TTFWidth: 5
LineGap: 90
VLineGap: 0
OS2TypoAscent: 0
OS2TypoAOffset: 1
OS2TypoDescent: 0
OS2TypoDOffset: 1
OS2TypoLinegap: 90
OS2WinAscent: 0
OS2WinAOffset: 1
OS2WinDescent: 0
OS2WinDOffset: 1
HheadAscent: 0
HheadAOffset: 1
HheadDescent: 0
HheadDOffset: 1
OS2Vendor: 'PfEd'
Lookup: 1 0 0 "'locl' Localized Forms for Sami"  {"'locl' Localized Forms for Sami-1"  } ['locl' ('latn' <'LSM ' > 'latn' <'NSM ' > 'latn' <'SKS ' > ) ]
Lookup: 4 0 1 "'liga' Standard Ligatures in Latin lookup 0"  {"'liga' Standard Ligatures in Latin lookup 0-1"  } ['liga' ('DFLT' <'dflt' > 'latn' <'dflt' > ) ]
Lookup: 258 0 0 "'kern' Horizontal Kerning lookup 1"  {"'kern' Horizontal Kerning lookup 1-1"  } ['kern' ('DFLT' <'dflt' > 'cyrl' <'dflt' > 'latn' <'dflt' > ) ]
Lookup: 260 0 0 "'mark' Mark Positioning in Latin lookup 0"  {"'mark' Mark Positioning in Latin lookup 0-1"  } ['mark' ('DFLT' <'dflt' > 'latn' <'dflt' > ) ]
MarkAttachClasses: 1
DEI: 91125
KernClass2: 9 9 "'kern' Horizontal Kerning lookup 1-1" 
 109 A L Agrave Aacute Acircumflex Atilde Adieresis Aring Amacron Abreve Aogonek Lacute Lcommaaccent Lcaron Lslash

StartChar: d
Encoding: 100 100 0
Width: 532
VWidth: 0
Flags: W
HStem: -10 50<196.864 325.1> 0 21G<381 461> 400 50<197.02 321.93> 640 20G<381 461>
VStem: 44 80<125.955 314.045> 381 80<0 23 101.368 324.963 402 660>
AnchorPoint: "bottom" 251 0 basechar 0
AnchorPoint: "top" 260 490 basechar 0
LayerCount: 2
Fore
SplineSet
381 402 m 1xbc
 381 660 l 1
 461 660 l 1
 461 0 l 1
 381 0 l 1x7c
 381 23 l 1
 345 0 299 -10 246 -10 c 0
 121 -10 44 95 44 220 c 0
 44 345 122 450 246 450 c 0
 299 450 345 432 381 402 c 1xbc
381 196 m 0
 381 288 354 400 261 400 c 0
 176 400 124 305 124 220 c 0
 124 135 176 40 261 40 c 0xbc
 318 40 381 86 381 196 c 0
EndSplineSet
Validated: 3073
EndChar

StartChar: a
Encoding: 97 97 1
Width: 476
VWidth: 0
Flags: W
HStem: -10 50<173.99 337.476> 0 21G<339 419> 254 50<167.379 335.862> 400 50<148.634 310.559>
VStem: 46 80<87.0144 214.868> 339 80<0 8 52.3098 247.415 296 368.359>
AnchorPoint: "bottom" 231 0 basechar 0
AnchorPoint: "ogonek" 413 0 basechar 0
AnchorPoint: "top" 239 490 basechar 0
LayerCount: 2
Fore
SplineSet
56 405 m 1xbc
 102 429 159 450 214 450 c 0
 391 450 419 402 419 202 c 2
 419 0 l 1
 339 0 l 1x7c
 339 8 l 1
 304 -3 268 -10 230 -10 c 0
 125 -10 46 32 46 152 c 0
 46 272 150 304 230 304 c 0
 268 304 304 301 337 296 c 1
 333 372 312 400 229 400 c 0
 194 400 152 385 106 353 c 1
 56 405 l 1xbc
339 61 m 1
 339 122 339 182 339 243 c 1
 310 250 278 254 245 254 c 0
 185 254 126 222 126 152 c 0
 126 82 185 40 245 40 c 0xbc
 278 40 309 47 339 61 c 1
EndSplineSet
Validated: 3073
EndChar

StartChar: h
Encoding: 104 104 2
Width: 531
VWidth: 0
Flags: W
HStem: 0 21G<72 152 383 463> 400 50<188.149 340.498> 640 20G<72 152>
VStem: 72 80<0 369.252 425 660> 383 80<0 350.248>
AnchorPoint: "bottom" 260 0 basechar 0
AnchorPoint: "top" 189 700 basechar 0
LayerCount: 2
Fore
SplineSet
152 353 m 1
 152 0 l 1
 72 0 l 1
 72 660 l 1
 152 660 l 1
 152 425 l 1
 183 441 217 450 254 450 c 0
 394 450 463 382 463 240 c 2
 463 0 l 1
 383 0 l 1
 383 228 l 2
 383 368 339 400 269 400 c 0
 224 400 185 382 152 353 c 1
EndSplineSet
Validated: 3073
EndChar

StartChar: e
Encoding: 101 101 3
Width: 502
VWidth: 0
Flags: W
HStem: -10 50<204.228 357.979> 220 50<129 376> 400 50<197.379 322.951>
VStem: 44 80<125 220>
AnchorPoint: "bottom" 263 0 basechar 0
AnchorPoint: "ogonek" 287 0 basechar 0
AnchorPoint: "top" 259 490 basechar 0
LayerCount: 2
Fore
SplineSet
124 220 m 1
 124 110 190 40 285 40 c 0
 336 40 372 63 395 100 c 1
 455 77 l 1
 415 26 352 -10 270 -10 c 0
 140 -10 44 80 44 220 c 0
 44 360 150 450 250 450 c 0
 389 450 460 330 460 220 c 1
 124 220 l 1
129 270 m 1
 376 270 l 1
 365 344 328 400 265 400 c 0
 202 400 146 351 129 270 c 1
EndSplineSet
Validated: 3073
EndChar

StartChar: n
Encoding: 110 110 4
Width: 531
VWidth: 0
Flags: W
HStem: 0 21G<72 152 383 463> 400 50<188.149 340.498> 420 20G<72 152>
VStem: 72 80<0 369.252 425 440> 383 80<0 350.248>
AnchorPoint: "bottom" 264 0 basechar 0
AnchorPoint: "cedilla" 264 0 basechar 0
AnchorPoint: "top" 268 490 basechar 0
LayerCount: 2
Fore
SplineSet
152 353 m 1xd8
 152 0 l 1
 72 0 l 1
 72 440 l 1
 152 440 l 1xb8
 152 425 l 1
 183 441 217 450 254 450 c 0
 394 450 463 382 463 240 c 2
 463 0 l 1
 383 0 l 1
 383 228 l 2
 383 368 339 400 269 400 c 0
 224 400 185 382 152 353 c 1xd8
EndSplineSet
Validated: 3073
EndChar

StartChar: c
Encoding: 99 99 5
Width: 497
VWidth: 0
Flags: W
HStem: -10 50<204.228 357.979> 400 50<197.283 324.006>
VStem: 44 80<123.48 316.52>
AnchorPoint: "bottom" 278 0 basechar 0
AnchorPoint: "cedilla" 278 0 basechar 0
AnchorPoint: "top" 260 490 basechar 0
LayerCount: 2
Fore
SplineSet
371 297 m 1
 355 357 320 400 265 400 c 0
 190 400 124 330 124 220 c 0
 124 110 190 40 285 40 c 0
 336 40 372 63 395 100 c 1
 455 77 l 1
 415 26 352 -10 270 -10 c 0
 140 -10 44 80 44 220 c 0
 44 360 150 450 250 450 c 0
 342 450 404 398 436 330 c 1
 371 297 l 1
EndSplineSet
Validated: 3073
EndChar

StartChar: b
Encoding: 98 98 6
Width: 527
VWidth: 0
Flags: W
HStem: -10 50<188.922 342.236> 400 50<209.857 342.589> 640 20G<68 148>
VStem: 68 80<81.125 330.902 416 660> 405 80<115.575 324.425>
AnchorPoint: "bottom" 269 0 basechar 0
AnchorPoint: "top" 282 490 basechar 0
LayerCount: 2
Fore
SplineSet
148 416 m 1
 181 438 223 450 268 450 c 0
 428 450 485 345 485 220 c 0
 485 95 426 -10 268 -10 c 0
 168 -10 68 16 68 180 c 2
 68 660 l 1
 148 660 l 1
 148 416 l 1
148 230 m 2
 148 148 l 2
 148 56 215 40 283 40 c 0
 368 40 405 135 405 220 c 0
 405 305 368 400 283 400 c 0
 190 400 148 322 148 230 c 2
EndSplineSet
Validated: 3073
EndChar

StartChar: s
Encoding: 115 115 7
Width: 438
VWidth: 0
Flags: W
HStem: -10 50<134.835 294.231> 400 50<154.492 278.589>
VStem: 61 80<290.625 386.79> 318 80<62.5227 174.911>
AnchorPoint: "bottom" 219 0 basechar 0
AnchorPoint: "cedilla" 219 0 basechar 0
AnchorPoint: "top" 203 490 basechar 0
LayerCount: 2
Fore
SplineSet
369 388 m 1
 311 353 l 1
 271 385 260 400 207 400 c 0
 165 400 141 377 141 336 c 0
 141 296 171 276 221 267 c 0
 345 244 398 194 398 128 c 0
 398 32 317 -10 212 -10 c 0
 135 -10 103 14 43 57 c 1
 86 94 l 1
 136 59 157 40 227 40 c 0
 294 40 318 74 318 128 c 0
 318 179 269 197 212 207 c 0
 114 225 61 272 61 336 c 0
 61 390 106 450 192 450 c 0
 262 450 312 429 369 388 c 1
EndSplineSet
Validated: 3073
EndChar

StartChar: i
Encoding: 105 105 8
Width: 199
VWidth: 0
Flags: W
HStem: 0 21G<60 140> 420 20G<60 140> 530 80<60 140>
VStem: 60 80<0 440 530 610>
AnchorPoint: "bottom" 99 0 basechar 0
AnchorPoint: "ogonek" 136 0 basechar 0
LayerCount: 2
Fore
SplineSet
60 610 m 1
 140 610 l 1
 140 530 l 1
 60 530 l 1
 60 610 l 1
60 440 m 1
 140 440 l 1
 140 0 l 1
 60 0 l 1
 60 440 l 1
EndSplineSet
Validated: 3585
EndChar

StartChar: o
Encoding: 111 111 9
Width: 516
VWidth: 0
Flags: W
HStem: -10 50<187.536 328.845> 400 50<197.283 328.845>
VStem: 44 80<112.911 316.52> 394 80<117.779 322.221>
AnchorPoint: "horn" 430 310 basechar 0
AnchorPoint: "bottom" 252 0 basechar 0
AnchorPoint: "ogonek" 262 0 basechar 0
AnchorPoint: "top" 261 490 basechar 0
LayerCount: 2
Fore
SplineSet
394 220 m 0
 394 326 340 400 265 400 c 0
 190 400 124 330 124 220 c 0
 124 110 170 40 265 40 c 0
 340 40 394 114 394 220 c 0
474 220 m 0
 474 66 380 -10 250 -10 c 0
 120 -10 44 80 44 220 c 0
 44 360 150 450 250 450 c 0
 380 450 474 374 474 220 c 0
EndSplineSet
Validated: 3073
EndChar

StartChar: t
Encoding: 116 116 10
Width: 277
VWidth: 0
Flags: W
HStem: 0 21G<92 172> 390 50<41 92 172 251>
VStem: 92 80<0 390 440 585>
AnchorPoint: "bottom" 129 0 basechar 0
AnchorPoint: "cedilla" 129 0 basechar 0
AnchorPoint: "top" 133 660 basechar 0
LayerCount: 2
Fore
SplineSet
172 390 m 1
 172 0 l 1
 92 0 l 1
 92 390 l 1
 26 390 l 1
 41 440 l 1
 92 440 l 1
 92 585 l 1
 172 600 l 1
 172 440 l 1
 251 440 l 1
 251 390 l 1
 172 390 l 1
EndSplineSet
Validated: 3073
EndChar

StartChar: m
Encoding: 109 109 11
Width: 784
VWidth: 0
Flags: W
HStem: 0 21G<72 152 354 434 636 716> 400 50<179.291 324.05 461.074 600.93> 420 20G<72 152>
VStem: 72 80<0 374.266 427 440> 354 80<0 367.482> 636 80<0 354.691>
CounterMasks: 1 1c
AnchorPoint: "bottom" 395 0 basechar 0
AnchorPoint: "top" 395 490 basechar 0
LayerCount: 2
Fore
SplineSet
152 356 m 1xdc
 152 0 l 1
 72 0 l 1
 72 440 l 1
 152 440 l 1xbc
 152 427 l 1
 178 442 204 450 239 450 c 0
 309 450 359 433 390 398 c 1
 426 426 482 450 524 450 c 0
 646 450 716 382 716 240 c 2
 716 0 l 1
 636 0 l 1
 636 244 l 2
 636 377 593 400 539 400 c 0
 499 400 454 384 434 351 c 1
 434 0 l 1
 354 0 l 1
 354 244 l 2
 354 377 324 400 254 400 c 0
 211 400 180 383 152 356 c 1xdc
EndSplineSet
Validated: 3073
EndChar

StartChar: f
Encoding: 102 102 12
Width: 273
VWidth: 0
Flags: W
HStem: 0 21G<81 161> 390 50<30 81 161 240> 620 50<177.306 262.654>
VStem: 81 80<0 390 440 604.615>
AnchorPoint: "bottom" 120 0 basechar 0
AnchorPoint: "top" 166 700 basechar 0
LayerCount: 2
Fore
SplineSet
256 605 m 1
 248 615 238 620 221 620 c 0
 181 620 161 597 161 509 c 2
 161 440 l 1
 240 440 l 1
 240 390 l 1
 161 390 l 1
 161 0 l 1
 81 0 l 1
 81 390 l 1
 15 390 l 1
 30 440 l 1
 81 440 l 1
 81 535 l 2
 81 615 126 670 206 670 c 0
 235 670 258 666 277 659 c 1
 256 605 l 1
EndSplineSet
Validated: 3073
EndChar

StartChar: j
Encoding: 106 106 13
Width: 262
VWidth: 0
Flags: W
HStem: -170 50<-1.25167 106.728> 420 20G<123 203> 530 80<123 203>
VStem: 123 80<-105.645 440 530 610>
AnchorPoint: "bottom" 63 -170 basechar 0
LayerCount: 2
Fore
SplineSet
16 -95 m 5
 30 -115 50 -120 69 -120 c 4
 109 -120 123 -82 123 0 c 6
 123 440 l 1
 203 440 l 1
 203 -33 l 6
 203 -132 124 -170 54 -170 c 4
 16 -170 -21 -156 -47 -125 c 5
 16 -95 l 5
123 610 m 1
 203 610 l 1
 203 530 l 1
 123 530 l 1
 123 610 l 1
EndSplineSet
Validated: 3073
EndChar

StartChar: l
Encoding: 108 108 15
Width: 223
VWidth: 0
Flags: W
HStem: 0 21G<72 152> 640 20G<72 152>
VStem: 72 80<0 660>
AnchorPoint: "bottom" 111 0 basechar 0
AnchorPoint: "cedilla" 109 0 basechar 0
AnchorPoint: "top" 112 700 basechar 0
LayerCount: 2
Fore
SplineSet
152 660 m 25
 152 0 l 17
 72 0 l 9
 72 660 l 25
 152 660 l 25
EndSplineSet
Validated: 3073
EndChar

StartChar: p
Encoding: 112 112 16
Width: 531
VWidth: 0
Flags: W
HStem: -8 50<214.169 337.87> 402 50<205.627 344.026> 422 20G<72 152>
VStem: 72 80<-200 29 117.037 346.863 423 442> 409 80<127.955 322.168>
AnchorPoint: "bottom" 292 0 basechar 0
AnchorPoint: "top" 284 490 basechar 0
LayerCount: 2
Fore
SplineSet
152 29 m 1xd8
 152 -200 l 1
 72 -200 l 1
 72 442 l 1
 152 442 l 1xb8
 152 423 l 1
 185 444 228 452 277 452 c 0
 402 452 489 347 489 222 c 0
 489 97 391 -8 267 -8 c 0
 221 -8 182 6 152 29 c 1xd8
152 248 m 2
 152 246 l 2
 152 154 176 42 282 42 c 0
 352 42 409 137 409 222 c 0
 409 307 362 402 292 402 c 0xd8
 186 402 152 342 152 248 c 2
EndSplineSet
Validated: 3073
EndChar

StartChar: q
Encoding: 113 113 17
Width: 532
VWidth: 0
Flags: W
HStem: -10 50<186.411 319.143> 400 50<186.764 340.078>
VStem: 44 80<115.575 324.425> 381 80<-200 24 109.098 358.875>
AnchorPoint: "bottom" 238 0 basechar 0
AnchorPoint: "top" 255 490 basechar 0
LayerCount: 2
Fore
SplineSet
381 24 m 1
 348 2 306 -10 261 -10 c 0
 101 -10 44 95 44 220 c 0
 44 345 103 450 261 450 c 0
 361 450 461 424 461 260 c 2
 461 -200 l 1
 381 -200 l 1
 381 24 l 1
381 210 m 2
 381 292 l 2
 381 384 314 400 246 400 c 0
 161 400 124 305 124 220 c 0
 124 135 161 40 246 40 c 0
 339 40 381 118 381 210 c 2
EndSplineSet
Validated: 3073
EndChar

StartChar: r
Encoding: 114 114 18
Width: 331
VWidth: 0
Flags: W
HStem: 0 21G<72 152> 400 50<173.591 315.813> 420 20G<72 152>
VStem: 72 80<0 377.802 427 440>
AnchorPoint: "bottom" 117 0 basechar 0
AnchorPoint: "cedilla" 110 0 basechar 0
AnchorPoint: "top" 194 490 basechar 0
LayerCount: 2
Fore
SplineSet
328 362 m 1xd0
 313 391 280 400 243 400 c 0xd0
 201 400 176 384 152 359 c 1
 152 0 l 1
 72 0 l 1
 72 440 l 1
 152 440 l 1xb0
 152 427 l 1
 177 442 201 450 236 450 c 0
 273 450 303 445 328 436 c 1
 328 362 l 1xd0
EndSplineSet
Validated: 3073
EndChar

StartChar: u
Encoding: 117 117 19
Width: 521
VWidth: 0
Flags: W
HStem: -10 50<203.452 353.236> 0 21G<381 461> 420 20G<70 150 381 461>
VStem: 70 80<99.3798 440> 381 80<0 16 65.7344 440>
AnchorPoint: "horn" 461 310 basechar 0
AnchorPoint: "bottom" 260 0 basechar 0
AnchorPoint: "ogonek" 457 0 basechar 0
AnchorPoint: "top" 268 490 basechar 0
LayerCount: 2
Fore
SplineSet
381 84 m 1xb8
 381 440 l 1
 461 440 l 1
 461 0 l 1
 381 0 l 1x78
 381 16 l 1
 345 -1 302 -10 264 -10 c 0
 124 -10 70 58 70 200 c 2
 70 440 l 1
 150 440 l 1
 150 212 l 2
 150 72 209 40 279 40 c 0
 322 40 353 57 381 84 c 1xb8
EndSplineSet
Validated: 3073
EndChar

StartChar: g
Encoding: 103 103 20
Width: 507
VWidth: 0
Flags: W
HStem: -170 50<165.634 327.506> -10 50<191.709 344.36> 400 50<184.765 309.164> 420 20G<356 436>
VStem: 44 80<114.669 327.089> 356 80<-88.3594 11 55.6195 349.653 412 440>
AnchorPoint: "bottom" 240 -161 basechar 0
AnchorPoint: "top" 247 490 basechar 0
LayerCount: 2
Fore
SplineSet
436 440 m 1xdc
 436 78 l 2
 436 -122 408 -170 231 -170 c 0
 176 -170 119 -149 73 -125 c 1
 123 -73 l 1
 169 -105 211 -120 246 -120 c 0
 338 -120 353 -86 356 11 c 1
 326 -2 293 -10 255 -10 c 0
 125 -10 44 80 44 220 c 0
 44 360 135 450 235 450 c 0xec
 284 450 324 435 356 412 c 1
 356 440 l 1
 436 440 l 1xdc
356 71 m 1
 356 297 l 1
 340 357 305 400 250 400 c 0
 175 400 124 330 124 220 c 0
 124 110 175 40 270 40 c 0
 306 40 334 51 356 71 c 1
EndSplineSet
Validated: 3073
EndChar

StartChar: v
Encoding: 118 118 21
Width: 415
VWidth: 0
Flags: W
HStem: 0 21G<161.727 256.273> 420 20G<9 89.2353 321.706 409>
AnchorPoint: "bottom" 207 0 basechar 0
AnchorPoint: "top" 211 490 basechar 0
LayerCount: 2
Fore
SplineSet
249 0 m 1
 169 0 l 1
 9 440 l 1
 82 440 l 1
 205 100 l 1
 329 440 l 1
 409 440 l 1
 249 0 l 1
EndSplineSet
Validated: 3073
EndChar

StartChar: w
Encoding: 119 119 22
Width: 747
VWidth: 0
Flags: W
HStem: 0 21G<166.727 253.293 494.707 581.273> 420 20G<14 94.2353 326.706 414.235 646.706 734>
AnchorPoint: "bottom" 374 0 basechar 0
AnchorPoint: "top" 371 490 basechar 0
LayerCount: 2
Fore
SplineSet
210 100 m 1
 334 440 l 1
 407 440 l 1
 530 100 l 1
 654 440 l 1
 734 440 l 1
 574 0 l 1
 502 0 l 1
 374 351 l 1
 246 0 l 1
 174 0 l 1
 14 440 l 1
 87 440 l 1
 210 100 l 1
EndSplineSet
Validated: 3073
EndChar

StartChar: x
Encoding: 120 120 23
Width: 407
VWidth: 0
Flags: W
HStem: 0 21G<4 103.914 304.971 405> 420 20G<32 130.932 277.917 377>
AnchorPoint: "bottom" 203 0 basechar 0
AnchorPoint: "top" 206 490 basechar 0
LayerCount: 2
Fore
SplineSet
161 241 m 1
 32 440 l 1
 118 440 l 1
 204 307 l 1
 291 440 l 1
 377 440 l 1
 248 241 l 1
 405 0 l 1
 318 0 l 1
 204 175 l 1
 91 0 l 1
 4 0 l 1
 161 241 l 1
EndSplineSet
Validated: 3073
EndChar

StartChar: y
Encoding: 121 121 24
Width: 430
VWidth: 0
Flags: W
HStem: -170 50<80.1013 141.959> 420 20G<22 102.235 334.706 422>
AnchorPoint: "bottom" 178 -154 basechar 0
AnchorPoint: "ogonek" 300 0 basechar 0
AnchorPoint: "top" 225 490 basechar 0
LayerCount: 2
Fore
SplineSet
98 -170 m 0
 59 -170 30 -142 -5 -104 c 1
 59 -72 l 1
 92 -118 102 -120 113 -120 c 0
 140 -120 152 -82 174 -22 c 2
 182 0 l 1
 22 440 l 1
 95 440 l 1
 218 100 l 1
 342 440 l 1
 422 440 l 1
 253 -24 l 2
 220 -115 175 -170 98 -170 c 0
EndSplineSet
Validated: 3073
EndChar

StartChar: k
Encoding: 107 107 25
Width: 479
VWidth: 0
Flags: W
HStem: 0 21G<72 152 344.145 446> 420 20G<318.222 428> 640 20G<72 152>
VStem: 72 80<0 131 233 660>
AnchorPoint: "bottom" 248 0 basechar 0
AnchorPoint: "cedilla" 248 0 basechar 0
AnchorPoint: "top" 189 700 basechar 0
LayerCount: 2
Fore
SplineSet
152 131 m 1
 152 0 l 1
 72 0 l 1
 72 660 l 1
 152 660 l 1
 152 233 l 1
 336 440 l 1
 428 440 l 1
 254 245 l 1
 446 0 l 1
 360 0 l 1
 207 193 l 1
 152 131 l 1
EndSplineSet
Validated: 3073
EndChar

StartChar: z
Encoding: 122 122 26
Width: 420
VWidth: 0
Flags: W
HStem: 0 50<146 402> 390 50<36 280>
AnchorPoint: "bottom" 216 0 basechar 0
AnchorPoint: "top" 214 490 basechar 0
LayerCount: 2
Fore
SplineSet
280 390 m 1
 21 390 l 1
 36 440 l 1
 399 440 l 1
 146 50 l 1
 402 50 l 1
 402 0 l 1
 26 0 l 1
 280 390 l 1
EndSplineSet
Validated: 3073
EndChar

StartChar: A
Encoding: 65 65 27
Width: 634
VWidth: 0
Flags: W
HStem: 0 21G<19 106.3 529.7 617> 200 50<190 446> 680 20G<266.714 369.286>
AnchorPoint: "bottom" 319 0 basechar 0
AnchorPoint: "ogonek" 537 0 basechar 0
AnchorPoint: "top" 318 700 basechar 0
LayerCount: 2
Fore
SplineSet
19 0 m 1
 274 700 l 1
 362 700 l 1
 617 0 l 1
 537 0 l 1
 464 200 l 1
 172 200 l 1
 99 0 l 1
 19 0 l 1
318 601 m 1
 190 250 l 1
 446 250 l 1
 318 601 l 1
EndSplineSet
Validated: 3073
EndChar

StartChar: B
Encoding: 66 66 28
Width: 545
VWidth: 0
Flags: W
HStem: 0 50<170 369.897> 355 50<170 326.182> 650 50<170 337.271>
VStem: 85 85<50 355 405 650> 380 85<461.783 606.904> 422 85<105.466 282.83>
AnchorPoint: "bottom" 275 0 basechar 0
AnchorPoint: "top" 245 700 basechar 0
LayerCount: 2
Fore
SplineSet
170 355 m 1xf4
 170 50 l 1
 300 50 l 2
 385 50 422 119 422 189 c 0
 422 259 385 355 300 355 c 2
 170 355 l 1xf4
381 388 m 1
 470 352 507 266 507 189 c 0xf4
 507 89 443 0 285 0 c 1
 85 0 l 1
 85 700 l 1
 265 700 l 2
 425 700 465 618 465 525 c 0xf8
 465 492 446 427 381 388 c 1
170 650 m 1
 170 405 l 1
 258 405 l 2
 343 405 380 486 380 525 c 0xf8
 380 564 365 650 280 650 c 2
 170 650 l 1
EndSplineSet
Validated: 3073
EndChar

StartChar: P
Encoding: 80 80 29
Width: 532
VWidth: 0
Flags: W
HStem: 0 21G<85 170> 320 50<170 368.697> 650 50<170 369.44>
VStem: 85 85<0 320 370 650> 422 85<425.964 594.036>
AnchorPoint: "bottom" 220 0 basechar 0
AnchorPoint: "top" 274 700 basechar 0
LayerCount: 2
Fore
SplineSet
170 320 m 1
 170 0 l 1
 85 0 l 1
 85 700 l 1
 290 700 l 2
 450 700 507 590 507 510 c 0
 507 430 448 320 290 320 c 2
 170 320 l 1
170 650 m 1
 170 370 l 1
 305 370 l 2
 390 370 422 450 422 510 c 0
 422 570 390 650 305 650 c 2
 170 650 l 1
EndSplineSet
Validated: 3073
EndChar

StartChar: C
Encoding: 67 67 30
Width: 650
VWidth: 0
Flags: W
HStem: -10 50<292.784 475.714> 660 50<271.495 455.532>
VStem: 50 85<220.082 494.263>
AnchorPoint: "bottom" 370 0 basechar 0
AnchorPoint: "cedilla" 370 0 basechar 0
AnchorPoint: "top" 350 700 basechar 0
LayerCount: 2
Fore
SplineSet
610 102 m 1
 560 38 471 -10 362 -10 c 0
 232 -10 50 100 50 350 c 0
 50 600 212 710 343 710 c 0
 479 710 561 665 607 608 c 1
 532 575 l 1
 499 622 442 660 358 660 c 0
 242 660 135 560 135 350 c 0
 135 130 282 40 377 40 c 0
 454 40 514 72 551 129 c 1
 610 102 l 1
EndSplineSet
Validated: 3073
EndChar

StartChar: D
Encoding: 68 68 31
Width: 637
VWidth: 0
Flags: W
HStem: 0 50<170 403.351> 650 50<170 410.5>
VStem: 85 85<50 650> 503 85<192.383 523.986>
AnchorPoint: "bottom" 290 0 basechar 0
AnchorPoint: "top" 284 700 basechar 0
LayerCount: 2
Fore
SplineSet
327 0 m 2
 85 0 l 1
 85 700 l 1
 327 700 l 2
 487 700 588 602 588 360 c 0
 588 120 485 0 327 0 c 2
170 650 m 1
 170 50 l 1
 342 50 l 2
 427 50 503 140 503 360 c 0
 503 580 427 650 342 650 c 2
 170 650 l 1
EndSplineSet
Validated: 3073
EndChar

StartChar: E
Encoding: 69 69 32
Width: 546
VWidth: 0
Flags: W
HStem: 0 50<170 505> 390 50<170 399> 650 50<170 489>
VStem: 85 85<50 390 440 650>
AnchorPoint: "bottom" 307 0 basechar 0
AnchorPoint: "ogonek" 413 0 basechar 0
AnchorPoint: "top" 300 700 basechar 0
LayerCount: 2
Fore
SplineSet
505 0 m 1
 85 0 l 1
 85 700 l 1
 489 700 l 1
 489 650 l 9
 170 650 l 1
 170 440 l 1
 399 440 l 17
 399 390 l 9
 170 390 l 1
 170 50 l 1
 505 50 l 17
 505 0 l 1
EndSplineSet
Validated: 3073
EndChar

StartChar: F
Encoding: 70 70 33
Width: 521
VWidth: 0
Flags: W
HStem: 0 21G<85 170> 390 50<170 399> 650 50<170 489>
VStem: 85 85<0 390 440 650>
AnchorPoint: "bottom" 200 0 basechar 0
AnchorPoint: "top" 295 700 basechar 0
LayerCount: 2
Fore
SplineSet
85 0 m 1
 85 700 l 1
 489 700 l 17
 489 650 l 9
 170 650 l 1
 170 440 l 1
 399 440 l 17
 399 390 l 9
 170 390 l 1
 170 0 l 1
 85 0 l 1
EndSplineSet
Validated: 3073
EndChar

StartChar: G
Encoding: 71 71 34
Width: 670
VWidth: 0
Flags: W
HStem: -10 50<292.784 475.287> 350 50<446 530> 650 50<268.31 465.826>
VStem: 50 85<220.082 492.779> 530 80<84.4482 350>
AnchorPoint: "bottom" 370 0 basechar 0
AnchorPoint: "cedilla" 370 0 basechar 0
AnchorPoint: "top" 350 700 basechar 0
LayerCount: 2
Fore
SplineSet
446 400 m 1
 610 400 l 1
 610 102 l 1
 560 38 471 -10 362 -10 c 0
 232 -10 50 100 50 350 c 0
 50 600 212 700 343 700 c 0
 479 700 561 665 607 608 c 1
 532 575 l 1
 499 622 442 650 358 650 c 0
 242 650 135 560 135 350 c 0
 135 130 282 40 377 40 c 0
 441 40 493 62 530 102 c 1
 530 350 l 1
 446 350 l 1
 446 400 l 1
EndSplineSet
Validated: 3073
EndChar

StartChar: H
Encoding: 72 72 35
Width: 660
VWidth: 0
Flags: W
HStem: 0 21G<85 170 492 577> 350 50<170 492> 680 20G<85 170 492 577>
VStem: 85 85<0 350 400 700> 492 85<0 350 400 700>
AnchorPoint: "bottom" 329 0 basechar 0
AnchorPoint: "top" 335 700 basechar 0
LayerCount: 2
Fore
SplineSet
170 700 m 1
 170 400 l 1
 492 400 l 1
 492 700 l 1
 577 700 l 1
 577 0 l 1
 492 0 l 1
 492 350 l 1
 170 350 l 1
 170 0 l 1
 85 0 l 1
 85 700 l 1
 170 700 l 1
EndSplineSet
Validated: 3073
EndChar

StartChar: I
Encoding: 73 73 36
Width: 251
VWidth: 0
Flags: W
HStem: 0 21G<84 169> 680 20G<84 169>
VStem: 84 85<0 700>
AnchorPoint: "bottom" 123 0 basechar 0
AnchorPoint: "ogonek" 115 0 basechar 0
AnchorPoint: "top" 128 700 basechar 0
LayerCount: 2
Fore
SplineSet
169 700 m 25
 169 0 l 17
 84 0 l 9
 84 700 l 25
 169 700 l 25
EndSplineSet
Validated: 3585
EndChar

StartChar: J
Encoding: 74 74 37
Width: 466
VWidth: 0
Flags: W
HStem: -10 50<109.634 271.297> 680 20G<300 385>
VStem: 300 85<71.6406 700>
AnchorPoint: "bottom" 187 0 basechar 0
AnchorPoint: "top" 344 700 basechar 0
LayerCount: 2
Fore
SplineSet
385 238 m 18
 385 38 352 -10 175 -10 c 0
 120 -10 63 11 17 35 c 1
 67 87 l 1
 113 55 155 40 190 40 c 0
 295 40 300 84 300 216 c 2
 300 700 l 17
 385 700 l 9
 385 238 l 18
EndSplineSet
Validated: 3073
EndChar

StartChar: K
Encoding: 75 75 38
Width: 607
VWidth: 0
Flags: W
HStem: 0 21G<85 170 492.272 602> 680 20G<85 170 472.222 590>
VStem: 85 85<0 229 340 700>
AnchorPoint: "bottom" 310 0 basechar 0
AnchorPoint: "cedilla" 320 0 basechar 0
AnchorPoint: "top" 236 700 basechar 0
LayerCount: 2
Fore
SplineSet
170 229 m 1
 170 0 l 1
 85 0 l 1
 85 700 l 1
 170 700 l 1
 170 340 l 1
 490 700 l 1
 590 700 l 1
 304 379 l 1
 602 0 l 1
 508 0 l 1
 254 323 l 1
 170 229 l 1
EndSplineSet
Validated: 3073
EndChar

StartChar: L
Encoding: 76 76 39
Width: 529
VWidth: 0
Flags: W
HStem: 0 50<170 505> 680 20G<85 170>
VStem: 85 85<50 700>
AnchorPoint: "bottom" 295 0 basechar 0
AnchorPoint: "cedilla" 291 0 basechar 0
AnchorPoint: "top" 215 700 basechar 0
LayerCount: 2
Fore
SplineSet
170 50 m 1
 505 50 l 17
 505 0 l 1
 85 0 l 1
 85 700 l 1
 170 700 l 1
 170 50 l 1
EndSplineSet
Validated: 3073
EndChar

StartChar: M
Encoding: 77 77 40
Width: 794
VWidth: 0
Flags: W
HStem: 0 21G<85 170 626 711> 680 20G<85 179.325 616.675 711>
VStem: 85 85<0 536> 626 85<0 536>
AnchorPoint: "bottom" 398 0 basechar 0
AnchorPoint: "top" 398 700 basechar 0
LayerCount: 2
Fore
SplineSet
170 536 m 1
 170 0 l 1
 85 0 l 1
 85 700 l 1
 170 700 l 1
 398 211 l 1
 626 700 l 1
 711 700 l 1
 711 0 l 1
 626 0 l 1
 626 536 l 1
 398 50 l 1
 170 536 l 1
EndSplineSet
Validated: 3073
EndChar

StartChar: N
Encoding: 78 78 41
Width: 687
VWidth: 0
Flags: W
HStem: 0 21G<85 170 504.717 604> 680 20G<85 183.297 519 604>
VStem: 85 85<0 565> 519 85<134 700>
AnchorPoint: "bottom" 339 0 basechar 0
AnchorPoint: "cedilla" 340 0 basechar 0
AnchorPoint: "top" 350 700 basechar 0
LayerCount: 2
Fore
SplineSet
517 0 m 1
 170 565 l 1
 170 0 l 1
 85 0 l 1
 85 700 l 1
 171 700 l 1
 519 134 l 1
 519 700 l 1
 604 700 l 1
 604 0 l 1
 517 0 l 1
EndSplineSet
Validated: 3073
EndChar

StartChar: O
Encoding: 79 79 42
Width: 701
VWidth: 0
Flags: W
HStem: -10 50<279.248 428.164> 660 50<269.011 425.27>
VStem: 50 85<215.477 494.263> 568 85<213.851 492.764>
AnchorPoint: "horn" 594 530 basechar 0
AnchorPoint: "bottom" 352 0 basechar 0
AnchorPoint: "ogonek" 354 0 basechar 0
AnchorPoint: "top" 345 700 basechar 0
LayerCount: 2
Fore
SplineSet
344 -10 m 0
 211 -10 50 100 50 350 c 0
 50 600 201 710 335 710 c 0
 498 710 653 600 653 350 c 0
 653 100 508 -10 344 -10 c 0
341 660 m 0
 251 660 135 560 135 350 c 0
 135 130 270 40 350 40 c 0
 448 40 568 140 568 350 c 0
 568 570 446 660 341 660 c 0
EndSplineSet
Validated: 3073
EndChar

StartChar: Q
Encoding: 81 81 43
Width: 701
VWidth: 0
Flags: W
HStem: -170 50<480.975 564> -7 47<270.433 309.513 391 430.739> 660 50<256.458 431.034>
VStem: 50 85<209.243 494.263> 568 85<207.744 492.764>
AnchorPoint: "bottom" 340 -130 basechar 0
AnchorPoint: "top" 337 700 basechar 0
LayerCount: 2
Fore
SplineSet
341 660 m 0
 222 660 135 560 135 350 c 0
 135 130 252 40 350 40 c 0
 454 40 568 140 568 350 c 0
 568 570 456 660 341 660 c 0
305 -7 m 1
 181 13 50 124 50 350 c 0
 50 600 201 710 335 710 c 0
 498 710 653 600 653 350 c 0
 653 124 535 13 391 -7 c 1
 409 -74 501 -120 564 -120 c 1
 564 -170 l 1
 470 -170 321 -129 305 -7 c 1
EndSplineSet
Validated: 3073
EndChar

StartChar: R
Encoding: 82 82 44
Width: 546
VWidth: 0
Flags: W
HStem: 0 21G<85 170 440 522> 320 50<170 300.073> 650 50<170 369.44>
VStem: 85 85<0 320 370 650> 422 85<426.24 594.036> 440 82<0 98.4018>
AnchorPoint: "bottom" 290 0 basechar 0
AnchorPoint: "cedilla" 288 0 basechar 0
AnchorPoint: "top" 274 700 basechar 0
LayerCount: 2
Fore
SplineSet
170 320 m 1xf4
 170 0 l 1
 85 0 l 1
 85 700 l 1
 290 700 l 2
 450 700 507 590 507 510 c 0xf8
 507 446 469 362 372 332 c 1
 437 267 522 94 522 0 c 1
 440 0 l 1
 440 93 353 264 279 320 c 1
 170 320 l 1xf4
170 650 m 1
 170 370 l 1
 305 370 l 2
 390 370 422 450 422 510 c 0
 422 570 390 650 305 650 c 2
 170 650 l 1
EndSplineSet
Validated: 3073
EndChar

StartChar: S
Encoding: 83 83 45
Width: 580
VWidth: 0
Flags: W
HStem: -10 50<215.819 379.616> 660 50<215.574 361.456>
VStem: 79 85<480.969 609.052> 443 85<99.0644 245.879>
AnchorPoint: "bottom" 282 0 basechar 0
AnchorPoint: "cedilla" 280 0 basechar 0
AnchorPoint: "top" 278 700 basechar 0
LayerCount: 2
Fore
SplineSet
50 171 m 1
 128 186 l 1
 138 107 220 40 283 40 c 0
 386 40 443 92 443 178 c 0
 443 370 79 316 79 538 c 0
 79 635 182 710 282 710 c 0
 376 710 454 662 494 598 c 1
 420 577 l 1
 390 632 344 660 274 660 c 0
 227 660 164 616 164 538 c 0
 164 374 528 413 528 178 c 0
 528 70 430 -10 276 -10 c 0
 179 -10 74 75 50 171 c 1
EndSplineSet
Validated: 3073
EndChar

StartChar: T
Encoding: 84 84 46
Width: 625
VWidth: 0
Flags: W
HStem: 0 21G<270 355> 650 50<20 270 355 607>
VStem: 270 85<0 650>
AnchorPoint: "bottom" 314 0 basechar 0
AnchorPoint: "cedilla" 312 0 basechar 0
AnchorPoint: "top" 314 700 basechar 0
LayerCount: 2
Fore
SplineSet
20 700 m 1
 607 700 l 1
 607 650 l 1
 355 650 l 1
 355 0 l 1
 270 0 l 1
 270 650 l 1
 20 650 l 1
 20 700 l 1
EndSplineSet
Validated: 3073
EndChar

StartChar: U
Encoding: 85 85 47
Width: 685
VWidth: 0
Flags: W
HStem: -10 50<263.289 426.451> 680 20G<76 161 524 609>
VStem: 76 85<160.097 700> 524 85<160.097 700>
AnchorPoint: "horn" 609 530 basechar 0
AnchorPoint: "bottom" 352 0 basechar 0
AnchorPoint: "ogonek" 350 0 basechar 0
AnchorPoint: "top" 352 700 basechar 0
LayerCount: 2
Fore
SplineSet
524 700 m 1
 609 700 l 1
 609 298 l 2
 609 48 484 -10 340 -10 c 0
 234 -10 76 48 76 298 c 2
 76 700 l 1
 161 700 l 1
 161 298 l 2
 161 78 278 40 346 40 c 0
 422 40 524 88 524 298 c 2
 524 700 l 1
EndSplineSet
Validated: 3073
EndChar

StartChar: V
Encoding: 86 86 48
Width: 563
VWidth: 0
Flags: W
HStem: 0 21G<232.514 333.486> 680 20G<12 92.5124 473.488 554>
AnchorPoint: "bottom" 282 0 basechar 0
AnchorPoint: "top" 280 700 basechar 0
LayerCount: 2
Fore
SplineSet
239 0 m 1
 12 700 l 1
 86 700 l 1
 283 95 l 1
 480 700 l 1
 554 700 l 1
 327 0 l 1
 239 0 l 1
EndSplineSet
Validated: 3073
EndChar

StartChar: X
Encoding: 88 88 49
Width: 582
VWidth: 0
Flags: W
HStem: 0 21G<42 136.347 413.653 509> 680 20G<62 157.323 392.677 488>
AnchorPoint: "bottom" 272 0 basechar 0
AnchorPoint: "top" 272 700 basechar 0
LayerCount: 2
Fore
SplineSet
126 0 m 1
 42 0 l 1
 233 370 l 1
 62 700 l 1
 147 700 l 1
 275 452 l 1
 403 700 l 1
 488 700 l 1
 318 370 l 1
 509 0 l 1
 424 0 l 1
 275 288 l 1
 126 0 l 1
EndSplineSet
Validated: 3073
EndChar

StartChar: W
Encoding: 87 87 50
Width: 865
VWidth: 0
Flags: W
HStem: 0 21G<237.514 338.54 530.524 631.486> 420 20G<394.468 474.532> 680 20G<17 97.5016 771.498 852>
AnchorPoint: "bottom" 439 0 basechar 0
AnchorPoint: "top" 427 700 basechar 0
LayerCount: 2
Fore
SplineSet
244 0 m 1
 17 700 l 1
 91 700 l 1
 288 94 l 1
 401 440 l 1
 468 440 l 1
 581 94 l 1
 778 700 l 1
 852 700 l 1
 625 0 l 1
 537 0 l 1
 435 315 l 1
 332 0 l 1
 244 0 l 1
EndSplineSet
Validated: 3073
EndChar

StartChar: Y
Encoding: 89 89 51
Width: 465
VWidth: 0
Flags: W
HStem: 0 21G<191 276> 680 20G<11 111.192 356.808 457>
VStem: 191 85<0 346>
AnchorPoint: "ogonek" 249 0 basechar 0
AnchorPoint: "bottom" 233 0 basechar 0
AnchorPoint: "top" 233 700 basechar 0
LayerCount: 2
Fore
SplineSet
234 439 m 1
 367 700 l 1
 457 700 l 1
 276 346 l 1
 276 0 l 1
 191 0 l 1
 191 347 l 1
 11 700 l 1
 101 700 l 1
 234 439 l 1
EndSplineSet
Validated: 3073
EndChar

StartChar: Z
Encoding: 90 90 52
Width: 508
VWidth: 0
Flags: W
HStem: 0 50<139 480> 650 50<50 366>
AnchorPoint: "bottom" 268 0 basechar 0
AnchorPoint: "top" 250 700 basechar 0
LayerCount: 2
Fore
SplineSet
366 650 m 1
 35 650 l 1
 50 700 l 1
 476 700 l 1
 139 50 l 1
 480 50 l 1
 480 0 l 1
 30 0 l 1
 366 650 l 1
EndSplineSet
Validated: 3073
EndChar

StartChar: exclam
Encoding: 33 33 53
Width: 174
VWidth: 0
Flags: W
HStem: 0 80<45 125> 680 20G<45 125>
VStem: 45 80<0 80 457.333 700> 60 50<180 422.667>
LayerCount: 2
Fore
SplineSet
45 80 m 1xe0
 125 80 l 1
 125 0 l 1
 45 0 l 1
 45 80 l 1xe0
125 700 m 25
 110 180 l 25
 60 180 l 25xd0
 45 700 l 25
 125 700 l 25
EndSplineSet
Validated: 1
EndChar

StartChar: period
Encoding: 46 46 54
Width: 174
VWidth: 0
Flags: W
HStem: 0 80<45 125>
VStem: 45 80<0 80>
LayerCount: 2
Fore
SplineSet
45 80 m 1
 125 80 l 1
 125 0 l 1
 45 0 l 1
 45 80 l 1
EndSplineSet
Validated: 1
EndChar

StartChar: comma
Encoding: 44 44 55
Width: 174
VWidth: 0
Flags: W
HStem: -99 179<69 85.6473>
VStem: 48 72<-23.6391 80>
LayerCount: 2
Fore
SplineSet
48 80 m 1
 120 80 l 1
 120 -50 97 -72 82 -99 c 1
 45 -99 l 1
 64 -72 69 -50 69 -25 c 0
 69 4 48 35 48 80 c 1
EndSplineSet
Validated: 1
EndChar

StartChar: quotesingle
Encoding: 39 39 56
Width: 164
VWidth: 0
Flags: W
HStem: 500 200<60 100>
VStem: 60 40<500 593.333>
LayerCount: 2
Fore
SplineSet
115 700 m 25
 100 500 l 25
 60 500 l 25
 45 700 l 25
 115 700 l 25
EndSplineSet
Validated: 1
EndChar

StartChar: dollar
Encoding: 36 36 58
Width: 420
VWidth: 0
Flags: W
HStem: 0 21G<148 184 224 260> 73 50<184 224> 543 50<184.141 224> 640 20G<148 184 224 260>
VStem: 30 80<415.706 516.545> 148 36<0 73 132 323 403 530 593 660> 224 36<0 74 133 298 377 526 590 660> 305 80<153.392 278.24>
LayerCount: 2
Fore
SplineSet
356 531 m 1
 298 496 l 1
 282 509 271 519 260 526 c 1
 260 367 l 1
 347 337 385 282 385 226 c 0
 385 150 334 98 260 80 c 1
 260 0 l 1
 224 0 l 1
 224 74 l 1
 216 73 208 73 199 73 c 0
 194 73 189 73 184 73 c 1
 184 0 l 1
 148 0 l 1
 148 78 l 1
 104 86 75 108 30 140 c 1
 73 177 l 1
 103 156 122 141 148 132 c 1
 148 333 l 1
 77 357 30 402 30 464 c 0
 30 536 78 581 148 591 c 1
 148 660 l 1
 184 660 l 1
 184 593 l 1
 198 593 211 592 224 590 c 1
 224 660 l 1
 260 660 l 1
 260 582 l 1
 293 571 323 554 356 531 c 1
148 403 m 1
 148 530 l 1
 126 517 110 494 110 464 c 0
 110 438 125 417 148 403 c 1
184 323 m 1
 184 124 l 1
 193 123 203 123 214 123 c 2
 224 123 l 1
 224 314 l 1
 207 319 198 320 184 323 c 1
184 386 m 1
 200 381 208 380 224 377 c 1
 224 541 l 1
 216 542 206 543 194 543 c 0
 191 543 187 543 184 542 c 1
 184 386 l 1
260 298 m 1
 260 133 l 1
 292 150 305 187 305 226 c 0
 305 257 287 281 260 298 c 1
EndSplineSet
Validated: 1
EndChar

StartChar: bar
Encoding: 124 124 59
Width: 149
VWidth: 0
Flags: W
HStem: 0 21G<45 100> 680 20G<45 100>
VStem: 45 55<0 700>
LayerCount: 2
Fore
SplineSet
100 700 m 25
 100 0 l 25
 45 0 l 25
 45 700 l 25
 100 700 l 25
EndSplineSet
Validated: 1
EndChar

StartChar: slash
Encoding: 47 47 60
Width: 406
VWidth: 0
Flags: W
HStem: 0 21G<30 97.0857> 680 20G<304.914 372>
LayerCount: 2
Fore
SplineSet
372 700 m 1
 89 0 l 1
 30 0 l 1
 313 700 l 1
 372 700 l 1
EndSplineSet
Validated: 1
EndChar

StartChar: backslash
Encoding: 92 92 61
Width: 406
VWidth: 0
Flags: W
HStem: 0 21G<304.914 372> 680 20G<30 97.0857>
LayerCount: 2
Fore
SplineSet
30 700 m 1
 89 700 l 1
 372 0 l 1
 313 0 l 1
 30 700 l 1
EndSplineSet
Validated: 1
EndChar

StartChar: question
Encoding: 63 63 62
Width: 431
VWidth: 0
Flags: W
HStem: 0 80<145 225> 180 105<160 210> 620 50<110.583 253.291>
VStem: 145 80<0 80> 160 50<180 229> 321 80<349.609 545.331>
LayerCount: 2
Fore
SplineSet
145 80 m 1xf4
 225 80 l 1
 225 0 l 1
 145 0 l 1
 145 80 l 1xf4
218 236 m 1
 210 180 l 1
 160 180 l 1xec
 145 285 l 1
 180 285 l 2
 255 285 321 330 321 440 c 0
 321 550 270 620 175 620 c 0
 124 620 103 597 80 560 c 1
 20 583 l 1
 60 634 108 670 190 670 c 0
 320 670 401 580 401 440 c 0
 401 311 311 245 218 236 c 1
EndSplineSet
Validated: 1
EndChar

StartChar: percent
Encoding: 37 37 65
Width: 532
VWidth: 0
Flags: W
HStem: 76 53<342.868 425.132> 231 53<342.868 425.132> 356 53<102.868 185.132> 511 53<102.868 185.132>
VStem: 40 53<418.868 501.132> 195 53<418.868 501.132> 280 53<138.868 221.132> 435 53<138.868 221.132>
LayerCount: 2
Fore
SplineSet
333 180 m 0
 333 152 356 129 384 129 c 0
 412 129 435 152 435 180 c 0
 435 208 412 231 384 231 c 0
 356 231 333 208 333 180 c 0
280 180 m 0
 280 238 326 284 384 284 c 0
 442 284 488 238 488 180 c 0
 488 122 442 76 384 76 c 0
 326 76 280 122 280 180 c 0
93 460 m 0
 93 432 116 409 144 409 c 0
 172 409 195 432 195 460 c 0
 195 488 172 511 144 511 c 0
 116 511 93 488 93 460 c 0
40 460 m 0
 40 518 86 564 144 564 c 0
 202 564 248 518 248 460 c 0
 248 402 202 356 144 356 c 0
 86 356 40 402 40 460 c 0
40 129 m 5
 411 511 l 5
 488 511 l 5
 117 129 l 5
 40 129 l 5
EndSplineSet
Validated: 1
EndChar

StartChar: numbersign
Encoding: 35 35 66
Width: 484
VWidth: 0
Flags: W
HStem: 200 50<50 111 190 257 337 409> 410 50<75 148 227 294 374 434>
LayerCount: 2
Fore
SplineSet
182 200 m 1
 157 60 l 1
 86 60 l 1
 111 200 l 1
 50 200 l 1
 50 250 l 1
 119 250 l 1
 148 410 l 1
 75 410 l 1
 75 460 l 1
 156 460 l 1
 181 600 l 1
 252 600 l 1
 227 460 l 1
 303 460 l 1
 327 600 l 1
 398 600 l 1
 374 460 l 1
 434 460 l 1
 434 410 l 1
 365 410 l 1
 337 250 l 1
 409 250 l 1
 409 200 l 1
 328 200 l 1
 304 60 l 1
 233 60 l 1
 257 200 l 1
 182 200 l 1
190 250 m 1
 266 250 l 1
 294 410 l 1
 219 410 l 1
 190 250 l 1
EndSplineSet
Validated: 1
EndChar

StartChar: zero
Encoding: 48 48 67
Width: 460
VWidth: 0
Flags: W
HStem: -10 50<174.357 286.172> 490 50<182.883 286.172>
VStem: 15 80<140.07 374.202> 365 80<146.039 383.961>
LayerCount: 2
Fore
SplineSet
365 265 m 0
 365 371 311 490 236 490 c 0
 161 490 95 375 95 265 c 0
 95 155 141 40 236 40 c 0
 311 40 365 159 365 265 c 0
445 265 m 0
 445 111 351 -10 221 -10 c 0
 91 -10 15 125 15 265 c 0
 15 405 121 540 221 540 c 0
 351 540 445 419 445 265 c 0
EndSplineSet
Validated: 3073
EndChar

StartChar: one
Encoding: 49 49 68
Width: 460
VWidth: 0
Flags: W
HStem: 0 21G<200 280> 469 50<149 200>
VStem: 200 80<0 475>
LayerCount: 2
Fore
SplineSet
280 535 m 1
 280 0 l 1
 200 0 l 1
 200 475 l 1
 149 469 l 1
 149 519 l 1
 280 535 l 1
EndSplineSet
Validated: 3073
EndChar

StartChar: two
Encoding: 50 50 69
Width: 460
VWidth: 0
Flags: W
HStem: 0 50<140 400> 480 50<161.593 284.144>
VStem: 60 80<50 98.3128> 317 80<305.979 445.518>
LayerCount: 2
Fore
SplineSet
60 0 m 1
 60 226 317 225 317 371 c 0
 317 450 271 480 229 480 c 0
 176 480 142 453 123 404 c 1
 60 428 l 1
 87 484 142 530 244 530 c 0
 330 530 397 462 397 371 c 0
 397 210 140 194 140 50 c 1
 400 50 l 25
 400 0 l 25
 60 0 l 1
EndSplineSet
Validated: 3073
EndChar

StartChar: three
Encoding: 51 51 70
Width: 460
VWidth: 0
Flags: W
HStem: -126 50<154.327 275.677> 206 50<185 269.878> 480 50<162.031 279.144>
VStem: 312 80<296.094 445.518> 331 80<-17.6105 144.025>
LayerCount: 2
Fore
SplineSet
185 206 m 5xe8
 185 256 l 5
 265 256 312 290 312 371 c 0
 312 450 266 480 224 480 c 0
 171 480 147 453 128 404 c 1
 65 428 l 1
 92 484 137 530 239 530 c 0
 325 530 392 462 392 371 c 0
 392 305 364 258 312 231 c 5xf0
 383 197 411 132 411 56 c 4
 411 -42 325 -126 239 -126 c 4
 137 -126 76 -78 49 -22 c 5
 112 2 l 5
 131 -47 171 -76 224 -76 c 4
 266 -76 331 -22 331 56 c 4
 331 133 295 206 185 206 c 5xe8
EndSplineSet
Validated: 3073
EndChar

StartChar: four
Encoding: 52 52 71
Width: 460
VWidth: 0
Flags: W
HStem: 0 50<110 279 359 413>
VStem: 279 80<-116 0 50 412>
LayerCount: 2
Fore
SplineSet
47 33 m 1
 279 530 l 1
 359 530 l 1
 359 50 l 1
 413 50 l 1
 413 0 l 1
 359 0 l 1
 359 -116 l 1
 279 -116 l 1
 279 0 l 1
 47 0 l 1
 47 33 l 1
279 50 m 1
 279 412 l 1
 110 50 l 1
 279 50 l 1
EndSplineSet
Validated: 3073
EndChar

StartChar: five
Encoding: 53 53 72
Width: 460
VWidth: 0
Flags: W
HStem: -126 50<154.327 275.677> 480 50<206 358>
VStem: 331 80<-12.9983 178.912>
LayerCount: 2
Fore
SplineSet
89 271 m 1
 134 530 l 1
 358 530 l 1
 358 480 l 1
 206 480 l 1
 178 316 l 1
 363 296 411 206 411 81 c 0
 411 -44 325 -126 239 -126 c 0
 137 -126 76 -78 49 -22 c 1
 112 2 l 1
 131 -47 171 -76 224 -76 c 0
 266 -76 331 -26 331 81 c 0
 331 188 282 271 89 271 c 1
EndSplineSet
Validated: 3073
EndChar

StartChar: six
Encoding: 54 54 73
Width: 460
VWidth: 0
Flags: W
HStem: -10 50<174.505 278.113> 286 50<151.852 283.773>
VStem: 54 80<90.5793 266.19> 326 80<91.4324 242.146>
LayerCount: 2
Fore
SplineSet
139 271 m 1
 136 245 134 217 134 188 c 0
 134 90 174 40 224 40 c 0
 281 40 326 102 326 172 c 0
 326 229 284 286 233 286 c 0
 200 286 169 280 139 271 c 1
151 329 m 1
 172 334 195 336 218 336 c 0
 322 336 406 269 406 172 c 0
 406 76 332 -10 239 -10 c 0
 137 -10 54 64 54 188 c 0
 54 520 342 676 342 676 c 1
 376 646 l 1
 376 646 205 551 151 329 c 1
EndSplineSet
Validated: 3073
EndChar

StartChar: seven
Encoding: 55 55 74
Width: 460
VWidth: 0
Flags: W
HStem: 480 50<83 311>
VStem: 68 324
LayerCount: 2
Fore
SplineSet
83 530 m 1
 392 530 l 1
 392 480 l 1
 232 -116 l 1
 151 -116 l 1
 311 480 l 1
 68 480 l 1
 83 530 l 1
EndSplineSet
Validated: 3073
EndChar

StartChar: nine
Encoding: 57 57 75
Width: 460
VWidth: 0
Flags: W
HStem: 194 50<176.227 308.148> 490 50<165.097 275.691>
VStem: 54 80<287.854 444.177> 326 80<263.81 434.489>
LayerCount: 2
Fore
SplineSet
321 259 m 1
 324 285 326 313 326 342 c 0
 326 440 271 490 221 490 c 0
 152 490 134 428 134 358 c 0
 134 301 176 244 227 244 c 0
 260 244 291 250 321 259 c 1
309 201 m 1
 288 196 265 194 242 194 c 0
 138 194 54 261 54 358 c 0
 54 454 126 540 236 540 c 0
 320 540 406 466 406 342 c 0
 406 10 118 -146 118 -146 c 1
 84 -116 l 1
 84 -116 255 -21 309 201 c 1
EndSplineSet
Validated: 3073
EndChar

StartChar: eight
Encoding: 56 56 76
Width: 460
VWidth: 0
Flags: W
HStem: -10 50<167.009 304.14> 660 50<179.815 280.831>
VStem: 30 85<96.8442 268.719> 54 85<470.042 617.501> 330 85<457.548 606.567> 345 85<89.619 255.257>
LayerCount: 2
Fore
SplineSet
254 401 m 1xd8
 299 434 330 477 330 530 c 0
 330 606 276 660 232 660 c 0
 185 660 139 616 139 538 c 0
 139 467 193 434 254 401 c 1xd8
315 367 m 1
 376 329 430 279 430 178 c 0
 430 70 351 -10 223 -10 c 0
 109 -10 30 78 30 178 c 0xe4
 30 264 80 328 155 371 c 1
 100 405 54 450 54 538 c 0
 54 635 140 710 240 710 c 0
 336 710 415 634 415 530 c 0
 415 463 375 408 315 367 c 1
210 341 m 1
 151 308 115 256 115 178 c 0
 115 102 163 40 230 40 c 0
 315 40 345 92 345 178 c 0
 345 270 279 305 210 341 c 1
EndSplineSet
Validated: 3073
EndChar

StartChar: ampersand
Encoding: 38 38 77
Width: 568
VWidth: 0
Flags: W
HStem: -10 50<190.228 358.869> 0 21G<440.17 518> 620 50<243.795 343.776>
VStem: 30 80<123.48 318.302> 152 68<445.989 597.054> 470 60<220.799 405>
LayerCount: 2
Fore
SplineSet
434 590 m 1xbc
 357 573 l 1
 343 604 336 620 287 620 c 0
 241 620 220 571 220 528 c 0
 220 468 277 377 292 354 c 2
 428 141 l 1
 459 208 470 306 470 428 c 1
 530 405 l 1
 530 301 512 181 456 97 c 1
 518 0 l 1
 453 0 l 1x7c
 419 53 l 1
 379 14 326 -10 256 -10 c 0
 126 -10 30 80 30 220 c 0
 30 332 98 412 176 439 c 1
 162 468 152 498 152 528 c 0
 152 629 195 670 302 670 c 0
 385 670 420 622 434 590 c 1xbc
204 390 m 1
 150 367 110 306 110 220 c 0
 110 110 176 40 271 40 c 0xbc
 325 40 366 58 395 90 c 1
 204 390 l 1
EndSplineSet
Validated: 1
EndChar

StartChar: parenleft
Encoding: 40 40 78
Width: 268
VWidth: 0
Flags: W
HStem: 0 21G<161.257 218> 680 20G<161.257 218>
VStem: 50 80<181.929 518.071>
LayerCount: 2
Fore
SplineSet
50 350 m 0
 50 600 168 700 168 700 c 25
 218 700 l 25
 218 700 130 580 130 350 c 0
 130 120 218 0 218 0 c 25
 168 0 l 25
 168 0 50 100 50 350 c 0
EndSplineSet
Validated: 1
EndChar

StartChar: parenright
Encoding: 41 41 79
Width: 268
VWidth: 0
Flags: W
HStem: 0 21G<50 106.743> 680 20G<50 106.743>
VStem: 138 80<181.929 518.071>
LayerCount: 2
Fore
SplineSet
218 350 m 0
 218 100 100 0 100 0 c 25
 50 0 l 25
 50 0 138 120 138 350 c 0
 138 580 50 700 50 700 c 25
 100 700 l 25
 100 700 218 600 218 350 c 0
EndSplineSet
Validated: 1
EndChar

StartChar: asterisk
Encoding: 42 42 80
Width: 422
VWidth: 0
Flags: W
HStem: 331 329
LayerCount: 2
Fore
SplineSet
191 516 m 1
 180 660 l 1
 242 660 l 1
 231 516 l 1
 365 571 l 1
 384 512 l 1
 243 478 l 1
 337 368 l 1
 287 331 l 1
 211 454 l 1
 135 331 l 1
 85 368 l 1
 179 478 l 1
 38 512 l 1
 57 571 l 1
 191 516 l 1
191 516 m 1
179 478 m 1
211 454 m 1
243 478 m 1
231 516 m 1
EndSplineSet
Validated: 1
EndChar

StartChar: plus
Encoding: 43 43 81
Width: 418
VWidth: 0
Flags: W
HStem: 170 50<40 184 234 378>
VStem: 184 50<26 170 220 364>
LayerCount: 2
Fore
SplineSet
234 170 m 1
 234 26 l 1
 184 26 l 1
 184 170 l 1
 40 170 l 1
 40 220 l 1
 184 220 l 1
 184 364 l 1
 234 364 l 1
 234 220 l 1
 378 220 l 1
 378 170 l 1
 234 170 l 1
EndSplineSet
Validated: 1
EndChar

StartChar: hyphen
Encoding: 45 45 82
Width: 317
VWidth: 0
Flags: W
HStem: 170 50<40 277>
VStem: 40 237<170 220>
LayerCount: 2
Fore
SplineSet
40 220 m 1
 277 220 l 1
 277 170 l 1
 40 170 l 1
 40 220 l 1
EndSplineSet
Validated: 1
EndChar

StartChar: less
Encoding: 60 60 83
Width: 418
VWidth: 0
Flags: W
HStem: 420 20G<304.443 347.146>
VStem: 56 306
LayerCount: 2
Fore
SplineSet
56 246 m 1
 333 440 l 1
 362 399 l 1
 143 246 l 1
 362 94 l 1
 333 53 l 1
 56 246 l 1
EndSplineSet
Validated: 1
EndChar

StartChar: greater
Encoding: 62 62 84
Width: 418
VWidth: 0
Flags: W
HStem: 420 20G<70.8537 113.705>
VStem: 56 306
LayerCount: 2
Fore
SplineSet
362 247 m 5
 85 53 l 1
 56 94 l 1
 275 247 l 1
 56 399 l 1
 85 440 l 1
 362 247 l 5
EndSplineSet
Validated: 1
EndChar

StartChar: equal
Encoding: 61 61 85
Width: 346
VWidth: 0
Flags: W
HStem: 170 50<40 306> 280 50<40 306>
VStem: 40 266<170 220 280 330>
LayerCount: 2
Fore
SplineSet
40 330 m 1
 306 330 l 1
 306 280 l 1
 40 280 l 1
 40 330 l 1
40 220 m 1
 306 220 l 1
 306 170 l 1
 40 170 l 1
 40 220 l 1
EndSplineSet
Validated: 1
EndChar

StartChar: at
Encoding: 64 64 86
Width: 650
VWidth: 0
Flags: W
HStem: -10 50<274.391 465.714> 128 50<428.696 487.079> 136 32<290.686 370.001> 420 32<291.024 358.61> 550 50<252.697 416.964>
VStem: 40 85<190.505 410.19> 208 51<195.498 391.309> 374 50<194.706 408.864> 513 85<252.88 450.551>
LayerCount: 2
Fore
SplineSet
426 364 m 0xbf80
 426 318 424 298 424 250 c 0
 424 190 435 178 452 178 c 0
 499 178 513 254 513 353 c 0
 513 480 420 550 348 550 c 0
 232 550 125 466 125 300 c 0
 125 115 272 40 367 40 c 0
 444 40 504 72 541 129 c 1
 600 102 l 1
 550 38 461 -10 352 -10 c 0
 222 -10 40 90 40 300 c 0
 40 486 202 600 333 600 c 0
 490 600 598 506 598 353 c 0
 598 239 513 128 437 128 c 0xdf80
 419 128 402 134 391 156 c 1
 372 143 349 136 316 136 c 0
 234 136 208 210 208 300 c 0
 208 390 256 452 320 452 c 0
 372 452 426 428 426 364 c 0xbf80
378 194 m 1
 375 209 374 228 374 250 c 0
 374 308 376 302 376 364 c 0
 376 388 352 420 330 420 c 0
 282 420 259 370 259 300 c 0
 259 230 278 168 325 168 c 0xbf80
 355 168 365 175 378 194 c 1
EndSplineSet
Validated: 3073
EndChar

StartChar: bracketleft
Encoding: 91 91 87
Width: 211
VWidth: 0
Flags: W
HStem: 0 40<100 166> 620 40<100 166>
VStem: 45 121<0 40 620 660> 45 55<40 620>
LayerCount: 2
Fore
SplineSet
166 0 m 1xe0
 45 0 l 1
 45 660 l 1
 166 660 l 1
 166 620 l 1xe0
 100 620 l 1
 100 40 l 1xd0
 166 40 l 1
 166 0 l 1xe0
EndSplineSet
Validated: 1
EndChar

StartChar: bracketright
Encoding: 93 93 88
Width: 211
VWidth: 0
Flags: W
HStem: 0 40<45 111> 620 40<45 111>
VStem: 45 121<0 40 620 660> 111 55<40 620>
LayerCount: 2
Fore
SplineSet
45 660 m 1xe0
 166 660 l 1
 166 0 l 1
 45 0 l 1
 45 40 l 1xe0
 111 40 l 1
 111 620 l 1xd0
 45 620 l 1
 45 660 l 1xe0
EndSplineSet
Validated: 1
EndChar

StartChar: underscore
Encoding: 95 95 89
Width: 338
VWidth: 0
Flags: W
HStem: -90 50<0 338>
LayerCount: 2
Fore
SplineSet
0 -40 m 1
 338 -40 l 1
 338 -90 l 1
 0 -90 l 1
 0 -40 l 1
EndSplineSet
Validated: 1
EndChar

StartChar: braceleft
Encoding: 123 123 90
Width: 259
VWidth: 0
Flags: W
HStem: 0 21G<101.5 219> 680 20G<101.5 219>
VStem: 40 179
LayerCount: 2
Fore
SplineSet
169 700 m 1
 219 700 l 1
 116 624 215 422 90 350 c 1
 215 278 117 76 219 0 c 1
 169 0 l 1
 34 77 134 281 40 350 c 1
 134 419 34 623 169 700 c 1
EndSplineSet
Validated: 1
EndChar

StartChar: braceright
Encoding: 125 125 91
Width: 259
VWidth: 0
Flags: W
HStem: 0 21G<40 157.5> 680 20G<40 157.5>
VStem: 40 179
LayerCount: 2
Fore
SplineSet
90 0 m 1
 40 0 l 1
 143 76 44 278 169 350 c 1
 44 422 142 624 40 700 c 1
 90 700 l 1
 225 623 125 419 219 350 c 1
 125 281 225 77 90 0 c 1
EndSplineSet
Validated: 1
EndChar

StartChar: gravecomb
Encoding: 768 768 92
Width: 0
VWidth: 0
Flags: W
HStem: 613 189
VStem: -340 171
AnchorPoint: "top" -222 580 mark 0
LayerCount: 2
Fore
SplineSet
-286 802 m 29
 -169 639 l 29
 -200 613 l 29
 -340 757 l 29
 -286 802 l 29
EndSplineSet
Validated: 1
EndChar

StartChar: acutecomb
Encoding: 769 769 93
Width: 0
VWidth: 0
Flags: W
HStem: 613 189
VStem: -340 171
AnchorPoint: "top" -287 580 mark 0
LayerCount: 2
Fore
SplineSet
-223 802 m 29
 -169 757 l 29
 -309 613 l 29
 -340 639 l 29
 -223 802 l 29
EndSplineSet
Validated: 1
EndChar

StartChar: uni0302
Encoding: 770 770 94
Width: 0
VWidth: 0
Flags: W
HStem: 614 146
VStem: -421 269
AnchorPoint: "top" -287 580 mark 0
LayerCount: 2
Fore
SplineSet
-152 658 m 1
 -197 614 l 1
 -286 700 l 1
 -376 614 l 1
 -421 658 l 1
 -286 760 l 1
 -152 658 l 1
EndSplineSet
Validated: 3073
EndChar

StartChar: tildecomb
Encoding: 771 771 95
Width: 0
VWidth: 0
Flags: W
HStem: 620 57<-285.459 -188.446> 652 57<-375.554 -278.541>
VStem: -420 41<620 644.664> -185 41<684.336 709>
AnchorPoint: "top" -287 580 mark 0
LayerCount: 2
Fore
SplineSet
-185 709 m 5x70
 -144 709 l 5x70
 -150 659 -184 620 -242 620 c 4xb0
 -276 620 -305 652 -327 652 c 4x70
 -357 652 -376 642 -379 620 c 5
 -420 620 l 5xb0
 -414 670 -380 709 -322 709 c 4x70
 -288 709 -259 677 -237 677 c 4xb0
 -207 677 -188 687 -185 709 c 5x70
EndSplineSet
Validated: 1
EndChar

StartChar: uni0304
Encoding: 772 772 96
Width: 0
VWidth: 0
Flags: W
HStem: 620 40<-407 -177>
VStem: -407 230<620 660>
AnchorPoint: "top" -287 580 mark 0
LayerCount: 2
Fore
SplineSet
-407 660 m 1
 -177 660 l 1
 -177 620 l 1
 -407 620 l 1
 -407 660 l 1
EndSplineSet
Validated: 1
EndChar

StartChar: uni0306
Encoding: 774 774 97
Width: 0
VWidth: 0
Flags: W
HStem: 620 57<-346.684 -227.316>
VStem: -400 38<696.892 714.842> -212 38<696.892 714.842>
AnchorPoint: "top" -287 580 mark 0
LayerCount: 2
Fore
SplineSet
-287 677 m 0
 -250 677 -215 701 -212 723 c 1
 -174 713 l 1
 -180 663 -229 620 -287 620 c 0
 -345 620 -394 663 -400 713 c 1
 -362 723 l 1
 -359 701 -324 677 -287 677 c 0
EndSplineSet
Validated: 1
EndChar

StartChar: uni0307
Encoding: 775 775 98
Width: 0
VWidth: 0
Flags: W
HStem: 620 87<-329 -249>
VStem: -329 80<620 707>
AnchorPoint: "top" -287 580 mark 0
LayerCount: 2
Fore
SplineSet
-329 707 m 1
 -249 707 l 1
 -249 620 l 1
 -329 620 l 1
 -329 707 l 1
EndSplineSet
Validated: 3073
EndChar

StartChar: uni030A
Encoding: 778 778 100
Width: 0
VWidth: 0
Flags: W
HStem: 570 30<-320.056 -253.944> 692 30<-320.056 -253.944>
VStem: -363 30<612.944 679.056> -241 30<612.944 679.056>
AnchorPoint: "top" -287 580 mark 0
LayerCount: 2
Fore
SplineSet
-333 646 m 0
 -333 621 -312 600 -287 600 c 0
 -262 600 -241 621 -241 646 c 0
 -241 671 -262 692 -287 692 c 0
 -312 692 -333 671 -333 646 c 0
-363 646 m 0
 -363 688 -329 722 -287 722 c 0
 -245 722 -211 688 -211 646 c 0
 -211 604 -245 570 -287 570 c 0
 -329 570 -363 604 -363 646 c 0
EndSplineSet
Validated: 1
EndChar

StartChar: uni030C
Encoding: 780 780 102
Width: 0
VWidth: 0
Flags: W
HStem: 556 189
VStem: -404 234
AnchorPoint: "top" -287 580 mark 0
LayerCount: 2
Fore
SplineSet
-287 556 m 1
 -404 719 l 1
 -373 745 l 1
 -287 657 l 1
 -201 745 l 1
 -170 719 l 1
 -287 556 l 1
EndSplineSet
Validated: 1
EndChar

StartChar: uni0311
Encoding: 785 785 104
Width: 0
VWidth: 0
Flags: W
HStem: 656 57<-346.684 -227.316>
VStem: -400 38<618.158 636.108> -212 38<618.158 636.108>
AnchorPoint: "top" -287 580 mark 0
LayerCount: 2
Fore
SplineSet
-287 656 m 0
 -324 656 -359 632 -362 610 c 1
 -400 620 l 1
 -394 670 -345 713 -287 713 c 0
 -229 713 -180 670 -174 620 c 1
 -212 610 l 1
 -215 632 -250 656 -287 656 c 0
EndSplineSet
Validated: 1
EndChar

StartChar: uni0312
Encoding: 786 786 105
Width: 0
VWidth: 0
Flags: W
HStem: 620 179<-291.647 -275>
VStem: -326 72<620 723.639>
AnchorPoint: "top" -287 580 mark 0
LayerCount: 2
Fore
SplineSet
-254 620 m 1
 -326 620 l 1
 -326 750 -303 772 -288 799 c 1
 -251 799 l 1
 -270 772 -275 750 -275 725 c 0
 -275 696 -254 665 -254 620 c 1
EndSplineSet
Validated: 1
EndChar

StartChar: uni0313
Encoding: 787 787 106
Width: 0
VWidth: 0
Flags: W
HStem: 620 179<-285 -268.353>
VStem: -306 72<695.361 799>
AnchorPoint: "top" -287 580 mark 0
LayerCount: 2
Fore
SplineSet
-306 799 m 1
 -234 799 l 1
 -234 669 -257 647 -272 620 c 1
 -309 620 l 1
 -290 647 -285 669 -285 694 c 0
 -285 723 -306 754 -306 799 c 1
EndSplineSet
Validated: 1
EndChar

StartChar: uni0314
Encoding: 788 788 107
Width: 0
VWidth: 0
Flags: W
HStem: 620 179<-308.647 -292>
VStem: -343 72<695.361 799>
AnchorPoint: "top" -287 580 mark 0
LayerCount: 2
Fore
SplineSet
-271 799 m 1
 -271 754 -292 723 -292 694 c 0
 -292 669 -287 647 -268 620 c 1
 -305 620 l 1
 -320 647 -343 669 -343 799 c 1
 -271 799 l 1
EndSplineSet
Validated: 1
EndChar

StartChar: uni0326
Encoding: 806 806 108
Width: 0
VWidth: 0
Flags: W
HStem: -196 24<-364 -278.633> -80 28<-328 -274.578>
VStem: -256 62<-160.05 -91.6011>
AnchorPoint: "cedilla" -288 0 mark 0
LayerCount: 2
Fore
SplineSet
-328 -52 m 17
 -251 -52 -194 -83 -194 -122 c 0
 -194 -162 -252 -196 -364 -196 c 1
 -364 -172 l 17
 -298 -172 -256 -164 -256 -128 c 0
 -256 -98 -274 -86 -328 -80 c 1
 -328 -52 l 17
EndSplineSet
Validated: 1
EndChar

StartChar: uni0327
Encoding: 807 807 109
Width: 0
VWidth: 0
Flags: W
HStem: -196 24<-364 -278.633> -80 80<-314 -268.762>
VStem: -314 52<-40 0> -256 62<-160.05 -91.7033>
AnchorPoint: "cedilla" -288 0 mark 0
LayerCount: 2
Fore
SplineSet
-262 0 m 25
 -268 -54 l 17
 -228 -61 -194 -83 -194 -122 c 0
 -194 -162 -252 -196 -364 -196 c 1
 -364 -172 l 17
 -298 -172 -256 -164 -256 -128 c 0
 -256 -98 -274 -86 -328 -80 c 1
 -314 0 l 25
 -262 0 l 25
EndSplineSet
Validated: 1
EndChar

StartChar: uni0328
Encoding: 808 808 110
Width: 0
VWidth: 0
Flags: W
HStem: -156 18<-260.433 -210>
VStem: -348 56<-124.015 -42.1477>
AnchorPoint: "ogonek" -236 0 mark 0
LayerCount: 2
Fore
SplineSet
-236 12 m 9
 -236 12 -236 7 -236 0 c 1
 -262 -13 -292 -38 -292 -73 c 0
 -292 -112 -276 -138 -210 -138 c 9
 -210 -156 l 1
 -322 -156 -348 -119 -348 -91 c 0
 -348 -42 -285 -2 -236 12 c 9
EndSplineSet
Validated: 1
EndChar

StartChar: uni0237
Encoding: 567 567 111
Width: 262
VWidth: 0
Flags: W
HStem: -170 50<-1.25167 106.728> 420 20G<123 203>
VStem: 123 80<-105.645 440>
AnchorPoint: "bottom" 63 -170 basechar 0
AnchorPoint: "top" 163 490 basechar 0
LayerCount: 2
Fore
SplineSet
16 -95 m 1
 30 -115 50 -120 69 -120 c 0
 109 -120 123 -82 123 0 c 2
 123 440 l 1
 203 440 l 1
 203 -33 l 2
 203 -132 124 -170 54 -170 c 0
 16 -170 -21 -156 -47 -125 c 1
 16 -95 l 1
EndSplineSet
Validated: 3073
EndChar

StartChar: dotlessi
Encoding: 305 305 112
Width: 199
VWidth: 0
Flags: W
HStem: 0 21G<60 140> 420 20G<60 140>
VStem: 60 80<0 440>
AnchorPoint: "ogonek" 136 0 basechar 0
AnchorPoint: "bottom" 99 0 basechar 0
AnchorPoint: "top" 101 490 basechar 0
LayerCount: 2
Fore
SplineSet
60 440 m 1
 140 440 l 1
 140 0 l 1
 60 0 l 1
 60 440 l 1
EndSplineSet
Validated: 3073
EndChar

StartChar: Thorn
Encoding: 222 222 163
Width: 532
VWidth: 0
Flags: W
HStem: 0 21G<85 170> 160 50<170 368.697> 490 50<170 369.44> 680 20G<85 170>
VStem: 85 85<0 160 210 490 540 700> 422 85<265.964 434.036>
AnchorPoint: "top" 218 700 basechar 0
AnchorPoint: "bottom" 220 0 basechar 0
LayerCount: 2
Fore
SplineSet
170 160 m 1
 170 0 l 1
 85 0 l 1
 85 700 l 1
 170 700 l 1
 170 540 l 1
 290 540 l 2
 450 540 507 430 507 350 c 0
 507 270 448 160 290 160 c 2
 170 160 l 1
170 490 m 1
 170 210 l 1
 305 210 l 2
 390 210 422 290 422 350 c 0
 422 410 390 490 305 490 c 2
 170 490 l 1
EndSplineSet
Validated: 3073
EndChar

StartChar: thorn
Encoding: 254 254 164
Width: 531
VWidth: 0
Flags: W
HStem: -8 50<214.169 337.87> 402 50<205.627 344.026> 640 20G<72 152>
VStem: 72 80<-200 29 117.037 346.863 423 660> 409 80<127.955 322.168>
LayerCount: 2
Fore
SplineSet
152 29 m 1
 152 -200 l 1
 72 -200 l 1
 72 660 l 1
 152 660 l 1
 152 423 l 1
 185 444 228 452 277 452 c 0
 402 452 489 347 489 222 c 0
 489 97 391 -8 267 -8 c 0
 221 -8 182 6 152 29 c 1
152 248 m 2
 152 246 l 2
 152 154 176 42 282 42 c 0
 352 42 409 137 409 222 c 0
 409 307 362 402 292 402 c 0
 186 402 152 342 152 248 c 2
EndSplineSet
Validated: 3073
EndChar

StartChar: multiply
Encoding: 215 215 165
Width: 418
VWidth: 0
Flags: W
HStem: 112 274
VStem: 72 274
LayerCount: 2
Fore
SplineSet
244 249 m 1
 346 147 l 1
 311 112 l 1
 209 214 l 1
 107 112 l 1
 72 147 l 1
 174 249 l 1
 72 351 l 1
 107 386 l 1
 209 284 l 1
 311 386 l 1
 346 351 l 1
 244 249 l 1
EndSplineSet
Validated: 1
EndChar

StartChar: Oslash
Encoding: 216 216 166
Width: 701
VWidth: 0
UnlinkRmOvrlpSave: 1
Flags: W
HStem: -10 50<275.467 428.164> 0 21G<182 245> 660 50<269.011 430.161> 680 20G<460 524>
VStem: 50 85<211.499 494.263> 568 85<213.851 492.308>
AnchorPoint: "top" 345 700 basechar 0
AnchorPoint: "ogonek" 354 0 basechar 0
AnchorPoint: "bottom" 352 0 basechar 0
LayerCount: 2
Fore
SplineSet
341 660 m 0x2c
 251 660 135 560 135 350 c 0
 135 231 174 151 223 101 c 1
 438 634 l 1
 407 652 373 660 341 660 c 0x2c
483 599 m 1
 268 66 l 1
 297 48 326 40 350 40 c 0x8c
 448 40 568 140 568 350 c 0
 568 469 532 550 483 599 c 1
460 687 m 1
 465 700 l 1
 524 700 l 1
 508 661 l 1
 593 607 653 506 653 350 c 0
 653 100 508 -10 344 -10 c 0x9c
 312 -10 278 -4 245 10 c 1
 241 0 l 1
 182 0 l 1
 196 35 l 1
 115 89 50 191 50 350 c 0
 50 600 201 710 335 710 c 0x6c
 378 710 420 702 460 687 c 1
EndSplineSet
EndChar

StartChar: oslash
Encoding: 248 248 167
Width: 516
VWidth: 0
Flags: W
HStem: -10 50<221 328.845> 400 50<197.283 301.711>
VStem: 44 80<109.837 316.52> 394 80<117.779 324.891>
AnchorPoint: "top" 261 490 basechar 0
AnchorPoint: "ogonek" 262 0 basechar 0
AnchorPoint: "bottom" 252 0 basechar 0
LayerCount: 2
Fore
SplineSet
474 220 m 0
 474 66 380 -10 250 -10 c 0
 232 -10 216 -8 200 -5 c 1
 182 -50 l 1
 123 -50 l 1
 148 13 l 1
 81 48 44 122 44 220 c 0
 44 360 150 450 250 450 c 0
 275 450 299 447 321 441 c 1
 341 490 l 1
 400 490 l 1
 372 421 l 1
 435 386 474 319 474 220 c 0
173 73 m 1
 302 394 l 1
 290 398 278 400 265 400 c 0
 190 400 124 330 124 220 c 0
 124 155 140 104 173 73 c 1
221 46 m 1
 234 42 249 40 265 40 c 0
 340 40 394 114 394 220 c 0
 394 280 377 330 348 362 c 1
 221 46 l 1
EndSplineSet
Validated: 3073
EndChar

StartChar: AE
Encoding: 198 198 168
Width: 761
VWidth: 0
Flags: W
HStem: 0 50<385 720> 200 50<190 300> 390 50<385 614> 650 50<385 704>
VStem: 300 85<50 200 250 390 440 552>
AnchorPoint: "bottom" 396 0 basechar 0
AnchorPoint: "top" 378 700 basechar 0
LayerCount: 2
Fore
SplineSet
19 0 m 1
 274 700 l 1
 704 700 l 1
 704 650 l 1
 385 650 l 1
 385 440 l 1
 614 440 l 1
 614 390 l 1
 385 390 l 1
 385 50 l 1
 720 50 l 1
 720 0 l 1
 300 0 l 1
 300 200 l 1
 172 200 l 1
 99 0 l 1
 19 0 l 1
190 250 m 1
 300 250 l 1
 300 552 l 1
 190 250 l 1
EndSplineSet
Validated: 3073
EndChar

StartChar: ae
Encoding: 230 230 169
Width: 797
VWidth: 0
Flags: W
HStem: -10 50<173.99 337.045 497.704 652.979> 220 50<424 671> 254 50<167.379 335.862> 400 50<148.634 310.891 491.685 617.951>
VStem: 46 80<87.0144 214.868> 339 80<121.961 220>
AnchorPoint: "bottom" 411 0 basechar 0
AnchorPoint: "top" 402 487 basechar 0
LayerCount: 2
Fore
SplineSet
337 296 m 1xbc
 333 372 312 400 229 400 c 0
 194 400 152 385 106 353 c 1
 56 405 l 1
 102 429 159 450 214 450 c 0
 318 450 371 433 396 379 c 1
 436 424 491 450 545 450 c 0
 684 450 755 330 755 220 c 1
 419 220 l 1xdc
 419 110 485 40 580 40 c 0
 631 40 667 63 690 100 c 1
 750 77 l 1
 710 26 647 -10 565 -10 c 0
 505 -10 452 9 412 44 c 1
 361 10 291 -10 230 -10 c 0
 125 -10 46 32 46 152 c 0
 46 272 150 304 230 304 c 0
 268 304 304 301 337 296 c 1xbc
339 61 m 1
 339 224 l 2
 339 231 339 237 339 243 c 1
 310 250 278 254 245 254 c 0xbc
 185 254 126 222 126 152 c 0
 126 82 185 40 245 40 c 0
 278 40 309 47 339 61 c 1
424 270 m 1xdc
 671 270 l 1
 660 344 623 400 560 400 c 0
 497 400 441 351 424 270 c 1xdc
EndSplineSet
Validated: 3073
EndChar

StartChar: eth
Encoding: 240 240 170
Width: 505
VWidth: 0
Flags: W
HStem: -10 50<198.578 328.543> 400 50<198.478 333.067> 640 20G<299.19 339.429>
VStem: 44 80<125.955 314.045> 381 80<103.32 342.181>
AnchorPoint: "top" 276 700 basechar 0
AnchorPoint: "bottom" 252 0 basechar 0
LayerCount: 2
Fore
SplineSet
299 592 m 1
 397 489 461 364 461 212 c 0
 461 48 346 -10 246 -10 c 0
 132 -10 44 95 44 220 c 0
 44 345 114 450 246 450 c 0
 278 450 310 444 339 431 c 1
 317 479 288 519 252 553 c 1
 200 510 l 1
 177 537 l 1
 225 578 l 1
 205 595 182 612 158 628 c 1
 208 674 l 1
 230 657 252 638 273 618 c 1
 323 660 l 1
 346 632 l 1
 299 592 l 1
381 180 m 1
 381 342 354 400 261 400 c 0
 176 400 124 305 124 220 c 0
 124 135 176 40 261 40 c 0
 329 40 379 88 381 180 c 1
EndSplineSet
Validated: 3073
EndChar

StartChar: Eth
Encoding: 208 208 173
Width: 637
VWidth: 0
UnlinkRmOvrlpSave: 1
Flags: W
HStem: 0 50<170 403.351> 390 50<50 85 170 256> 650 50<170 410.5>
VStem: 85 85<50 390 440 650> 503 85<192.383 523.986>
AnchorPoint: "top" 284 700 basechar 0
AnchorPoint: "bottom" 290 0 basechar 0
LayerCount: 2
Fore
SplineSet
327 0 m 2
 85 0 l 1
 85 390 l 1
 50 390 l 5
 50 440 l 5
 85 440 l 1
 85 700 l 1
 327 700 l 2
 487 700 588 602 588 360 c 0
 588 120 485 0 327 0 c 2
170 390 m 1
 170 50 l 1
 342 50 l 2
 427 50 503 140 503 360 c 0
 503 580 427 650 342 650 c 2
 170 650 l 1
 170 440 l 1
 256 440 l 5
 256 390 l 5
 170 390 l 1
EndSplineSet
EndChar

StartChar: germandbls
Encoding: 223 223 174
Width: 449
VWidth: 0
Flags: W
HStem: 0 21G<68 148> 390 50<148 301> 620 50<174.522 311.709>
VStem: 68 80<0 390 440 592.994> 335 80<-6.33847 114.42>
LayerCount: 2
Fore
SplineSet
279 245 m 1
 327 207 415 125 415 50 c 0
 415 -52 227 -114 227 -114 c 1
 202 -74 l 1
 202 -74 335 -36 335 50 c 0
 335 136 202 234 202 234 c 1
 301 390 l 1
 148 390 l 1
 148 0 l 1
 68 0 l 1
 68 422 l 2
 68 622 81 670 258 670 c 0
 313 670 355 649 401 625 c 1
 351 573 l 1
 305 605 278 620 243 620 c 0
 151 620 148 572 148 440 c 1
 402 440 l 1
 279 245 l 1
EndSplineSet
Validated: 3073
EndChar

StartChar: Lslash
Encoding: 321 321 224
Width: 529
VWidth: 0
UnlinkRmOvrlpSave: 1
Flags: W
HStem: 0 50<170 505> 680 20G<85 170>
VStem: 85 85<50 344 410 415 481 700>
AnchorPoint: "top" 215 700 basechar 0
AnchorPoint: "cedilla" 291 0 basechar 0
AnchorPoint: "bottom" 295 0 basechar 0
LayerCount: 2
Fore
SplineSet
170 50 m 1
 505 50 l 1
 505 0 l 1
 85 0 l 1
 85 344 l 1
 36 303 l 1
 4 342 l 1
 85 410 l 1
 85 700 l 1
 170 700 l 1
 170 481 l 1
 225 527 l 1
 257 488 l 1
 170 415 l 1
 170 50 l 1
EndSplineSet
EndChar

StartChar: lslash
Encoding: 322 322 225
Width: 223
VWidth: 0
UnlinkRmOvrlpSave: 1
Flags: W
HStem: 0 21G<72 152> 640 20G<72 152>
VStem: 72 80<0 348 414 415 481 660>
AnchorPoint: "top" 112 700 basechar 0
AnchorPoint: "cedilla" 109 0 basechar 0
AnchorPoint: "bottom" 111 0 basechar 0
LayerCount: 2
Fore
SplineSet
72 348 m 1
 18 303 l 1
 -14 342 l 1
 72 414 l 1
 72 660 l 1
 152 660 l 1
 152 481 l 1
 207 527 l 1
 239 488 l 1
 152 415 l 1
 152 0 l 1
 72 0 l 1
 72 348 l 1
EndSplineSet
EndChar

StartChar: dcroat
Encoding: 273 273 226
Width: 532
VWidth: 0
UnlinkRmOvrlpSave: 1
Flags: W
HStem: -10 50<196.864 325.086> 0 21G<381 461> 400 50<197.02 321.93> 530 50<288 381 461 494> 640 20G<381 461>
VStem: 44 80<125.955 314.045> 381 80<0 23 100.957 324.963 402 530 580 660>
AnchorPoint: "top" 253 660 basechar 0
AnchorPoint: "bottom" 251 0 basechar 0
LayerCount: 2
Fore
SplineSet
381 194 m 2xbe
 381 196 l 2
 381 288 354 400 261 400 c 0
 176 400 124 305 124 220 c 0
 124 135 176 40 261 40 c 0
 329 40 381 100 381 194 c 2xbe
461 530 m 1
 461 0 l 1
 381 0 l 1x7e
 381 23 l 1
 345 0 299 -10 246 -10 c 0
 121 -10 44 95 44 220 c 0
 44 345 122 450 246 450 c 0
 299 450 345 432 381 402 c 1
 381 530 l 1
 288 530 l 1
 288 580 l 1
 381 580 l 1
 381 660 l 1
 461 660 l 1
 461 580 l 1
 494 580 l 1
 494 530 l 1
 461 530 l 1
EndSplineSet
EndChar

StartChar: Hbar
Encoding: 294 294 246
Width: 660
VWidth: 0
UnlinkRmOvrlpSave: 1
Flags: W
HStem: 0 21G<85 170 492 577> 350 50<170 492> 566 50<45 85 170 492 577 617> 680 20G<85 170 492 577>
VStem: 85 85<0 350 400 566 616 700> 492 85<0 350 400 566 616 700>
AnchorPoint: "top" 340 700 basechar 0
AnchorPoint: "bottom" 329 0 basechar 0
LayerCount: 2
Fore
SplineSet
85 566 m 1
 45 566 l 1
 45 616 l 1
 85 616 l 1
 85 700 l 1
 170 700 l 1
 170 616 l 1
 492 616 l 1
 492 700 l 1
 577 700 l 1
 577 616 l 1
 617 616 l 1
 617 566 l 1
 577 566 l 1
 577 0 l 1
 492 0 l 1
 492 350 l 1
 170 350 l 1
 170 0 l 1
 85 0 l 1
 85 566 l 1
492 566 m 1
 170 566 l 1
 170 400 l 1
 492 400 l 1
 492 566 l 1
EndSplineSet
EndChar

StartChar: hbar
Encoding: 295 295 247
Width: 531
VWidth: 0
UnlinkRmOvrlpSave: 1
Flags: W
HStem: 0 21G<72 152 383 463> 400 50<188.149 340.498> 530 50<32 72 152 238> 640 20G<72 152>
VStem: 72 80<0 369.252 425 530 580 660> 383 80<0 350.248>
AnchorPoint: "top" 181 700 basechar 0
AnchorPoint: "bottom" 260 0 basechar 0
LayerCount: 2
Fore
SplineSet
152 353 m 1
 152 0 l 1
 72 0 l 1
 72 530 l 1
 32 530 l 1
 32 580 l 1
 72 580 l 1
 72 660 l 1
 152 660 l 1
 152 580 l 1
 238 580 l 1
 238 530 l 1
 152 530 l 1
 152 425 l 1
 183 441 217 450 254 450 c 0
 394 450 463 382 463 240 c 2
 463 0 l 1
 383 0 l 1
 383 228 l 2
 383 368 339 400 269 400 c 0
 224 400 185 382 152 353 c 1
EndSplineSet
EndChar

StartChar: kgreenlandic
Encoding: 312 312 305
Width: 479
VWidth: 0
Flags: W
HStem: 0 21G<72 152 344.145 446> 420 20G<72 152 318.222 428>
VStem: 72 80<0 131 233 440>
AnchorPoint: "top" 238 490 basechar 0
AnchorPoint: "cedilla" 254 0 basechar 0
AnchorPoint: "bottom" 254 0 basechar 0
LayerCount: 2
Fore
SplineSet
152 131 m 1
 152 0 l 1
 72 0 l 1
 72 440 l 1
 152 440 l 1
 152 233 l 1
 336 440 l 1
 428 440 l 1
 254 245 l 1
 446 0 l 1
 360 0 l 1
 207 193 l 1
 152 131 l 1
EndSplineSet
Validated: 3073
EndChar

StartChar: Tbar
Encoding: 358 358 306
Width: 625
VWidth: 0
UnlinkRmOvrlpSave: 1
Flags: W
HStem: 0 21G<270 355> 440 50<170 270 355 455> 650 50<20 270 355 605>
VStem: 270 85<0 440 490 650>
AnchorPoint: "top" 314 700 basechar 0
AnchorPoint: "cedilla" 312 0 basechar 0
AnchorPoint: "bottom" 314 0 basechar 0
LayerCount: 2
Fore
SplineSet
20 700 m 1
 607 700 l 1
 605 650 l 1
 355 650 l 1
 355 490 l 1
 455 490 l 1
 455 440 l 1
 355 440 l 1
 355 0 l 1
 270 0 l 1
 270 440 l 1
 170 440 l 1
 170 490 l 1
 270 490 l 1
 270 650 l 1
 20 650 l 1
 20 700 l 1
EndSplineSet
EndChar

StartChar: tbar
Encoding: 359 359 307
Width: 277
VWidth: 0
UnlinkRmOvrlpSave: 1
Flags: W
HStem: 0 21G<91 171> 244 50<15 91 171 258> 390 50<40 91 171 250>
VStem: 91 80<0 244 294 390 440 585>
AnchorPoint: "cedilla" 128 0 basechar 0
AnchorPoint: "bottom" 128 0 basechar 0
AnchorPoint: "top" 132 660 basechar 0
LayerCount: 2
Fore
SplineSet
91 244 m 1
 15 244 l 1
 15 294 l 1
 91 294 l 1
 91 390 l 1
 25 390 l 1
 40 440 l 1
 91 440 l 1
 91 585 l 1
 171 600 l 1
 171 440 l 1
 250 440 l 1
 250 390 l 1
 171 390 l 1
 171 294 l 1
 258 294 l 1
 258 244 l 1
 171 244 l 1
 171 0 l 1
 91 0 l 1
 91 244 l 1
EndSplineSet
EndChar

StartChar: Eng
Encoding: 330 330 308
Width: 611
VWidth: 0
Flags: W
HStem: -10 50<297.573 420.744> 0 21G<72 157> 620 50<226.606 403.091> 640 20G<72 157>
VStem: 72 85<0 570.86 626 660> 462 85<115.953 552.719>
LayerCount: 2
Fore
SplineSet
547 312 m 2x2c
 547 112 510 -10 354 -10 c 0
 299 -10 254 11 208 35 c 1
 258 87 l 1
 304 55 334 40 369 40 c 0
 462 40 462 158 462 290 c 2
 462 448 l 2
 462 588 392 620 322 620 c 0xac
 250 620 190 583 157 554 c 1
 157 0 l 1
 72 0 l 1
 72 660 l 1
 157 660 l 1x5c
 157 626 l 1
 188 642 234 670 307 670 c 0
 447 670 547 602 547 460 c 2
 547 312 l 2x2c
EndSplineSet
Validated: 3073
Substitution2: "'locl' Localized Forms for Sami-1" Engsami
EndChar

StartChar: eng
Encoding: 331 331 309
Width: 531
VWidth: 0
Flags: W
HStem: -170 50<258.748 366.728> 0 21G<72 152> 400 50<188.149 340.498> 420 20G<72 152>
VStem: 72 80<0 369.252 425 440> 383 80<-105.645 350.248>
AnchorPoint: "top" 268 490 basechar 0
LayerCount: 2
Fore
SplineSet
463 240 m 2xec
 463 -33 l 2
 463 -132 384 -170 314 -170 c 0
 276 -170 239 -156 213 -125 c 1
 276 -95 l 1
 290 -115 310 -120 329 -120 c 0
 369 -120 383 -82 383 0 c 2
 383 228 l 2
 383 368 339 400 269 400 c 0xec
 224 400 185 382 152 353 c 1
 152 0 l 1
 72 0 l 1
 72 440 l 1
 152 440 l 1xdc
 152 425 l 1
 183 441 217 450 254 450 c 0
 394 450 463 382 463 240 c 2xec
EndSplineSet
Validated: 3073
EndChar

StartChar: asciicircum
Encoding: 94 94 310
Width: 418
VWidth: 0
Flags: W
HStem: 94 306
LayerCount: 2
Fore
SplineSet
208 400 m 1
 402 122 l 1
 362 94 l 1
 208 312 l 1
 56 94 l 1
 16 122 l 1
 208 400 l 1
EndSplineSet
Validated: 1
EndChar

StartChar: asciitilde
Encoding: 126 126 312
Width: 406
VWidth: 0
Flags: W
HStem: 205 57<193.746 320.711> 237 57<85.2887 212.254>
VStem: 40 41<205 227.525> 325 41<271.475 294>
LayerCount: 2
Fore
SplineSet
325 294 m 1x70
 366 294 l 1x70
 360 244 316 205 258 205 c 0xb0
 224 205 165 237 143 237 c 0x70
 113 237 84 227 81 205 c 1
 40 205 l 1xb0
 46 255 90 294 148 294 c 0x70
 182 294 241 262 263 262 c 0xb0
 293 262 322 272 325 294 c 1x70
EndSplineSet
Validated: 1
EndChar

StartChar: exclamdown
Encoding: 161 161 313
Width: 174
VWidth: 0
Flags: W
HStem: 504 80<45 125>
VStem: 45 80<-116 126.667 504 584> 60 50<161.333 404>
LayerCount: 2
Fore
SplineSet
125 504 m 1xc0
 45 504 l 1
 45 584 l 1
 125 584 l 1
 125 504 l 1xc0
45 -116 m 25
 60 404 l 25
 110 404 l 25xa0
 125 -116 l 25
 45 -116 l 25
EndSplineSet
Validated: 1
EndChar

StartChar: questiondown
Encoding: 191 191 314
Width: 431
VWidth: 0
Flags: W
HStem: -116 50<167.709 310.417> -26 20G<329.5 393.174> 269 105<211 261> 474 80<196 276>
VStem: 20 80<8.66858 204.391> 196 80<474 554> 211 50<325 374>
LayerCount: 2
Fore
SplineSet
276 474 m 1xfc
 196 474 l 1
 196 554 l 1
 276 554 l 1
 276 474 l 1xfc
203 318 m 1
 211 374 l 1
 261 374 l 1xfa
 276 269 l 1
 241 269 l 2
 166 269 100 224 100 114 c 0
 100 4 151 -66 246 -66 c 0
 297 -66 318 -43 341 -6 c 1
 401 -29 l 1
 361 -80 313 -116 231 -116 c 0
 101 -116 20 -26 20 114 c 0
 20 243 110 309 203 318 c 1
EndSplineSet
Validated: 1
EndChar

StartChar: cent
Encoding: 162 162 315
Width: 461
VWidth: 0
Flags: W
HStem: 10 50<217.563 257 293 330.825> 380 50<217 257>
VStem: 50 80<117.489 324.551> 181 36<-50 12 84 359 429 490> 257 36<-50 10 62 368 429 490>
LayerCount: 2
Fore
SplineSet
181 422 m 1
 181 490 l 1
 217 490 l 1
 217 429 l 1
 223 430 230 430 236 430 c 0
 243 430 250 430 257 429 c 1
 257 490 l 1
 293 490 l 1
 293 422 l 1
 347 405 378 362 402 310 c 1
 337 277 l 1
 326 318 316 351 293 368 c 1
 293 62 l 1
 327 68 342 89 361 120 c 1
 421 97 l 1
 387 54 352 22 293 13 c 1
 293 -50 l 1
 257 -50 l 1
 257 10 l 2
 256 10 l 0
 242 10 229 11 217 12 c 1
 217 -50 l 1
 181 -50 l 1
 181 19 l 1
 97 43 50 110 50 220 c 0
 50 333 106 401 181 422 c 1
181 84 m 1
 181 359 l 1
 148 335 130 290 130 220 c 0
 130 154 147 109 181 84 c 1
217 67 m 1
 229 63 242 61 257 60 c 1
 257 380 l 1
 255 380 253 380 251 380 c 0
 239 380 228 379 217 376 c 1
 217 67 l 1
EndSplineSet
Validated: 1
EndChar

StartChar: brokenbar
Encoding: 166 166 316
Width: 149
VWidth: 0
Flags: W
HStem: 0 21G<45 100> 680 20G<45 100>
VStem: 45 55<0 320 380 700>
LayerCount: 2
Fore
SplineSet
100 700 m 25
 100 380 l 25
 45 380 l 25
 45 700 l 25
 100 700 l 25
100 320 m 25
 100 0 l 25
 45 0 l 25
 45 320 l 25
 100 320 l 25
EndSplineSet
Validated: 1
EndChar

StartChar: OE
Encoding: 338 338 317
Width: 955
VWidth: 0
Flags: W
HStem: -10 50<279.248 431.305> 0 50<579 914> 390 50<579 808> 650 50<579 898> 660 50<269.011 427.837>
VStem: 50 85<215.477 494.263> 494 85<92.4592 390 440 608.475>
AnchorPoint: "top" 470 700 basechar 0
AnchorPoint: "bottom" 470 0 basechar 0
LayerCount: 2
Fore
SplineSet
914 0 m 1x76
 494 0 l 1x76
 494 26 l 1
 449 2 397 -10 344 -10 c 0
 211 -10 50 100 50 350 c 0
 50 600 201 710 335 710 c 0xae
 391 710 446 697 494 670 c 1
 494 700 l 1
 898 700 l 1
 898 650 l 1
 579 650 l 1
 579 440 l 1
 808 440 l 1
 808 390 l 1
 579 390 l 1
 579 50 l 1
 914 50 l 1
 914 0 l 1x76
494 114 m 1
 494 587 l 1
 450 637 394 660 341 660 c 0
 251 660 135 560 135 350 c 0
 135 130 270 40 350 40 c 0xae
 398 40 452 64 494 114 c 1
EndSplineSet
Validated: 3073
EndChar

StartChar: oe
Encoding: 339 339 318
Width: 853
VWidth: 0
Flags: W
HStem: -10 50<187.536 328.076 554.114 708.979> 220 50<480 727> 400 50<197.283 328.213 547.146 673.951>
VStem: 44 80<112.911 316.52> 394 81<123.737 220>
AnchorPoint: "top" 440 490 basechar 0
AnchorPoint: "bottom" 437 0 basechar 0
LayerCount: 2
Fore
SplineSet
394 220 m 0
 394 326 340 400 265 400 c 0
 190 400 124 330 124 220 c 0
 124 110 170 40 265 40 c 0
 340 40 394 114 394 220 c 0
438 360 m 1
 478 417 540 450 601 450 c 0
 740 450 811 330 811 220 c 1
 475 220 l 1
 475 110 541 40 636 40 c 0
 687 40 723 63 746 100 c 1
 806 77 l 1
 766 26 703 -10 621 -10 c 0
 543 -10 477 23 437 79 c 1
 398 19 331 -10 250 -10 c 0
 120 -10 44 80 44 220 c 0
 44 360 150 450 250 450 c 0
 331 450 399 420 438 360 c 1
480 270 m 1
 727 270 l 1
 716 344 679 400 616 400 c 0
 553 400 497 351 480 270 c 1
EndSplineSet
Validated: 3073
EndChar

StartChar: Euro
Encoding: 8364 8364 319
Width: 588
VWidth: 0
Flags: W
HStem: -10 50<288.826 431.82> 250 50<50 86 173 356> 400 50<50 86 172 356> 650 50<269.492 429.176>
VStem: 84 80<300 400>
LayerCount: 2
Fore
SplineSet
548 102 m 1
 508 38 433 -10 346 -10 c 0
 257 -10 129 70 93 250 c 1
 35 250 l 1
 50 300 l 1
 86 300 l 1
 85 316 84 333 84 350 c 0
 84 367 85 384 86 400 c 1
 35 400 l 1
 50 450 l 1
 93 450 l 1
 125 627 241 700 330 700 c 0
 439 700 509 665 546 608 c 1
 482 575 l 1
 455 622 410 650 342 650 c 0
 266 650 194 589 172 450 c 1
 356 450 l 1
 356 400 l 1
 166 400 l 1
 165 384 164 367 164 350 c 0
 164 333 165 316 166 300 c 1
 356 300 l 1
 356 250 l 1
 173 250 l 1
 202 102 295 40 358 40 c 0
 419 40 459 72 489 129 c 1
 548 102 l 1
EndSplineSet
Validated: 1
EndChar

StartChar: yen
Encoding: 165 165 320
Width: 525
VWidth: 0
Flags: W
HStem: 0 21G<220 305> 126 50<128 220 305 393> 234 50<128 220 305 393> 680 20G<40 140.192 385.808 486>
VStem: 220 85<0 126 176 234 284 346>
LayerCount: 2
Fore
SplineSet
263 439 m 1
 396 700 l 1
 486 700 l 1
 305 346 l 1
 305 284 l 1
 393 284 l 1
 393 234 l 1
 305 234 l 1
 305 176 l 1
 393 176 l 1
 393 126 l 1
 305 126 l 1
 305 0 l 1
 220 0 l 1
 220 126 l 1
 128 126 l 1
 128 176 l 1
 220 176 l 1
 220 234 l 1
 128 234 l 1
 128 284 l 1
 220 284 l 1
 220 347 l 1
 40 700 l 1
 130 700 l 1
 263 439 l 1
EndSplineSet
Validated: 1
EndChar

StartChar: sterling
Encoding: 163 163 321
Width: 441
VWidth: 0
Flags: W
HStem: 0 50<25 45.9685 112 401> 390 50<40 50 125 250> 620 50<146.684 288.709>
VStem: 50 75<50.2973 390 440 598.372>
LayerCount: 2
Fore
SplineSet
112 50 m 1
 401 50 l 1
 401 0 l 1
 25 0 l 1
 25 50 l 1
 44 50 50 72 50 116 c 2
 50 390 l 1
 25 390 l 1
 40 440 l 1
 50 440 l 1
 51 625 63 670 235 670 c 0
 290 670 332 649 378 625 c 1
 328 573 l 1
 282 605 255 620 220 620 c 0
 128 620 125 594 125 440 c 1
 250 440 l 1
 250 390 l 1
 125 390 l 1
 125 116 l 2
 125 84 121 56 112 50 c 1
EndSplineSet
Validated: 1
EndChar

StartChar: section
Encoding: 167 167 322
Width: 395
VWidth: 0
Flags: W
HStem: -9 50<120.141 232.983> 619 50<157.017 269.859>
VStem: 62 74<289.205 410.93 481.432 598.699> 252 74<59.2405 180.515 249.07 372.723>
LayerCount: 2
Fore
SplineSet
185 41 m 0
 239 41 252 90 252 128 c 0
 252 174 216 199 173 213 c 0
 101 238 62 294 62 355 c 0
 62 384 70 421 99 452 c 1
 76 477 64 505 64 536 c 0
 64 589 99 669 207 669 c 0
 255 669 311 651 346 554 c 1
 301 544 l 1
 289 577 273 619 205 619 c 0
 151 619 138 570 138 532 c 0
 138 486 174 461 217 447 c 0
 289 422 328 366 328 305 c 0
 328 276 320 239 291 208 c 1
 314 183 326 155 326 124 c 0
 326 71 291 -9 183 -9 c 0
 135 -9 79 9 44 106 c 1
 89 116 l 1
 101 83 117 41 185 41 c 0
150 412 m 1
 140 396 136 375 136 351 c 0
 136 271 184 279 240 248 c 1
 250 264 254 285 254 309 c 0
 254 389 206 381 150 412 c 1
EndSplineSet
Validated: 1
EndChar

StartChar: copyright
Encoding: 169 169 323
Width: 538
VWidth: 0
Flags: W
HStem: -10 40<207.114 324.886> 94 30<230.77 322.097> 358 30<223.618 319.615> 462 40<207.114 324.886>
VStem: 58 56<138.068 353.932> 139 44<165.668 325.364> 418 56<138.068 353.932>
LayerCount: 2
Fore
SplineSet
114 246 m 0
 114 121 190 30 266 30 c 0
 342 30 418 121 418 246 c 0
 418 371 342 462 266 462 c 0
 190 462 114 371 114 246 c 0
58 246 m 0
 58 402 172 502 266 502 c 0
 360 502 474 402 474 246 c 0
 474 90 360 -10 266 -10 c 0
 172 -10 58 90 58 246 c 0
376 146 m 1
 364 130 333 94 269 94 c 0
 214 94 139 140 139 243 c 0
 139 346 206 388 261 388 c 0
 324 388 353 372 375 344 c 1
 335 327 l 1
 324 343 308 358 267 358 c 0
 224 358 183 324 183 243 c 0
 183 157 240 124 275 124 c 0
 317 124 334 148 343 161 c 1
 376 146 l 1
EndSplineSet
Validated: 1
EndChar

StartChar: registered
Encoding: 174 174 324
Width: 538
VWidth: 0
Flags: W
HStem: -10 40<207.114 324.886> 229 30<222 272.393> 361 30<222 301.252> 462 40<207.114 324.886>
VStem: 58 56<138.068 353.932> 178 44<101 229 259 361> 313 44<264.812 355.156> 320 43<101 173.574> 418 56<138.068 353.932>
LayerCount: 2
Fore
SplineSet
114 246 m 0xfc80
 114 121 190 30 266 30 c 0
 342 30 418 121 418 246 c 0
 418 371 342 462 266 462 c 0
 190 462 114 371 114 246 c 0xfc80
58 246 m 0
 58 402 172 502 266 502 c 0
 360 502 474 402 474 246 c 0
 474 90 360 -10 266 -10 c 0
 172 -10 58 90 58 246 c 0
222 229 m 1
 222 101 l 1
 178 101 l 1
 178 391 l 1
 265 391 l 2
 334 391 357 342 357 310 c 0xfe80
 357 284 342 251 307 237 c 1
 321 221 363 155 363 101 c 1
 320 101 l 1xfd80
 320 152 279 213 259 229 c 1
 222 229 l 1
222 361 m 1
 222 259 l 1
 271 259 l 2
 301 259 313 287 313 310 c 0
 313 333 301 361 271 361 c 2
 222 361 l 1
EndSplineSet
Validated: 1
EndChar

StartChar: ordfeminine
Encoding: 170 170 325
Width: 303
VWidth: 0
Flags: W
HStem: 170 30<35 268> 252 30<114.835 197.296> 384 30<111.25 196.467> 458 30<99.6778 187.818>
VStem: 52 45<293.26 374.74> 198 45<258 261 284.75 383.125 411 452.462>
LayerCount: 2
Fore
SplineSet
35 200 m 1
 268 200 l 1
 268 170 l 1
 35 170 l 1
 35 200 l 1
55 463 m 1
 79 476 109 488 138 488 c 0
 229 488 243 462 243 361 c 2
 243 258 l 1
 198 258 l 1
 198 261 l 1
 182 255 164 252 146 252 c 0
 92 252 52 275 52 336 c 0
 52 398 105 414 146 414 c 0
 164 414 181 413 197 411 c 1
 195 445 184 458 146 458 c 0
 129 458 111 452 84 433 c 1
 55 463 l 1
198 292 m 1
 198 380 l 1
 184 383 169 384 154 384 c 0
 124 384 97 369 97 336 c 0
 97 303 125 282 154 282 c 0
 169 282 184 286 198 292 c 1
EndSplineSet
Validated: 1
EndChar

StartChar: ordmasculine
Encoding: 186 186 326
Width: 303
VWidth: 0
Flags: W
HStem: 170 30<35 268> 252 30<112.335 190.232> 458 30<117.296 190.232>
VStem: 41 46<300.687 434.718> 217 44<302.714 437.286>
LayerCount: 2
Fore
SplineSet
35 200 m 1
 268 200 l 1
 268 170 l 1
 35 170 l 1
 35 200 l 1
217 370 m 0
 217 422 190 458 155 458 c 0
 119 458 87 424 87 370 c 0
 87 316 109 282 155 282 c 0
 190 282 217 318 217 370 c 0
147 252 m 0
 81 252 41 298 41 370 c 0
 41 441 96 488 147 488 c 0
 214 488 261 448 261 370 c 0
 261 292 214 252 147 252 c 0
EndSplineSet
Validated: 1
EndChar

StartChar: guilsinglright
Encoding: 8250 8250 327
Width: 288
VWidth: 0
Flags: W
VStem: 50 188
LayerCount: 2
Fore
SplineSet
184 220 m 1
 50 380 l 1
 88 399 l 1
 238 220 l 1
 88 42 l 1
 50 61 l 1
 184 220 l 1
EndSplineSet
Validated: 1
EndChar

StartChar: guilsinglleft
Encoding: 8249 8249 328
Width: 288
VWidth: 0
Flags: W
VStem: 50 188
LayerCount: 2
Fore
SplineSet
104 221 m 1
 238 61 l 1
 200 42 l 1
 50 221 l 1
 200 399 l 1
 238 380 l 1
 104 221 l 1
EndSplineSet
Validated: 1
EndChar

StartChar: quoteleft
Encoding: 8216 8216 331
Width: 174
VWidth: 0
Flags: W
HStem: 481 179<79.3527 96>
VStem: 45 72<481 584.639>
LayerCount: 2
Fore
SplineSet
117 481 m 1
 45 481 l 1
 45 611 68 633 83 660 c 1
 120 660 l 1
 101 633 96 611 96 586 c 0
 96 557 117 526 117 481 c 1
EndSplineSet
Validated: 1
EndChar

StartChar: quoteright
Encoding: 8217 8217 332
Width: 174
VWidth: 0
Flags: W
HStem: 481 179<69 85.6473>
VStem: 48 72<556.361 660>
LayerCount: 2
Fore
SplineSet
48 660 m 1
 120 660 l 1
 120 530 97 508 82 481 c 1
 45 481 l 1
 64 508 69 530 69 555 c 0
 69 584 48 615 48 660 c 1
EndSplineSet
Validated: 1
EndChar

StartChar: bullet
Encoding: 8226 8226 338
Width: 303
VWidth: 0
Flags: W
HStem: 140 236<86.8191 219.091>
VStem: 41 220<182.259 327.278>
LayerCount: 2
Fore
SplineSet
147 140 m 0
 81 140 41 186 41 258 c 0
 41 329 96 376 147 376 c 0
 214 376 261 336 261 258 c 0
 261 180 214 140 147 140 c 0
EndSplineSet
Validated: 1
EndChar

StartChar: endash
Encoding: 8211 8211 339
Width: 392
VWidth: 0
Flags: W
HStem: 170 50<40 352>
VStem: 40 312<170 220>
LayerCount: 2
Fore
SplineSet
40 220 m 1
 352 220 l 1
 352 170 l 1
 40 170 l 1
 40 220 l 1
EndSplineSet
Validated: 1
EndChar

StartChar: emdash
Encoding: 8212 8212 340
Width: 542
VWidth: 0
Flags: W
HStem: 170 50<40 502>
LayerCount: 2
Fore
SplineSet
40 220 m 1
 502 220 l 1
 502 170 l 1
 40 170 l 1
 40 220 l 1
EndSplineSet
Validated: 1
EndChar

StartChar: degree
Encoding: 176 176 342
Width: 282
VWidth: 0
Flags: W
HStem: 493 47<103.55 178.45> 628 47<103.55 178.45>
VStem: 50 47<546.55 621.45> 185 47<546.55 621.45>
LayerCount: 2
Fore
SplineSet
97 584 m 0
 97 560 117 540 141 540 c 0
 165 540 185 560 185 584 c 0
 185 608 165 628 141 628 c 0
 117 628 97 608 97 584 c 0
50 584 m 0
 50 634 91 675 141 675 c 0
 191 675 232 634 232 584 c 0
 232 534 191 493 141 493 c 0
 91 493 50 534 50 584 c 0
EndSplineSet
Validated: 1
EndChar

StartChar: currency
Encoding: 164 164 343
Width: 354
VWidth: 0
Flags: W
HStem: 121 47<134.629 219.371> 274 47<134.629 219.371>
VStem: 77 47<178.629 263.371> 230 47<178.629 263.371>
LayerCount: 2
Fore
SplineSet
124 221 m 0
 124 192 148 168 177 168 c 0
 206 168 230 192 230 221 c 0
 230 250 206 274 177 274 c 0
 148 274 124 250 124 221 c 0
91 170 m 1
 82 185 77 202 77 221 c 0
 77 240 82 257 91 272 c 1
 40 323 l 1
 75 358 l 1
 126 307 l 1
 141 316 158 321 177 321 c 0
 196 321 213 316 228 307 c 1
 279 358 l 1
 314 323 l 1
 263 272 l 1
 272 257 277 240 277 221 c 0
 277 202 272 185 263 170 c 1
 314 119 l 1
 279 84 l 1
 228 135 l 1
 213 126 196 121 177 121 c 0
 158 121 141 126 126 135 c 1
 75 84 l 1
 40 119 l 1
 91 170 l 1
EndSplineSet
Validated: 1
EndChar

StartChar: logicalnot
Encoding: 172 172 349
Width: 340
VWidth: 0
Flags: W
HStem: 170 50<40 260>
VStem: 260 40<95 170>
LayerCount: 2
Fore
SplineSet
40 220 m 1
 300 220 l 1
 300 95 l 1
 260 95 l 1
 260 170 l 1
 40 170 l 1
 40 220 l 1
EndSplineSet
Validated: 1
EndChar

StartChar: plusminus
Encoding: 177 177 350
Width: 418
VWidth: 0
Flags: W
HStem: 26 50<40 378> 221 50<40 184 234 378>
VStem: 184 50<127 221 271 365>
LayerCount: 2
Fore
SplineSet
40 76 m 1
 378 76 l 1
 378 26 l 1
 40 26 l 1
 40 76 l 1
234 221 m 1
 234 127 l 1
 184 127 l 1
 184 221 l 1
 40 221 l 1
 40 271 l 1
 184 271 l 1
 184 365 l 1
 234 365 l 1
 234 271 l 1
 378 271 l 1
 378 221 l 1
 234 221 l 1
EndSplineSet
Validated: 1
EndChar

StartChar: uni00B5
Encoding: 181 181 351
Width: 475
VWidth: 0
Flags: W
HStem: -10 50<179.671 319.146> 0 21G<351 431> 420 20G<40 120 351 431>
VStem: 40 80<-143 18 110.666 440> 351 80<0 24 69.5312 440>
LayerCount: 2
Fore
SplineSet
351 91 m 1xb8
 351 440 l 1
 431 440 l 1
 431 0 l 1
 351 0 l 1x78
 351 24 l 1
 315 2 271 -10 234 -10 c 0
 187 -10 149 -0 120 18 c 1
 120 -143 l 1
 40 -143 l 1
 40 440 l 1
 120 440 l 1
 120 228 l 2
 120 88 179 40 249 40 c 0
 292 40 323 59 351 91 c 1xb8
EndSplineSet
Validated: 1
EndChar

StartChar: divide
Encoding: 247 247 352
Width: 347
VWidth: 0
Flags: W
HStem: 57 73<134 207> 170 50<40 307> 260 73<134 207>
VStem: 134 73<57 130 260 333>
CounterMasks: 1 e0
LayerCount: 2
Fore
SplineSet
134 130 m 1
 207 130 l 1
 207 57 l 1
 134 57 l 1
 134 130 l 1
134 333 m 1
 207 333 l 1
 207 260 l 1
 134 260 l 1
 134 333 l 1
40 220 m 1
 307 220 l 1
 307 170 l 1
 40 170 l 1
 40 220 l 1
EndSplineSet
Validated: 1
EndChar

StartChar: paragraph
Encoding: 182 182 353
Width: 486
VWidth: 0
Flags: W
HStem: 0 21G<253 313 377 437> 320 50<181.477 253> 650 50<180.769 253 313 377>
VStem: 40 85<426.833 594.35> 253 60<0 320 370 650> 377 60<0 650>
LayerCount: 2
Fore
SplineSet
377 650 m 1
 313 650 l 1
 313 0 l 1
 253 0 l 1
 253 320 l 1
 98 322 40 431 40 510 c 0
 40 589 96 700 253 700 c 2
 437 700 l 1
 437 0 l 1
 377 0 l 1
 377 650 l 1
253 370 m 1
 253 650 l 1
 145 650 125 559 125 510 c 0
 125 466 142 370 253 370 c 1
EndSplineSet
Validated: 1
EndChar

StartChar: uni00B9
Encoding: 185 185 354
Width: 157
VWidth: 0
Flags: W
HStem: 626 32<40 68>
VStem: 40 77<629 658> 68 49<368 629>
LayerCount: 2
Fore
SplineSet
117 667 m 1xa0
 117 368 l 1
 68 368 l 1
 68 629 l 1xa0
 40 626 l 1
 40 658 l 1xc0
 117 667 l 1xa0
EndSplineSet
Validated: 1
EndChar

StartChar: uni00B2
Encoding: 178 178 355
Width: 273
VWidth: 0
Flags: W
HStem: 367 32<90 233> 631 32<95.3341 169.179>
VStem: 41 49<399 439.257> 182 49<527.768 623.123>
LayerCount: 2
Fore
SplineSet
40 603 m 1
 54 632 82 663 145 663 c 0
 193 663 231 625 231 573 c 0
 231 484 93 474 90 399 c 1
 233 399 l 1
 233 367 l 1
 41 367 l 1
 41 497 182 494 182 573 c 0
 182 615 158 631 136 631 c 0
 102 631 88 611 80 588 c 1
 40 603 l 1
EndSplineSet
Validated: 1
EndChar

StartChar: uni00B3
Encoding: 179 179 356
Width: 285
VWidth: 0
Flags: W
HStem: 362 33<97.1539 179.763> 505 32<116 173.071> 630 33<102.434 176.417>
VStem: 186 49<546.525 623.96> 196 49<407.537 490.036>
LayerCount: 2
Fore
SplineSet
49 603 m 5xf0
 65 636 90 663 148 663 c 4
 197 663 235 622 235 583 c 4xf0
 235 552 224 537 198 521 c 5
 234 502 245 476 245 448 c 4
 245 394 197 362 148 362 c 4
 121 362 67 368 40 423 c 5
 80 438 l 5
 87 418 104 395 140 395 c 4
 161 395 196 412 196 448 c 4xe8
 196 473 180 505 116 505 c 5
 116 537 l 5
 147 537 186 544 186 583 c 4
 186 617 162 630 140 630 c 4
 108 630 98 612 88 588 c 5
 49 603 l 5xf0
EndSplineSet
Validated: 1
EndChar

StartChar: threequarters
Encoding: 190 190 357
Width: 528
VWidth: 0
Flags: W
HStem: 0 21G<357 406> 64 32<276 357 406 436> 362 33<97.1539 179.763> 505 32<116 173.071> 630 33<102.434 176.417>
VStem: 186 49<546.525 623.96> 196 49<407.537 490.036> 357 49<0 64 96 231>
LayerCount: 2
Fore
SplineSet
49 603 m 1xfd
 65 636 90 663 148 663 c 0
 197 663 235 622 235 583 c 0xfd
 235 552 224 537 198 521 c 1
 234 502 245 476 245 448 c 0
 245 394 197 362 148 362 c 0
 121 362 67 368 40 423 c 1
 80 438 l 1
 87 418 104 395 140 395 c 0
 161 395 196 412 196 448 c 0xfb
 196 473 180 505 116 505 c 1
 116 537 l 1
 147 537 186 544 186 583 c 0
 186 617 162 630 140 630 c 0
 108 630 98 612 88 588 c 1
 49 603 l 1xfd
40 129 m 1
 411 511 l 1
 488 511 l 1
 117 129 l 1
 40 129 l 1
230 85 m 1
 358 296 l 1
 406 296 l 1
 406 96 l 1
 436 96 l 1
 436 64 l 1
 406 64 l 1
 406 0 l 1
 357 0 l 1
 357 64 l 1
 230 64 l 1
 230 85 l 1
357 231 m 1
 276 96 l 1
 357 96 l 1
 357 231 l 1
EndSplineSet
Validated: 1
EndChar

StartChar: onequarter
Encoding: 188 188 358
Width: 528
VWidth: 0
Flags: W
HStem: 0 21G<357 406> 64 32<276 357 406 436> 626 32<127 155>
VStem: 127 77<629 658> 155 49<368 629> 357 49<0 64 96 231>
LayerCount: 2
Fore
SplineSet
204 667 m 1xec
 204 368 l 1
 155 368 l 1
 155 629 l 1xec
 127 626 l 1
 127 658 l 1xf4
 204 667 l 1xec
40 129 m 1
 411 511 l 1
 488 511 l 1
 117 129 l 1
 40 129 l 1
230 85 m 1
 358 296 l 1
 406 296 l 1
 406 96 l 1
 436 96 l 1
 436 64 l 1
 406 64 l 1
 406 0 l 1
 357 0 l 1
 357 64 l 1
 230 64 l 1
 230 85 l 1
357 231 m 1
 276 96 l 1
 357 96 l 1
 357 231 l 1
EndSplineSet
Validated: 1
EndChar

StartChar: onehalf
Encoding: 189 189 359
Width: 530
VWidth: 0
Flags: W
HStem: 0 32<347 490> 264 32<352.334 426.179> 626 32<127 155>
VStem: 127 77<629 658> 155 49<368 629> 298 49<32 72.2566> 439 49<160.768 256.123>
LayerCount: 2
Fore
SplineSet
204 667 m 1xee
 204 368 l 1
 155 368 l 1
 155 629 l 1xee
 127 626 l 1
 127 658 l 1xf6
 204 667 l 1xee
40 129 m 1
 411 511 l 1
 488 511 l 1
 117 129 l 1
 40 129 l 1
297 236 m 1
 311 265 339 296 402 296 c 0
 450 296 488 258 488 206 c 0
 488 117 350 107 347 32 c 1
 490 32 l 1
 490 0 l 1
 298 0 l 1
 298 130 439 127 439 206 c 0
 439 248 415 264 393 264 c 0
 359 264 345 244 337 221 c 1
 297 236 l 1
EndSplineSet
Validated: 1
EndChar

StartChar: afii00208
Encoding: 8213 8213 365
Width: 676
VWidth: 0
Flags: W
HStem: 170 50<40 636>
LayerCount: 2
Fore
SplineSet
40 220 m 1
 636 220 l 1
 636 170 l 1
 40 170 l 1
 40 220 l 1
EndSplineSet
Validated: 1
EndChar

StartChar: longs
Encoding: 383 383 370
Width: 357
VWidth: 0
Flags: W
HStem: 0 21G<68 148> 620 50<173.186 311.709>
VStem: 68 80<0 592.994>
AnchorPoint: "top" 229 700 basechar 0
LayerCount: 2
Fore
SplineSet
68 0 m 1
 68 422 l 18
 68 622 81 670 258 670 c 0
 313 670 355 649 401 625 c 1
 351 573 l 1
 305 605 278 620 243 620 c 0
 149 620 148 576 148 444 c 2
 148 0 l 1
 68 0 l 1
EndSplineSet
Validated: 3073
EndChar

StartChar: uniFB00
Encoding: 64256 64256 372
Width: 554
VWidth: 0
Flags: W
HStem: 0 21G<81 161 362 442> 390 50<30 81 161 362 442 521> 620 50<177.306 262.654 458.306 543.654>
VStem: 81 80<0 390 440 604.615> 362 80<0 390 440 604.615>
LayerCount: 2
Fore
SplineSet
256 605 m 1
 248 615 238 620 221 620 c 0
 181 620 161 597 161 509 c 2
 161 440 l 1
 362 440 l 1
 362 535 l 2
 362 615 407 670 487 670 c 0
 516 670 539 666 558 659 c 1
 537 605 l 1
 529 615 519 620 502 620 c 0
 462 620 442 597 442 509 c 2
 442 440 l 1
 521 440 l 1
 521 390 l 1
 442 390 l 1
 442 0 l 1
 362 0 l 1
 362 390 l 1
 161 390 l 1
 161 0 l 1
 81 0 l 1
 81 390 l 1
 15 390 l 1
 30 440 l 1
 81 440 l 1
 81 535 l 2
 81 615 126 670 206 670 c 0
 235 670 258 666 277 659 c 1
 256 605 l 1
EndSplineSet
Validated: 3073
LCarets2: 1 288 
Ligature2: "'liga' Standard Ligatures in Latin lookup 0-1" f f
EndChar

StartChar: fi
Encoding: 64257 64257 373
Width: 481
VWidth: 0
Flags: W
HStem: 0 21G<81 161 342 422> 390 50<30 81 161 342> 520 80<342 422> 620 50<177.306 262.654>
VStem: 81 80<0 390 440 604.615> 342 80<0 390 520 600>
LayerCount: 2
Fore
SplineSet
256 605 m 1
 248 615 238 620 221 620 c 0
 181 620 161 597 161 509 c 2
 161 440 l 1
 422 440 l 1
 422 0 l 1
 342 0 l 5
 342 390 l 1
 161 390 l 1
 161 0 l 1
 81 0 l 1
 81 390 l 1
 15 390 l 1
 30 440 l 1
 81 440 l 1
 81 535 l 2
 81 615 126 670 206 670 c 0
 235 670 258 666 277 659 c 1
 256 605 l 1
342 600 m 1
 422 600 l 1
 422 520 l 1
 342 520 l 1
 342 600 l 1
EndSplineSet
Validated: 3073
LCarets2: 1 312 
Ligature2: "'liga' Standard Ligatures in Latin lookup 0-1" f i
EndChar

StartChar: fl
Encoding: 64258 64258 374
Width: 481
VWidth: 0
Flags: W
HStem: 0 21G<81 161 318 398> 390 50<30 81 161 240> 620 50<181.922 305.237> 640 20G<318 398>
VStem: 81 80<0 390 440 598.855> 318 80<0 604.665 652 660>
LayerCount: 2
Fore
SplineSet
398 660 m 1xdc
 398 0 l 1
 318 0 l 1
 318 583 l 1
 307 604 276 620 230 620 c 0
 190 620 161 597 161 509 c 2
 161 440 l 1
 240 440 l 1
 240 390 l 1
 161 390 l 1
 161 0 l 1
 81 0 l 1
 81 390 l 1
 15 390 l 1
 30 440 l 1
 81 440 l 1
 81 535 l 2
 81 615 134 670 220 670 c 0xec
 269 670 300 662 318 652 c 1
 318 660 l 1
 398 660 l 1xdc
EndSplineSet
Validated: 3073
LCarets2: 1 294 
Ligature2: "'liga' Standard Ligatures in Latin lookup 0-1" f l
EndChar

StartChar: uniFB03
Encoding: 64259 64259 375
Width: 762
VWidth: 0
Flags: W
HStem: 0 21G<81 161 362 442 623 703> 390 50<30 81 161 362 442 623> 520 80<623 703> 620 50<177.306 262.654 458.306 543.654>
VStem: 81 80<0 390 440 604.615> 362 80<0 390 440 604.615> 623 80<0 390 520 600>
LayerCount: 2
Fore
SplineSet
623 600 m 1
 703 600 l 1
 703 520 l 1
 623 520 l 1
 623 600 l 1
256 605 m 1
 248 615 238 620 221 620 c 0
 181 620 161 597 161 509 c 2
 161 440 l 1
 362 440 l 1
 362 535 l 2
 362 615 407 670 487 670 c 0
 516 670 539 666 558 659 c 1
 537 605 l 1
 529 615 519 620 502 620 c 0
 462 620 442 597 442 509 c 2
 442 440 l 1
 703 440 l 1
 703 0 l 1
 623 0 l 1
 623 390 l 1
 442 390 l 1
 442 0 l 1
 362 0 l 1
 362 390 l 1
 161 390 l 1
 161 0 l 1
 81 0 l 1
 81 390 l 1
 15 390 l 1
 30 440 l 1
 81 440 l 1
 81 535 l 2
 81 615 126 670 206 670 c 0
 235 670 258 666 277 659 c 1
 256 605 l 1
EndSplineSet
Validated: 3073
LCarets2: 2 310 566 
Ligature2: "'liga' Standard Ligatures in Latin lookup 0-1" f f i
EndChar

StartChar: uniFB04
Encoding: 64260 64260 376
Width: 738
VWidth: 0
Flags: W
HStem: 0 21G<81 161 362 442 599 679> 390 50<30 81 161 362 442 521> 620 50<177.306 262.654 462.922 586.237> 640 20G<599 679>
VStem: 81 80<0 390 440 604.615> 362 80<0 390 440 598.855> 599 80<0 604.665 652 660>
LayerCount: 2
Fore
SplineSet
161 390 m 1xee
 161 0 l 1
 81 0 l 1
 81 390 l 1
 15 390 l 1
 30 440 l 1
 81 440 l 1
 81 535 l 2
 81 615 126 670 206 670 c 0
 235 670 258 666 277 659 c 1
 256 605 l 1
 248 615 238 620 221 620 c 0
 181 620 161 597 161 509 c 2
 161 440 l 1
 362 440 l 1
 362 535 l 2
 362 615 415 670 501 670 c 0xee
 550 670 581 662 599 652 c 1
 599 660 l 1
 679 660 l 1xde
 679 0 l 1
 599 0 l 1
 599 583 l 1
 588 604 557 620 511 620 c 0
 471 620 442 597 442 509 c 2
 442 440 l 1
 521 440 l 1
 521 390 l 1
 442 390 l 1
 442 0 l 1
 362 0 l 1
 362 390 l 1
 161 390 l 1xee
EndSplineSet
Validated: 3073
LCarets2: 2 306 544 
Ligature2: "'liga' Standard Ligatures in Latin lookup 0-1" f f l
EndChar

StartChar: afii10028
Encoding: 1050 1050 400
Width: 605
VWidth: 0
Flags: W
HStem: 0 58<532.64 582> 680 20G<85 170 472.222 590>
VStem: 85 85<0 229 340 700>
AnchorPoint: "top" 296 700 basechar 0
LayerCount: 2
Fore
SplineSet
582 58 m 1
 582 0 l 1
 354 0 357 313 272 344 c 1
 170 229 l 1
 170 0 l 1
 85 0 l 1
 85 700 l 1
 170 700 l 1
 170 340 l 1
 490 700 l 1
 590 700 l 1
 316 393 l 1
 455 333 448 58 582 58 c 1
EndSplineSet
Validated: 3073
EndChar

StartChar: afii10051
Encoding: 1026 1026 412
Width: 734
VWidth: 0
Flags: W
HStem: -170 50<395.634 556.99> 0 21G<270 355> 400 50<391.149 543.498> 650 50<20 270 355 605>
VStem: 270 85<0 369.252 425 650> 586 80<-88.3594 350.248>
AnchorPoint: "top" 314 700 basechar 0
LayerCount: 2
Fore
SplineSet
20 700 m 1
 607 700 l 1
 605 650 l 1
 355 650 l 1
 355 425 l 5
 386 441 420 450 457 450 c 4
 597 450 666 382 666 240 c 6
 666 78 l 6
 666 -122 638 -170 461 -170 c 4
 406 -170 349 -149 303 -125 c 5
 353 -73 l 5
 399 -105 441 -120 476 -120 c 4
 581 -120 586 -76 586 56 c 6
 586 228 l 6
 586 368 542 400 472 400 c 4
 427 400 388 382 355 353 c 5
 355 0 l 1
 270 0 l 1
 270 650 l 1
 20 650 l 1
 20 700 l 1
EndSplineSet
Validated: 3073
EndChar

StartChar: afii10053
Encoding: 1028 1028 414
Width: 650
VWidth: 0
Flags: W
HStem: -10 50<292.862 475.714> 348 50<137 458> 660 50<272.497 455.532>
VStem: 50 85<223.943 348 398 494.279>
AnchorPoint: "top" 350 700 basechar 0
LayerCount: 2
Fore
SplineSet
610 102 m 1
 560 38 471 -10 362 -10 c 0
 232 -10 50 100 50 350 c 0
 50 600 212 710 343 710 c 0
 479 710 561 665 607 608 c 1
 532 575 l 1
 499 622 442 660 358 660 c 0
 251 660 152 575 137 398 c 1
 458 398 l 1
 458 348 l 1
 135 348 l 1
 136 129 282 40 377 40 c 0
 454 40 514 72 551 129 c 1
 610 102 l 1
EndSplineSet
Validated: 3073
EndChar

StartChar: afii10058
Encoding: 1033 1033 415
Width: 875
VWidth: 0
Flags: W
HStem: -10 50<62.7483 169.454> 0 50<523 701.291> 390 50<523 702.985> 650 50<272 438>
VStem: 187 85<54.355 650> 438 85<50 390 440 650> 765 85<126.983 311.333>
AnchorPoint: "top" 353 700 basechar 0
LayerCount: 2
Fore
SplineSet
850 223 m 0xbe
 850 123 786 0 628 0 c 2
 438 0 l 1x7e
 438 650 l 1
 272 650 l 1
 272 127 l 2
 272 28 188 -10 118 -10 c 0
 80 -10 43 4 17 35 c 1
 80 65 l 1
 94 45 114 40 133 40 c 0
 173 40 187 78 187 160 c 2
 187 700 l 1
 523 700 l 1
 523 440 l 1
 626 440 l 2
 763 440 850 325 850 223 c 0xbe
523 390 m 1
 523 50 l 1
 643 50 l 2
 728 50 765 153 765 223 c 0
 765 293 728 390 643 390 c 2
 523 390 l 1
EndSplineSet
Validated: 3073
EndChar

StartChar: afii10059
Encoding: 1034 1034 416
Width: 889
VWidth: 0
Flags: W
HStem: 0 50<537 715.291> 390 50<170 452 537 716.985> 680 20G<85 170 452 537>
VStem: 85 85<0 390 440 700> 452 85<50 390 440 700> 779 85<126.983 311.333>
AnchorPoint: "top" 315 700 basechar 0
LayerCount: 2
Fore
SplineSet
170 700 m 1
 170 440 l 1
 452 440 l 1
 452 700 l 1
 537 700 l 1
 537 440 l 1
 640 440 l 2
 777 440 864 325 864 223 c 0
 864 123 800 0 642 0 c 2
 452 0 l 1
 452 390 l 1
 170 390 l 1
 170 0 l 1
 85 0 l 1
 85 700 l 1
 170 700 l 1
537 50 m 1
 657 50 l 2
 742 50 779 153 779 223 c 0
 779 293 742 390 657 390 c 2
 537 390 l 1
 537 50 l 1
EndSplineSet
Validated: 3073
EndChar

StartChar: afii10060
Encoding: 1035 1035 417
Width: 734
VWidth: 0
Flags: W
HStem: 0 21G<270 355 586 666> 400 50<391.149 543.498> 650 50<20 270 355 605>
VStem: 270 85<0 369.252 425 650> 586 80<0 350.248>
AnchorPoint: "top" 314 700 basechar 0
LayerCount: 2
Fore
SplineSet
20 700 m 1
 607 700 l 1
 605 650 l 1
 355 650 l 1
 355 425 l 1
 386 441 420 450 457 450 c 0
 597 450 666 382 666 240 c 2
 666 0 l 1
 586 0 l 1
 586 228 l 2
 586 368 542 400 472 400 c 0
 427 400 388 382 355 353 c 1
 355 0 l 1
 270 0 l 1
 270 650 l 1
 20 650 l 1
 20 700 l 1
EndSplineSet
Validated: 3073
EndChar

StartChar: afii10145
Encoding: 1039 1039 421
Width: 690
VWidth: 0
Flags: W
HStem: 0 50<130 237.834 328.166 436> 680 20G<45 130 436 521>
VStem: 45 85<50 700> 259 48<-154 -18.668> 436 85<50 700>
CounterMasks: 1 38
AnchorPoint: "top" 276 700 basechar 0
LayerCount: 2
Fore
SplineSet
45 0 m 1
 45 700 l 1
 130 700 l 1
 130 50 l 1
 436 50 l 1
 436 700 l 1
 521 700 l 1
 521 0 l 1
 339 0 l 1
 339 0 307 -40 307 -154 c 1
 259 -154 l 1
 259 -40 227 0 227 0 c 1
 45 0 l 1
EndSplineSet
Validated: 1051649
EndChar

StartChar: afii10018
Encoding: 1041 1041 422
Width: 545
VWidth: 0
Flags: W
HStem: 0 50<170 358.29> 390 50<170 359.985> 650 50<170 419>
VStem: 85 85<50 390 440 650> 422 85<126.983 311.333>
AnchorPoint: "top" 295 700 basechar 0
LayerCount: 2
Fore
SplineSet
170 390 m 1
 170 50 l 1
 300 50 l 2
 385 50 422 153 422 223 c 0
 422 293 385 390 300 390 c 2
 170 390 l 1
170 440 m 1
 283 440 l 2
 420 440 507 325 507 223 c 0
 507 123 443 0 285 0 c 2
 85 0 l 1
 85 700 l 5
 419 700 l 21
 419 650 l 13
 170 650 l 5
 170 440 l 1
EndSplineSet
Validated: 3073
EndChar

StartChar: afii10020
Encoding: 1043 1043 423
Width: 507
VWidth: 0
Flags: W
HStem: 0 21G<85 170> 650 50<170 489>
VStem: 85 85<0 650>
AnchorPoint: "top" 295 700 basechar 0
LayerCount: 2
Fore
SplineSet
170 0 m 1
 85 0 l 1
 85 700 l 1
 489 700 l 17
 489 650 l 9
 170 650 l 1
 170 0 l 1
EndSplineSet
Validated: 3073
EndChar

StartChar: afii10021
Encoding: 1044 1044 424
Width: 640
VWidth: 0
Flags: W
HStem: -69 119<32 98.7484 500 575> 0 50<176 415> 650 50<215 234 313.652 415 500 521>
VStem: 32 80<-69 0> 234 81<495.967 650> 415 85<50 650> 495 80<-69 0>
AnchorPoint: "top" 365 700 basechar 0
LayerCount: 2
Fore
SplineSet
215 700 m 1xba
 521 700 l 1
 521 650 l 1
 500 650 l 1
 500 50 l 1xbc
 575 50 l 1
 575 -69 l 1
 495 -69 l 1xba
 495 0 l 1
 112 0 l 1x7a
 112 -69 l 1
 32 -69 l 1
 32 50 l 1
 90 50 l 1
 124 124 203 332 234 650 c 1
 215 650 l 1
 215 700 l 1xba
415 650 m 1
 315 650 l 1
 287 364 210 138 176 50 c 1
 415 50 l 1x7c
 415 650 l 1
EndSplineSet
Validated: 3073
EndChar

StartChar: afii10024
Encoding: 1046 1046 425
Width: 762
VWidth: 0
Flags: W
HStem: 0 21G<42 127 352 437 662 747> 650 50<52 92.2905 696.709 737>
VStem: 42 85<0 46.9383> 352 85<0 325 380 700> 662 85<0 46.9383>
CounterMasks: 1 38
AnchorPoint: "top" 396 700 basechar 0
LayerCount: 2
Fore
SplineSet
437 325 m 1
 437 0 l 1
 352 0 l 1
 352 325 l 1
 269 292 127 19 127 0 c 1
 42 0 l 1
 42 33 161 268 286 350 c 1
 165 428 134 650 52 650 c 1
 52 700 l 1
 235 700 271 427 352 380 c 1
 352 700 l 1
 437 700 l 1
 437 380 l 1
 518 427 554 700 737 700 c 1
 737 650 l 1
 655 650 624 428 503 350 c 1
 628 268 747 33 747 0 c 1
 662 0 l 1
 662 19 520 292 437 325 c 1
EndSplineSet
Validated: 3073
EndChar

StartChar: afii10025
Encoding: 1047 1047 426
Width: 526
VWidth: 0
Flags: W
HStem: -10 50<162.236 322.412> 390 50<182 312.801> 660 50<168.408 329.964>
VStem: 367 85<488.063 622.86> 397 85<128.505 303.601>
AnchorPoint: "top" 260 700 basechar 0
LayerCount: 2
Fore
SplineSet
114 139 m 1xe8
 129 69 170 40 256 40 c 0
 354 40 397 155 397 215 c 0xe8
 397 275 357 390 247 390 c 2
 182 390 l 1
 182 440 l 1
 217 440 l 2
 327 440 367 495 367 555 c 0
 367 615 329 660 266 660 c 0
 192 660 145 642 137 585 c 1
 63 605 l 1
 101 676 182 710 251 710 c 0
 383 710 452 635 452 555 c 0xf0
 452 502 427 446 354 415 c 1
 451 370 482 275 482 215 c 0
 482 135 417 -10 241 -10 c 0
 133 -10 68 46 40 119 c 1
 114 139 l 1xe8
EndSplineSet
Validated: 3073
EndChar

StartChar: afii10026
Encoding: 1048 1048 427
Width: 687
VWidth: 0
Flags: W
HStem: 0 21G<85 170 519 604> 680 20G<85 170 519 604>
VStem: 85 85<0 30 151 700> 519 85<0 548 670 700>
AnchorPoint: "top" 339 700 basechar 0
LayerCount: 2
Fore
SplineSet
519 700 m 1
 604 700 l 1
 604 0 l 1
 519 0 l 1
 519 548 l 1
 170 30 l 1
 170 0 l 1
 85 0 l 1
 85 700 l 1
 170 700 l 1
 170 151 l 1
 519 670 l 1
 519 700 l 1
EndSplineSet
Validated: 3073
EndChar

StartChar: afii10029
Encoding: 1051 1051 429
Width: 625
VWidth: 0
Flags: W
HStem: -10 50<62.7483 169.454> 0 21G<458 543> 650 50<272 458>
VStem: 187 85<54.355 650> 458 85<0 650>
AnchorPoint: "top" 363 700 basechar 0
LayerCount: 2
Fore
SplineSet
458 0 m 1x78
 458 650 l 1
 272 650 l 1
 272 127 l 2
 272 28 188 -10 118 -10 c 0
 80 -10 43 4 17 35 c 1
 80 65 l 1
 94 45 114 40 133 40 c 0xb8
 173 40 187 78 187 160 c 2
 187 700 l 1
 543 700 l 1
 543 0 l 1
 458 0 l 1x78
EndSplineSet
Validated: 3073
EndChar

StartChar: afii10033
Encoding: 1055 1055 430
Width: 644
VWidth: 0
Flags: W
HStem: 0 21G<85 170 476 561> 650 50<170 476>
VStem: 85 85<0 650> 476 85<0 650>
AnchorPoint: "top" 321 700 basechar 0
LayerCount: 2
Fore
SplineSet
85 0 m 9
 85 700 l 1
 561 700 l 1
 561 0 l 1
 476 0 l 1
 476 650 l 1
 170 650 l 1
 170 0 l 17
 85 0 l 9
EndSplineSet
Validated: 3073
EndChar

StartChar: afii10037
Encoding: 1059 1059 431
Width: 528
VWidth: 0
Flags: W
HStem: -10 50<135.101 196.46> 680 20G<40 120.273 426.682 519>
AnchorPoint: "top" 279 700 basechar 0
LayerCount: 2
Fore
SplineSet
153 -10 m 0
 114 -10 85 18 50 56 c 1
 114 88 l 1
 147 42 157 40 168 40 c 0
 195 40 207 78 229 138 c 2
 237 160 l 1
 40 700 l 1
 113 700 l 1
 273 260 l 1
 434 700 l 1
 519 700 l 1
 313 136 l 2
 277 37 235 -10 153 -10 c 0
EndSplineSet
Validated: 3073
EndChar

StartChar: afii10038
Encoding: 1060 1060 432
Width: 701
VWidth: 0
Flags: W
HStem: 0 21G<309 394> 92 52<250.293 309 394 452.167> 558 51<243.768 309 394 445.037> 680 20G<309 394>
VStem: 50 85<255.55 446.795> 309 85<0 94.7743 144 555 606.755 700> 568 85<256.686 441.676>
CounterMasks: 1 0e
AnchorPoint: "top" 353 700 basechar 0
LayerCount: 2
Fore
SplineSet
309 144 m 1
 309 558 l 1
 211 544 135 467 135 350 c 0
 135 236 215 161 309 144 c 1
309 609 m 1
 309 700 l 1
 394 700 l 1
 394 606 l 1
 533 585 653 490 653 350 c 0
 653 207 536 111 394 93 c 1
 394 0 l 1
 309 0 l 1
 309 92 l 1
 184 108 50 204 50 350 c 0
 50 500 182 597 309 609 c 1
394 555 m 1
 394 144 l 1
 487 162 568 237 568 350 c 0
 568 461 492 535 394 555 c 1
EndSplineSet
Validated: 3073
EndChar

StartChar: afii10040
Encoding: 1062 1062 433
Width: 690
VWidth: 0
Flags: W
HStem: 0 50<170 476> 680 20G<85 170 476 561>
VStem: 85 85<50 700> 476 85<50 700> 577 48<-154 -18.668>
AnchorPoint: "top" 316 700 basechar 0
LayerCount: 2
Fore
SplineSet
561 50 m 5
 625 50 l 5
 625 -154 l 5
 577 -154 l 5
 577 -40 545 0 545 0 c 5
 85 0 l 1
 85 700 l 1
 170 700 l 1
 170 50 l 1
 476 50 l 1
 476 700 l 1
 561 700 l 1
 561 50 l 5
EndSplineSet
Validated: 1051649
EndChar

StartChar: afii10041
Encoding: 1063 1063 434
Width: 569
VWidth: 0
Flags: W
HStem: 0 21G<401 486> 255 50<207.524 364.471> 680 20G<60 145 401 486>
VStem: 60 85<386.259 700> 401 85<0 280 335.748 700>
AnchorPoint: "top" 276 700 basechar 0
LayerCount: 2
Fore
SplineSet
401 352 m 1
 401 700 l 1
 486 700 l 1
 486 0 l 1
 401 0 l 1
 401 280 l 1
 370 264 306 255 269 255 c 0
 129 255 60 336 60 530 c 2
 60 700 l 1
 145 700 l 1
 145 542 l 2
 145 328 214 305 284 305 c 0
 329 305 368 323 401 352 c 1
EndSplineSet
Validated: 3073
EndChar

StartChar: afii10042
Encoding: 1064 1064 435
Width: 809
VWidth: 0
Flags: W
HStem: 0 50<170 363 448 641> 680 20G<85 170 363 448 641 726>
VStem: 85 85<50 700> 363 85<50 700> 641 85<50 700>
CounterMasks: 1 38
AnchorPoint: "top" 407 700 basechar 0
LayerCount: 2
Fore
SplineSet
726 700 m 1
 726 0 l 1
 85 0 l 1
 85 700 l 1
 170 700 l 1
 170 50 l 1
 363 50 l 1
 363 700 l 1
 448 700 l 1
 448 50 l 1
 641 50 l 1
 641 700 l 1
 726 700 l 1
EndSplineSet
Validated: 3073
EndChar

StartChar: afii10043
Encoding: 1065 1065 436
Width: 855
VWidth: 0
Flags: W
HStem: 0 50<170 363 448 641> 680 20G<85 170 363 448 641 726>
VStem: 85 85<50 700> 363 85<50 700> 641 85<50 700> 742 48<-154 -18.668>
AnchorPoint: "top" 407 700 basechar 0
LayerCount: 2
Fore
SplineSet
710 0 m 5
 85 0 l 1
 85 700 l 1
 170 700 l 1
 170 50 l 1
 363 50 l 1
 363 700 l 1
 448 700 l 1
 448 50 l 1
 641 50 l 1
 641 700 l 1
 726 700 l 1
 726 50 l 5
 790 50 l 5
 790 -154 l 5
 742 -154 l 5
 742 -40 710 0 710 0 c 5
EndSplineSet
Validated: 1051649
EndChar

StartChar: afii10044
Encoding: 1066 1066 437
Width: 621
VWidth: 0
Flags: W
HStem: 0 50<259 447.29> 390 50<259 448.985> 650 50<20 174>
VStem: 174 85<50 390 440 650> 511 85<126.983 311.333>
AnchorPoint: "top" 217 700 basechar 0
LayerCount: 2
Fore
SplineSet
596 223 m 0
 596 123 532 0 374 0 c 2
 174 0 l 1
 174 650 l 1
 20 650 l 1
 20 700 l 1
 259 700 l 1
 259 440 l 1
 372 440 l 2
 509 440 596 325 596 223 c 0
259 390 m 1
 259 50 l 1
 389 50 l 2
 474 50 511 153 511 223 c 0
 511 293 474 390 389 390 c 2
 259 390 l 1
EndSplineSet
Validated: 3073
EndChar

StartChar: afii10046
Encoding: 1068 1068 439
Width: 532
VWidth: 0
Flags: W
HStem: 0 50<170 358.29> 390 50<170 359.985> 680 20G<85 170>
VStem: 85 85<50 390 440 700> 422 85<126.983 311.333>
AnchorPoint: "top" 247 700 basechar 0
LayerCount: 2
Fore
SplineSet
170 390 m 5
 170 50 l 5
 300 50 l 6
 385 50 422 153 422 223 c 4
 422 293 385 390 300 390 c 6
 170 390 l 5
507 223 m 4
 507 123 443 0 285 0 c 6
 85 0 l 5
 85 700 l 5
 170 700 l 5
 170 440 l 5
 283 440 l 6
 420 440 507 325 507 223 c 4
EndSplineSet
Validated: 3073
EndChar

StartChar: afii10047
Encoding: 1069 1069 440
Width: 658
VWidth: 0
Flags: W
HStem: -10 50<177.924 377.073> 348 50<278 523> 660 50<203.367 400.169>
VStem: 525 85<214.911 348 398 501.022>
AnchorPoint: "top" 310 700 basechar 0
LayerCount: 2
Fore
SplineSet
50 102 m 1
 109 129 l 1
 146 72 184 40 298 40 c 0
 393 40 524 129 525 348 c 1
 278 348 l 1
 278 398 l 1
 523 398 l 1
 510 575 424 660 317 660 c 0
 212 660 161 622 128 575 c 1
 53 608 l 1
 99 665 166 710 302 710 c 0
 468 710 610 600 610 350 c 0
 610 100 452 -10 283 -10 c 0
 174 -10 100 38 50 102 c 1
EndSplineSet
Validated: 3073
EndChar

StartChar: afii10048
Encoding: 1070 1070 441
Width: 841
VWidth: 0
Flags: W
HStem: -10 50<441.677 585.638> 0 21G<85 170> 348 50<170 230> 660 50<430.629 582.605> 680 20G<85 170>
VStem: 85 85<0 348 398 700> 230 85<204.367 348 398 498.862> 708 85<202.207 500.821>
AnchorPoint: "top" 324 700 basechar 0
LayerCount: 2
Fore
SplineSet
501 660 m 0xb7
 411 660 315 560 315 350 c 0
 315 130 430 40 510 40 c 0
 608 40 708 140 708 350 c 0
 708 570 606 660 501 660 c 0xb7
232 398 m 1
 248 614 370 710 495 710 c 0
 658 710 793 600 793 350 c 0
 793 100 668 -10 504 -10 c 0xb7
 371 -10 231 99 230 348 c 1
 170 348 l 1
 170 0 l 1
 85 0 l 1
 85 700 l 1
 170 700 l 1x6f
 170 398 l 1
 232 398 l 1
EndSplineSet
Validated: 3073
EndChar

StartChar: afii10049
Encoding: 1071 1071 442
Width: 600
VWidth: 0
Flags: W
HStem: 0 58<42 78.7593> 320 50<305.415 432> 650 50<232.56 432>
VStem: 95 85<426.387 594.036> 432 85<0 320 370 650>
AnchorPoint: "top" 328 700 basechar 0
LayerCount: 2
Fore
SplineSet
432 650 m 1
 297 650 l 2
 212 650 180 570 180 510 c 0
 180 450 212 370 297 370 c 2
 432 370 l 1
 432 650 l 1
229 332 m 1
 133 363 95 446 95 510 c 0
 95 590 152 700 312 700 c 2
 517 700 l 1
 517 0 l 1
 432 0 l 1
 432 320 l 1
 321 320 l 1
 253 240 208 0 42 0 c 1
 42 58 l 1
 113 58 145 231 229 332 c 1
EndSplineSet
Validated: 3073
EndChar

StartChar: afii10066
Encoding: 1073 1073 443
Width: 503
VWidth: 0
Flags: W
HStem: -10 50<191.674 318.55> 400 50<166.821 318.236> 587 50<199.321 346.015>
VStem: 44 80<127.363 358.991> 370 33<663.292 672.006> 381 80<117.34 324.425>
AnchorPoint: "top" 263 700 basechar 0
LayerCount: 2
Fore
SplineSet
403 669 m 1xf8
 403 669 388 582 312 582 c 0
 282 582 281 587 247 587 c 0
 203 587 160 542 138 423 c 1
 171 440 208 450 244 450 c 0
 402 450 461 345 461 220 c 0xf4
 461 95 374 -10 244 -10 c 0
 174 -10 44 27 44 278 c 0
 44 476 129 637 247 637 c 2
 272 637 l 2
 310 637 358 656 370 682 c 1
 385 677 403 669 403 669 c 1xf8
126 321 m 1
 125 298 124 273 124 246 c 0
 124 96 191 40 259 40 c 0
 344 40 381 135 381 220 c 0
 381 305 344 400 259 400 c 0
 200 400 135 380 126 321 c 1
EndSplineSet
Validated: 3073
EndChar

StartChar: afii10067
Encoding: 1074 1074 444
Width: 460
VWidth: 0
Flags: W
HStem: 0 50<140 313.951> 215 50<140 277.777> 390 50<140 280.969>
VStem: 60 80<50 215 265 390> 298 80<284.691 371.715> 340 80<73.795 180.265>
AnchorPoint: "top" 214 490 basechar 0
LayerCount: 2
Fore
SplineSet
140 215 m 1xf4
 140 50 l 1
 247 50 l 2
 310 50 340 81 340 129 c 0
 340 177 295 215 218 215 c 2
 140 215 l 1xf4
308 248 m 1
 386 235 420 172 420 129 c 0xf4
 420 68 385 0 227 0 c 2
 60 0 l 1
 60 440 l 1
 183 440 l 2
 343 440 378 380 378 325 c 0xf8
 378 292 373 266 308 248 c 1
140 390 m 1
 140 265 l 1
 206 265 l 2
 280 265 298 304 298 325 c 0xf8
 298 352 288 390 203 390 c 2
 140 390 l 1
EndSplineSet
Validated: 3073
EndChar

StartChar: afii10068
Encoding: 1075 1075 445
Width: 375
VWidth: 0
Flags: W
HStem: 0 21G<60 140> 390 50<140 349>
VStem: 60 80<0 390>
AnchorPoint: "top" 206 490 basechar 0
LayerCount: 2
Fore
SplineSet
140 0 m 1
 60 0 l 1
 60 440 l 1
 349 440 l 17
 349 390 l 9
 140 390 l 1
 140 0 l 1
EndSplineSet
Validated: 3073
EndChar

StartChar: afii10069
Encoding: 1076 1076 446
Width: 536
VWidth: 0
Flags: W
HStem: -69 119<40 106.329 421 496> 0 50<184 341> 390 50<162 203 279.79 341 421 439>
VStem: 40 80<-69 0> 203 80<299.123 390> 341 80<50 390> 416 80<-69 0>
AnchorPoint: "top" 302 490 basechar 0
LayerCount: 2
Fore
SplineSet
162 440 m 1xba
 439 440 l 1
 439 390 l 1
 421 390 l 1
 421 50 l 1xbc
 496 50 l 1
 496 -69 l 1
 416 -69 l 1xba
 416 0 l 1
 120 0 l 1x7a
 120 -69 l 1
 40 -69 l 1
 40 50 l 1
 98 50 l 1
 121 101 167 218 203 390 c 1
 162 390 l 1
 162 440 l 1xba
341 390 m 1
 283 390 l 1
 249 230 207 109 184 50 c 1
 341 50 l 1x7c
 341 390 l 1
EndSplineSet
Validated: 3073
EndChar

StartChar: afii10072
Encoding: 1078 1078 447
Width: 628
VWidth: 0
Flags: W
HStem: 0 21G<39 124 274 354 504 589> 390 50<34 87.0855 540.914 594>
VStem: 39 85<0 54.4141> 274 80<0 187.622 239 440> 504 85<0 54.4141>
CounterMasks: 1 38
AnchorPoint: "top" 315 490 basechar 0
LayerCount: 2
Fore
SplineSet
354 185 m 1
 354 0 l 1
 274 0 l 1
 274 185 l 1
 263 186 252 187 242 190 c 1
 187 142 124 38 124 0 c 1
 39 0 l 1
 39 28 103 143 184 221 c 1
 115 280 122 390 34 390 c 1
 34 440 l 1
 216 440 203 270 274 239 c 1
 274 440 l 1
 354 440 l 1
 354 239 l 1
 425 270 412 440 594 440 c 1
 594 390 l 1
 506 390 513 280 444 221 c 1
 525 143 589 28 589 0 c 1
 504 0 l 1
 504 38 441 142 386 190 c 1
 376 187 365 186 354 185 c 1
EndSplineSet
Validated: 3073
EndChar

StartChar: afii10073
Encoding: 1079 1079 448
Width: 438
VWidth: 0
Flags: W
HStem: -10 50<126.432 284.398> 220 50<144 265> 400 50<127.611 274.477>
VStem: 292 80<294.771 382.112> 316 80<70.5807 184.923>
AnchorPoint: "top" 210 490 basechar 0
LayerCount: 2
Fore
SplineSet
89 99 m 1xe8
 105 64 159 40 211 40 c 0
 289 40 316 89 316 125 c 0xe8
 316 190 267 220 179 220 c 2
 144 220 l 1
 144 270 l 1
 172 270 l 2
 260 270 292 303 292 339 c 0
 292 375 261 400 211 400 c 0
 152 400 114 381 108 347 c 1
 49 359 l 1
 65 404 109 450 199 450 c 0
 322 450 372 404 372 339 c 0xf0
 372 311 352 275 305 250 c 1
 370 224 396 176 396 125 c 0
 396 46 340 -10 199 -10 c 0
 113 -10 53 44 30 87 c 1
 89 99 l 1xe8
EndSplineSet
Validated: 3073
EndChar

StartChar: afii10074
Encoding: 1080 1080 449
Width: 515
VWidth: 0
Flags: W
HStem: 0 21G<60 154.479 376 456> 420 20G<60 140 361.654 456>
VStem: 60 80<111 440> 376 80<0 326>
AnchorPoint: "top" 261 490 basechar 0
LayerCount: 2
Fore
SplineSet
60 440 m 1
 140 440 l 1
 140 111 l 1
 376 440 l 1
 456 440 l 1
 456 0 l 1
 376 0 l 1
 376 326 l 1
 140 0 l 1
 60 0 l 1
 60 440 l 1
EndSplineSet
Validated: 3073
EndChar

StartChar: afii10077
Encoding: 1083 1083 451
Width: 578
VWidth: 0
Flags: W
HStem: -10 50<75.7483 183.728> 0 21G<439 519> 390 50<280 439>
VStem: 200 80<54.355 390> 439 80<0 390>
AnchorPoint: "top" 336 490 basechar 0
LayerCount: 2
Fore
SplineSet
439 0 m 1x78
 439 390 l 1
 280 390 l 1
 280 127 l 2
 280 28 201 -10 131 -10 c 0
 93 -10 56 4 30 35 c 1
 93 65 l 1
 107 45 127 40 146 40 c 0xb8
 186 40 200 78 200 160 c 2
 200 440 l 1
 519 440 l 1
 519 0 l 1
 439 0 l 1x78
EndSplineSet
Validated: 3073
EndChar

StartChar: afii10078
Encoding: 1084 1084 452
Width: 575
VWidth: 0
Flags: W
HStem: 0 21G<60 140 436 516> 420 20G<60 150.278 425.722 516>
VStem: 60 80<0 300> 436 80<0 300>
AnchorPoint: "top" 291 490 basechar 0
LayerCount: 2
Fore
SplineSet
436 300 m 1
 288 12 l 1
 140 300 l 1
 140 0 l 1
 60 0 l 1
 60 440 l 1
 140 440 l 1
 288 152 l 1
 436 440 l 1
 516 440 l 1
 516 0 l 1
 436 0 l 1
 436 300 l 1
EndSplineSet
Validated: 3073
EndChar

StartChar: afii10079
Encoding: 1085 1085 453
Width: 515
VWidth: 0
Flags: W
HStem: 0 21G<60 140 376 456> 215 50<140 376> 420 20G<60 140 376 456>
VStem: 60 80<0 215 265 440> 376 80<0 215 265 440>
AnchorPoint: "top" 261 490 basechar 0
LayerCount: 2
Fore
SplineSet
60 440 m 1
 140 440 l 1
 140 265 l 1
 376 265 l 1
 376 440 l 1
 456 440 l 1
 456 0 l 1
 376 0 l 1
 376 215 l 1
 140 215 l 1
 140 0 l 1
 60 0 l 1
 60 440 l 1
EndSplineSet
Validated: 3073
EndChar

StartChar: afii10081
Encoding: 1087 1087 454
Width: 515
VWidth: 0
Flags: W
HStem: 0 21G<60 140 376 456> 390 50<140 376>
VStem: 60 80<0 390> 376 80<0 390>
AnchorPoint: "top" 261 490 basechar 0
LayerCount: 2
Fore
SplineSet
456 440 m 1
 456 0 l 1
 376 0 l 1
 376 390 l 1
 140 390 l 1
 140 0 l 1
 60 0 l 1
 60 440 l 1
 456 440 l 1
EndSplineSet
Validated: 3073
EndChar

StartChar: afii10084
Encoding: 1090 1090 455
Width: 458
VWidth: 0
Flags: W
HStem: 0 21G<191 271> 390 50<26 191 271 436>
VStem: 191 80<0 390>
AnchorPoint: "top" 233 490 basechar 0
LayerCount: 2
Fore
SplineSet
271 390 m 1
 271 0 l 1
 191 0 l 1
 191 390 l 1
 26 390 l 1
 26 440 l 1
 436 440 l 1
 436 390 l 1
 271 390 l 1
EndSplineSet
Validated: 3073
EndChar

StartChar: afii10086
Encoding: 1092 1092 457
Width: 730
VWidth: 0
Flags: W
HStem: -8 50<171.856 286.644 448.044 564.277> 402 50<162.455 276.247 448.294 573.037> 640 20G<326 406>
VStem: 44 80<97.9312 358.951> 326 80<-200 29 89.5645 341.265 423 660> 608 80<107.554 358.531>
CounterMasks: 1 1c
AnchorPoint: "top" 365 700 basechar 0
LayerCount: 2
Fore
SplineSet
326 232 m 0
 326 321 292 402 221 402 c 0
 128 402 124 307 124 222 c 0
 124 137 140 42 231 42 c 0
 316 42 326 140 326 232 c 0
326 -200 m 1
 326 29 l 1
 296 6 262 -8 216 -8 c 0
 92 -8 44 97 44 222 c 0
 44 347 81 452 206 452 c 0
 255 452 293 444 326 423 c 1
 326 660 l 1
 406 660 l 1
 406 423 l 1
 439 444 462 452 511 452 c 0
 636 452 688 376 688 222 c 0
 688 97 625 -8 501 -8 c 0
 455 -8 436 6 406 29 c 1
 406 -200 l 1
 326 -200 l 1
406 232 m 0
 406 140 410 42 516 42 c 0
 586 42 608 137 608 222 c 0
 608 307 596 402 526 402 c 0
 414 402 406 321 406 232 c 0
EndSplineSet
Validated: 3073
EndChar

StartChar: afii10088
Encoding: 1094 1094 458
Width: 544
VWidth: 0
Flags: W
HStem: 0 50<140 356> 420 20G<60 140 356 436>
VStem: 60 80<50 440> 356 80<50 440> 452 48<-154 -18.668>
AnchorPoint: "top" 252 490 basechar 0
LayerCount: 2
Fore
SplineSet
420 0 m 5
 60 0 l 1
 60 440 l 1
 140 440 l 1
 140 50 l 1
 356 50 l 1
 356 440 l 1
 436 440 l 1
 436 50 l 5
 500 50 l 5
 500 -154 l 5
 452 -154 l 5
 452 -40 420 0 420 0 c 5
EndSplineSet
Validated: 1051649
EndChar

StartChar: afii10089
Encoding: 1095 1095 459
Width: 460
VWidth: 0
Flags: W
HStem: 0 21G<321 401> 153 50<162.116 297.952> 420 20G<40 120 321 401>
VStem: 40 80<259.104 440> 321 80<0 178 225.253 440>
AnchorPoint: "top" 223 490 basechar 0
LayerCount: 2
Fore
SplineSet
321 250 m 1
 321 440 l 1
 401 440 l 1
 401 0 l 1
 321 0 l 1
 321 178 l 1
 290 162 251 153 214 153 c 0
 61 153 40 235 40 440 c 1
 120 440 l 1
 120 226 159 203 229 203 c 0
 274 203 302 221 321 250 c 1
EndSplineSet
Validated: 3073
EndChar

StartChar: afii10090
Encoding: 1096 1096 460
Width: 665
VWidth: 0
Flags: W
HStem: 0 50<140 293 373 526> 420 20G<60 140 293 373 526 606>
VStem: 60 80<50 440> 293 80<50 440> 526 80<50 440>
CounterMasks: 1 38
AnchorPoint: "top" 334 490 basechar 0
LayerCount: 2
Fore
SplineSet
606 440 m 1
 606 0 l 1
 60 0 l 1
 60 440 l 1
 140 440 l 1
 140 50 l 1
 293 50 l 1
 293 440 l 1
 373 440 l 1
 373 50 l 1
 526 50 l 1
 526 440 l 1
 606 440 l 1
EndSplineSet
Validated: 3073
EndChar

StartChar: afii10091
Encoding: 1097 1097 461
Width: 714
VWidth: 0
Flags: W
HStem: 0 50<140 293 373 526> 420 20G<60 140 293 373 526 606>
VStem: 60 80<50 440> 293 80<50 440> 526 80<50 440> 622 48<-154 -18.668>
AnchorPoint: "top" 334 490 basechar 0
LayerCount: 2
Fore
SplineSet
590 0 m 5
 60 0 l 1
 60 440 l 1
 140 440 l 1
 140 50 l 1
 293 50 l 1
 293 440 l 1
 373 440 l 1
 373 50 l 1
 526 50 l 1
 526 440 l 1
 606 440 l 1
 606 50 l 5
 670 50 l 5
 670 -154 l 5
 622 -154 l 5
 622 -40 590 0 590 0 c 5
EndSplineSet
Validated: 1051649
EndChar

StartChar: afii10092
Encoding: 1098 1098 462
Width: 551
VWidth: 0
Flags: W
HStem: 0 50<239 412.951> 215 50<239 411.583> 390 50<26 159>
VStem: 159 80<50 215 265 390> 439 80<73.795 188.21>
AnchorPoint: "top" 202 490 basechar 0
LayerCount: 2
Fore
SplineSet
519 129 m 0
 519 68 484 0 326 0 c 2
 159 0 l 1
 159 390 l 1
 26 390 l 1
 26 440 l 1
 239 440 l 1
 239 265 l 1
 324 265 l 2
 462 265 519 226 519 129 c 0
239 215 m 1
 239 50 l 1
 346 50 l 2
 409 50 439 81 439 129 c 0
 439 177 413 215 336 215 c 2
 239 215 l 1
EndSplineSet
Validated: 3073
EndChar

StartChar: afii10094
Encoding: 1100 1100 464
Width: 452
VWidth: 0
Flags: W
HStem: 0 50<140 313.951> 215 50<140 312.583> 420 20G<60 140>
VStem: 60 80<50 215 265 440> 340 80<73.795 188.21>
AnchorPoint: "top" 214 490 basechar 0
LayerCount: 2
Fore
SplineSet
140 215 m 1
 140 50 l 1
 247 50 l 2
 310 50 340 81 340 129 c 0
 340 177 314 215 237 215 c 2
 140 215 l 1
420 129 m 0
 420 68 385 0 227 0 c 2
 60 0 l 1
 60 440 l 1
 140 440 l 1
 140 265 l 1
 225 265 l 2
 363 265 420 226 420 129 c 0
EndSplineSet
Validated: 3073
EndChar

StartChar: afii10095
Encoding: 1101 1101 465
Width: 483
VWidth: 0
Flags: W
HStem: -10 50<125.8 276.939> 210 50<175 358> 400 50<146.99 292.139>
VStem: 361 80<131.891 210 260 318.578>
AnchorPoint: "top" 225 490 basechar 0
LayerCount: 2
Fore
SplineSet
106 313 m 1
 41 346 l 1
 73 414 128 450 220 450 c 0
 358 450 441 360 441 220 c 0
 441 80 364 -10 200 -10 c 0
 118 -10 70 26 30 77 c 1
 90 100 l 1
 113 63 142 40 215 40 c 0
 274 40 356 106 361 210 c 1
 175 210 l 1
 175 260 l 1
 358 260 l 1
 344 347 286 400 235 400 c 0
 155 400 122 373 106 313 c 1
EndSplineSet
Validated: 3073
EndChar

StartChar: afii10096
Encoding: 1102 1102 466
Width: 639
VWidth: 0
Flags: W
HStem: -10 50<336.097 459.9> 0 21G<60 140> 210 50<140 197> 400 50<341.978 459.154> 420 20G<60 140>
VStem: 60 80<0 210 260 440> 197 80<109.174 210 260 320.981> 517 80<109 331>
AnchorPoint: "top" 241 490 basechar 0
LayerCount: 2
Fore
SplineSet
60 440 m 1x6f
 140 440 l 1x6f
 140 260 l 1
 200 260 l 1
 215 377 298 450 388 450 c 0
 513 450 597 374 597 220 c 0
 597 66 518 -10 388 -10 c 0xb7
 261 -10 200 76 197 210 c 1
 140 210 l 1
 140 0 l 1
 60 0 l 1
 60 440 l 1x6f
517 220 m 0
 517 326 471 400 403 400 c 0
 336 400 277 330 277 220 c 0
 277 110 319 40 403 40 c 0xb7
 470 40 517 114 517 220 c 0
EndSplineSet
Validated: 3073
EndChar

StartChar: afii10097
Encoding: 1103 1103 467
Width: 474
VWidth: 0
Flags: W
HStem: 0 50<34 75.8034> 175 50<210.576 335> 390 50<165.375 335>
VStem: 55 80<257.594 360.654> 335 80<0 175 225 390>
AnchorPoint: "top" 261 490 basechar 0
LayerCount: 2
Fore
SplineSet
55 311 m 0
 55 372 117 440 233 440 c 2
 415 440 l 1
 415 0 l 1
 335 0 l 1
 335 175 l 1
 264 175 l 2
 144 175 234 0 34 0 c 1
 34 50 l 1
 105 50 90 137 146 188 c 1
 92 207 55 246 55 311 c 0
335 225 m 1
 335 390 l 1
 243 390 l 2
 180 390 135 359 135 311 c 0
 135 263 176 225 253 225 c 2
 335 225 l 1
EndSplineSet
Validated: 3073
EndChar

StartChar: afii10099
Encoding: 1106 1106 468
Width: 531
VWidth: 0
Flags: W
HStem: -170 50<192.634 353.99> 0 21G<72 152> 400 50<188.149 340.498> 530 50<32 72 152 238> 640 20G<72 152>
VStem: 72 80<0 369.252 425 530 580 660> 383 80<-88.3594 350.248>
LayerCount: 2
Fore
SplineSet
463 78 m 2
 463 -122 435 -170 258 -170 c 0
 203 -170 146 -149 100 -125 c 1
 150 -73 l 1
 196 -105 238 -120 273 -120 c 0
 378 -120 383 -76 383 56 c 2
 383 228 l 2
 383 368 339 400 269 400 c 0
 224 400 185 382 152 353 c 1
 152 0 l 1
 72 0 l 1
 72 530 l 1
 32 530 l 1
 32 580 l 1
 72 580 l 1
 72 660 l 1
 152 660 l 1
 152 580 l 1
 238 580 l 1
 238 530 l 1
 152 530 l 1
 152 425 l 1
 183 441 217 450 254 450 c 0
 394 450 463 382 463 240 c 2
 463 78 l 2
EndSplineSet
Validated: 3073
EndChar

StartChar: afii10101
Encoding: 1108 1108 470
Width: 497
VWidth: 0
Flags: W
HStem: -10 50<205.328 357.979> 210 50<127 321> 400 50<197.469 336.642>
VStem: 44 80<125 210 260 315>
AnchorPoint: "top" 260 490 basechar 0
LayerCount: 2
Fore
SplineSet
377 314 m 1
 361 374 320 400 265 400 c 0
 200 400 141 347 127 260 c 1
 321 260 l 1
 321 210 l 1
 124 210 l 1
 128 106 193 40 285 40 c 0
 336 40 372 63 395 100 c 1
 455 77 l 1
 415 26 352 -10 270 -10 c 0
 140 -10 44 80 44 220 c 0
 44 360 150 450 250 450 c 0
 342 450 410 415 442 347 c 1
 377 314 l 1
EndSplineSet
Validated: 3073
EndChar

StartChar: afii10106
Encoding: 1113 1113 471
Width: 732
VWidth: 0
Flags: W
HStem: -10 50<75.7483 183.728> 0 50<450 593.951> 215 50<450 592.583> 390 50<280 370>
VStem: 200 80<54.355 390> 370 80<50 215 265 390> 620 80<73.795 188.21>
AnchorPoint: "top" 326 490 basechar 0
LayerCount: 2
Fore
SplineSet
700 129 m 4xbe
 700 68 665 0 507 0 c 6
 370 0 l 5x7e
 370 390 l 1
 280 390 l 1
 280 127 l 2
 280 28 201 -10 131 -10 c 0
 93 -10 56 4 30 35 c 1
 93 65 l 1
 107 45 127 40 146 40 c 0
 186 40 200 78 200 160 c 2
 200 440 l 1
 450 440 l 5
 450 265 l 5
 505 265 l 6
 643 265 700 226 700 129 c 4xbe
450 50 m 5
 527 50 l 6
 590 50 620 81 620 129 c 4
 620 177 594 215 517 215 c 6
 450 215 l 5
 450 50 l 5
EndSplineSet
Validated: 3073
EndChar

StartChar: afii10107
Encoding: 1114 1114 472
Width: 698
VWidth: 0
Flags: W
HStem: 0 50<416 559.951> 215 50<140 336 416 558.583> 420 20G<60 140 336 416>
VStem: 60 80<0 215 265 440> 336 80<50 215 265 440> 586 80<73.795 188.21>
AnchorPoint: "top" 241 490 basechar 0
LayerCount: 2
Fore
SplineSet
60 440 m 1
 140 440 l 1
 140 265 l 1
 336 265 l 1
 336 440 l 1
 416 440 l 1
 416 265 l 1
 471 265 l 2
 609 265 666 226 666 129 c 4
 666 68 631 0 473 0 c 6
 336 0 l 1
 336 215 l 1
 140 215 l 1
 140 0 l 1
 60 0 l 1
 60 440 l 1
416 215 m 1
 416 50 l 5
 493 50 l 6
 556 50 586 81 586 129 c 4
 586 177 560 215 483 215 c 2
 416 215 l 1
EndSplineSet
Validated: 3073
EndChar

StartChar: afii10108
Encoding: 1115 1115 473
Width: 531
VWidth: 0
UnlinkRmOvrlpSave: 1
Flags: W
HStem: 0 21G<72 152 383 463> 400 50<188.149 340.498> 530 50<32 72 152 238> 640 20G<72 152>
VStem: 72 80<0 369.252 425 530 580 660> 383 80<0 350.248>
LayerCount: 2
Fore
SplineSet
152 353 m 1
 152 0 l 1
 72 0 l 1
 72 530 l 1
 32 530 l 1
 32 580 l 1
 72 580 l 1
 72 660 l 1
 152 660 l 1
 152 580 l 1
 238 580 l 1
 238 530 l 1
 152 530 l 1
 152 425 l 1
 183 441 217 450 254 450 c 0
 394 450 463 382 463 240 c 2
 463 0 l 1
 383 0 l 1
 383 228 l 2
 383 368 339 400 269 400 c 0
 224 400 185 382 152 353 c 1
EndSplineSet
EndChar

StartChar: afii10193
Encoding: 1119 1119 477
Width: 495
VWidth: 0
Flags: W
HStem: 0 50<140 205.834 296.166 356> 420 20G<60 140 356 436>
VStem: 60 80<50 440> 227 48<-154 -18.668> 356 80<50 440>
AnchorPoint: "top" 252 490 basechar 0
LayerCount: 2
Fore
SplineSet
60 0 m 1
 60 440 l 1
 140 440 l 1
 140 50 l 1
 356 50 l 1
 356 440 l 1
 436 440 l 1
 436 0 l 1
 307 0 l 1
 307 0 275 -40 275 -154 c 1
 227 -154 l 1
 227 -40 195 0 195 0 c 1
 60 0 l 1
EndSplineSet
Validated: 1051649
EndChar

StartChar: afii61352
Encoding: 8470 8470 478
Width: 1019
VWidth: 0
Flags: W
HStem: -10 50<51.2785 157.976> 0 21G<594.495 694> 170 30<741 974> 252 30<818.335 896.232> 458 30<823.296 896.232> 660 50<711.024 817.721> 680 20G<175 273.518>
VStem: 175 85<54.7026 555> 609 85<144 645.297> 747 46<300.687 434.718> 923 44<302.714 437.286>
LayerCount: 2
Fore
SplineSet
741 200 m 1x39e0
 974 200 l 1
 974 170 l 1
 741 170 l 1
 741 200 l 1x39e0
923 370 m 0
 923 422 896 458 861 458 c 0
 825 458 793 424 793 370 c 0
 793 316 815 282 861 282 c 0
 896 282 923 318 923 370 c 0
853 252 m 0
 787 252 747 298 747 370 c 0
 747 441 802 488 853 488 c 0
 920 488 967 448 967 370 c 0
 967 292 920 252 853 252 c 0
694 0 m 1x7de0
 607 0 l 1x7de0
 260 555 l 1
 260 128 l 2
 260 28 181 -10 111 -10 c 0
 73 -10 31 4 5 35 c 1
 68 65 l 1
 82 45 102 40 121 40 c 0
 161 40 175 78 175 160 c 2
 175 700 l 1
 261 700 l 1xbbe0
 609 144 l 1
 609 572 l 2
 609 672 688 710 758 710 c 0
 796 710 838 696 864 665 c 1
 801 635 l 1
 787 655 767 660 748 660 c 0
 708 660 694 622 694 540 c 2
 694 0 l 1x7de0
EndSplineSet
Validated: 3073
EndChar

StartChar: afii10050
Encoding: 1168 1168 479
Width: 507
VWidth: 0
Flags: W
HStem: 0 21G<85 170> 650 134<423 489> 650 50<170 423>
VStem: 85 85<0 650> 423 66<700 784>
AnchorPoint: "top" 295 700 basechar 0
LayerCount: 2
Fore
SplineSet
170 0 m 1xb8
 85 0 l 1
 85 700 l 1
 423 700 l 1xb8
 423 784 l 1
 489 784 l 1
 489 650 l 1xd8
 170 650 l 1
 170 0 l 1xb8
EndSplineSet
Validated: 3073
EndChar

StartChar: afii10098
Encoding: 1169 1169 480
Width: 375
VWidth: 0
Flags: W
HStem: 0 21G<60 140> 390 140<283 349> 390 50<140 283>
VStem: 60 80<0 390> 283 66<440 530>
AnchorPoint: "top" 206 490 basechar 0
LayerCount: 2
Fore
SplineSet
140 0 m 1xb8
 60 0 l 1
 60 440 l 1
 283 440 l 1xb8
 283 530 l 1
 349 530 l 1
 349 390 l 1xd8
 140 390 l 1
 140 0 l 1xb8
EndSplineSet
Validated: 3073
EndChar

StartChar: hookabovecomb
Encoding: 777 777 481
Width: 0
VWidth: 0
Flags: W
HStem: 702 30<-328.371 -266.618>
VStem: -300 25<599 618.514> -265 56<643.493 701.873>
AnchorPoint: "top" -287 580 mark 0
LayerCount: 2
Fore
SplineSet
-275 599 m 9
 -300 599 l 1
 -300 625 -265 648 -265 674 c 0
 -265 687 -266 702 -288 702 c 0
 -314 702 -332 694 -332 694 c 9
 -332 715 l 1
 -332 715 -305 732 -274 732 c 0
 -223 732 -209 702 -209 683 c 0
 -209 637 -275 627 -275 599 c 9
EndSplineSet
Validated: 3073
EndChar

StartChar: uni031B
Encoding: 795 795 482
Width: 0
VWidth: 0
Flags: W
HStem: 515 21<-104 -75.0928> 680 20G<-72 0>
VStem: -72 72<596.361 700>
AnchorPoint: "horn" -104 525 mark 0
LayerCount: 2
Fore
SplineSet
-72 700 m 1
 -0 700 l 1
 -0 570 -52 515 -104 515 c 1
 -104 536 l 1
 -67 536 -51 570 -51 595 c 0
 -51 624 -72 655 -72 700 c 1
EndSplineSet
Validated: 3073
EndChar

StartChar: Ohorn
Encoding: 416 416 483
Width: 701
VWidth: 0
UnlinkRmOvrlpSave: 1
Flags: W
HStem: -10 50<279.248 428.164> 660 50<269.011 426.585>
VStem: 50 85<215.477 494.263> 568 85<213.851 492.877> 626 72<601.361 705>
AnchorPoint: "top" 345 700 basechar 0
AnchorPoint: "ogonek" 354 0 basechar 0
AnchorPoint: "bottom" 352 0 basechar 0
LayerCount: 2
Fore
SplineSet
626 705 m 1xe8
 698 705 l 1xe8
 698 598 663 541 621 525 c 1
 641 477 653 419 653 350 c 0xf0
 653 100 508 -10 344 -10 c 0
 211 -10 50 100 50 350 c 0
 50 600 201 710 335 710 c 0
 447 710 555 658 612 544 c 1
 636 553 647 580 647 600 c 0
 647 629 626 660 626 705 c 1xe8
341 660 m 0
 251 660 135 560 135 350 c 0
 135 130 270 40 350 40 c 0
 448 40 568 140 568 350 c 0xf0
 568 570 446 660 341 660 c 0
EndSplineSet
EndChar

StartChar: ohorn
Encoding: 417 417 484
Width: 516
VWidth: 0
UnlinkRmOvrlpSave: 1
Flags: W
HStem: -10 50<187.536 328.845> 400 50<197.283 328.568>
VStem: 44 80<112.911 316.52> 394 80<117.779 314.657> 462 72<381.361 485>
AnchorPoint: "top" 257 490 basechar 0
AnchorPoint: "bottom" 248 0 basechar 0
LayerCount: 2
Fore
SplineSet
462 485 m 1xe8
 534 485 l 1
 534 382 501 326 462 307 c 1xe8
 470 281 474 253 474 220 c 0xf0
 474 66 380 -10 250 -10 c 0
 120 -10 44 80 44 220 c 0
 44 360 150 450 250 450 c 0
 345 450 421 409 455 327 c 1
 474 338 483 362 483 380 c 0
 483 409 462 440 462 485 c 1xe8
394 220 m 0xf0
 394 326 340 400 265 400 c 0
 190 400 124 330 124 220 c 0
 124 110 170 40 265 40 c 0
 340 40 394 114 394 220 c 0xf0
EndSplineSet
EndChar

StartChar: Uhorn
Encoding: 431 431 485
Width: 727
VWidth: 0
UnlinkRmOvrlpSave: 1
Flags: W
HStem: -10 50<263.289 426.451> 520 21<609 647.138> 685 15G<76 161 524 609 655 727>
VStem: 76 85<160.097 700> 524 85<160.097 523.169 541 700> 655 72<601.361 705>
AnchorPoint: "top" 342 700 basechar 0
AnchorPoint: "bottom" 342 0 basechar 0
LayerCount: 2
Fore
SplineSet
655 705 m 1
 727 705 l 1
 727 579 676 524 609 520 c 1
 609 298 l 2
 609 48 484 -10 340 -10 c 0
 234 -10 76 48 76 298 c 2
 76 700 l 1
 161 700 l 1
 161 298 l 2
 161 78 278 40 346 40 c 0
 422 40 524 88 524 298 c 2
 524 700 l 1
 609 700 l 1
 609 541 l 1
 660 544 676 576 676 600 c 0
 676 629 655 660 655 705 c 1
EndSplineSet
EndChar

StartChar: uhorn
Encoding: 432 432 486
Width: 586
VWidth: 0
UnlinkRmOvrlpSave: 1
Flags: W
HStem: -10 50<203.452 353.236> 0 21G<381 461> 301 21<461 504.365> 420 20G<70 150 381 461>
VStem: 70 80<99.3798 440> 381 80<0 16 65.7344 301 322 440> 514 72<382.361 486>
AnchorPoint: "top" 267 491 basechar 0
AnchorPoint: "bottom" 259 1 basechar 0
LayerCount: 2
Fore
SplineSet
514 486 m 1xbe
 586 486 l 1
 586 356 531 301 461 301 c 1
 461 0 l 1
 381 0 l 1x7e
 381 16 l 1
 345 -1 302 -10 264 -10 c 0
 124 -10 70 58 70 200 c 2
 70 440 l 1
 150 440 l 1
 150 212 l 2
 150 72 209 40 279 40 c 0
 322 40 353 57 381 84 c 1
 381 440 l 1
 461 440 l 1
 461 322 l 1
 517 322 535 356 535 381 c 0
 535 410 514 441 514 486 c 1xbe
EndSplineSet
EndChar

StartChar: dotbelowcomb
Encoding: 803 803 487
Width: 0
VWidth: 0
Flags: W
HStem: -133 73<-325 -252>
VStem: -325 73<-133 -60>
AnchorPoint: "bottom" -288 0 mark 0
LayerCount: 2
Fore
SplineSet
-325 -60 m 1
 -252 -60 l 1
 -252 -133 l 1
 -325 -133 l 1
 -325 -60 l 1
EndSplineSet
Validated: 3073
EndChar

StartChar: uni0325
Encoding: 805 805 489
Width: 0
VWidth: 0
Flags: W
HStem: -192 30<-320.056 -253.944> -70 30<-320.056 -253.944>
VStem: -363 30<-149.056 -82.9442> -241 30<-149.056 -82.9442>
AnchorPoint: "bottom" -287 0 mark 0
LayerCount: 2
Fore
SplineSet
-333 -116 m 0
 -333 -141 -312 -162 -287 -162 c 0
 -262 -162 -241 -141 -241 -116 c 0
 -241 -91 -262 -70 -287 -70 c 0
 -312 -70 -333 -91 -333 -116 c 0
-363 -116 m 0
 -363 -74 -329 -40 -287 -40 c 0
 -245 -40 -211 -74 -211 -116 c 0
 -211 -158 -245 -192 -287 -192 c 0
 -329 -192 -363 -158 -363 -116 c 0
EndSplineSet
Validated: 3073
EndChar

StartChar: uni032C
Encoding: 812 812 490
Width: 0
VWidth: 0
Flags: W
HStem: -219 189
VStem: -403 234
AnchorPoint: "bottom" -286 0 mark 0
LayerCount: 2
Fore
SplineSet
-286 -219 m 1
 -403 -56 l 1
 -372 -30 l 1
 -286 -118 l 1
 -200 -30 l 1
 -169 -56 l 1
 -286 -219 l 1
EndSplineSet
Validated: 3073
EndChar

StartChar: uni032D
Encoding: 813 813 491
Width: 0
VWidth: 0
Flags: W
HStem: -219 189
VStem: -403 234
AnchorPoint: "bottom" -286 0 mark 0
LayerCount: 2
Fore
SplineSet
-286 -30 m 1
 -169 -193 l 1
 -200 -219 l 1
 -286 -131 l 1
 -372 -219 l 1
 -403 -193 l 1
 -286 -30 l 1
EndSplineSet
Validated: 3073
EndChar

StartChar: uni032E
Encoding: 814 814 492
Width: 0
VWidth: 0
Flags: W
HStem: -133 57<-346.684 -227.316>
VStem: -400 38<-56.1079 -38.1579> -212 38<-56.1079 -38.1579>
AnchorPoint: "bottom" -287 0 mark 0
LayerCount: 2
Fore
SplineSet
-287 -76 m 0
 -250 -76 -215 -52 -212 -30 c 1
 -174 -40 l 1
 -180 -90 -229 -133 -287 -133 c 0
 -345 -133 -394 -90 -400 -40 c 1
 -362 -30 l 1
 -359 -52 -324 -76 -287 -76 c 0
EndSplineSet
Validated: 3073
EndChar

StartChar: uni032F
Encoding: 815 815 493
Width: 0
VWidth: 0
Flags: W
HStem: -97 57<-346.684 -227.316>
VStem: -400 38<-134.842 -116.892> -212 38<-134.842 -116.892>
AnchorPoint: "bottom" -287 0 mark 0
LayerCount: 2
Fore
SplineSet
-287 -97 m 0
 -324 -97 -359 -121 -362 -143 c 1
 -400 -133 l 1
 -394 -83 -345 -40 -287 -40 c 0
 -229 -40 -180 -83 -174 -133 c 1
 -212 -143 l 1
 -215 -121 -250 -97 -287 -97 c 0
EndSplineSet
Validated: 3073
EndChar

StartChar: uni0330
Encoding: 816 816 494
Width: 0
VWidth: 0
Flags: W
HStem: -139 57<-295.459 -198.446> -107 57<-385.554 -288.541>
VStem: -430 41<-139 -114.336> -195 41<-74.6642 -50>
AnchorPoint: "bottom" -287 0 mark 0
LayerCount: 2
Fore
SplineSet
-195 -50 m 1x70
 -154 -50 l 1x70
 -160 -100 -194 -139 -252 -139 c 0xb0
 -286 -139 -315 -107 -337 -107 c 0x70
 -367 -107 -386 -117 -389 -139 c 1
 -430 -139 l 1xb0
 -424 -89 -390 -50 -332 -50 c 0x70
 -298 -50 -269 -82 -247 -82 c 0xb0
 -217 -82 -198 -72 -195 -50 c 1x70
EndSplineSet
Validated: 3073
EndChar

StartChar: uni0331
Encoding: 817 817 495
Width: 0
VWidth: 0
Flags: W
HStem: -100 40<-407 -177>
VStem: -407 230<-100 -60>
AnchorPoint: "bottom" -287 0 mark 0
LayerCount: 2
Fore
SplineSet
-407 -60 m 1
 -177 -60 l 1
 -177 -100 l 1
 -407 -100 l 1
 -407 -60 l 1
EndSplineSet
Validated: 3073
EndChar

StartChar: a.sc
Encoding: 57344 57344 590
Width: 634
VWidth: 0
Flags: W
HStem: 0 21G<24 113.482 524.518 613> 191 50<207 431>
LayerCount: 2
Fore
SplineSet
533 0 m 1
 452 191 l 1
 186 191 l 1
 105 0 l 1
 24 0 l 1
 279 600 l 1
 359 600 l 1
 613 0 l 1
 533 0 l 1
207 241 m 1
 431 241 l 1
 319 505 l 1
 207 241 l 1
EndSplineSet
Validated: 3073
EndChar

StartChar: e.sc
Encoding: 57371 57371 591
Width: 546
VWidth: 0
Flags: W
HStem: 0 50<170 505> 320 50<170 399> 550 50<170 489>
VStem: 85 85<50 320 370 550>
LayerCount: 2
Fore
SplineSet
505 0 m 1
 85 0 l 1
 85 600 l 1
 489 600 l 1
 489 550 l 9
 170 550 l 1
 170 370 l 1
 399 370 l 17
 399 320 l 9
 170 320 l 1
 170 50 l 1
 505 50 l 17
 505 0 l 1
EndSplineSet
Validated: 3073
EndChar

StartChar: o.sc
Encoding: 57441 57441 592
Width: 701
VWidth: 0
Flags: W
HStem: -10 50<268.33 436.399> 560 50<258.312 437.328>
VStem: 50 85<184.789 419.723> 568 85<183.322 418.366>
LayerCount: 2
Fore
SplineSet
344 -10 m 0
 211 -10 50 85 50 300 c 0
 50 515 201 610 335 610 c 0
 498 610 653 515 653 300 c 0
 653 85 508 -10 344 -10 c 0
341 560 m 0
 251 560 135 481 135 300 c 0
 135 111 270 40 350 40 c 0
 448 40 568 119 568 300 c 0
 568 489 446 560 341 560 c 0
EndSplineSet
Validated: 3073
EndChar

StartChar: stackingacute
Encoding: 58624 58624 593
Width: 279
VWidth: 0
Flags: W
HStem: 723 136
VStem: 72 135
LayerCount: 2
Fore
SplineSet
153 859 m 25
 207 814 l 25
 103 723 l 25
 72 749 l 25
 153 859 l 25
EndSplineSet
Validated: 3073
EndChar

StartChar: stackinggrave
Encoding: 58625 58625 594
Width: 279
VWidth: 0
Flags: W
HStem: 723 136
VStem: 72 135
LayerCount: 2
Fore
SplineSet
126 859 m 25
 207 749 l 25
 176 723 l 25
 72 814 l 25
 126 859 l 25
EndSplineSet
Validated: 3073
EndChar

StartChar: uni0181
Encoding: 385 385 597
Width: 655
VWidth: 0
Flags: W
HStem: 0 50<280 479.897> 355 50<280 436.182> 448 21G<98 123> 650 50<146.829 195 280 447.271>
VStem: 20 88<497.138 614.511> 195 85<50 355 405 647> 490 85<461.783 606.904> 532 85<105.466 282.83>
LayerCount: 2
Fore
SplineSet
280 650 m 1xfe
 280 405 l 1
 368 405 l 2
 453 405 490 486 490 525 c 0
 490 564 475 650 390 650 c 2
 280 650 l 1xfe
491 388 m 1
 580 352 617 266 617 189 c 0xfd
 617 89 553 0 395 0 c 2
 195 0 l 1
 195 647 l 5
 136 637 108 600 108 556 c 4
 108 512 118 508 131 500 c 5
 118 448 l 5
 78 462 20 486 20 551 c 4
 20 639 96 700 195 700 c 6
 375 700 l 2
 535 700 575 618 575 525 c 0
 575 492 556 427 491 388 c 1
280 355 m 1
 280 50 l 1
 410 50 l 2
 495 50 532 119 532 189 c 0
 532 259 495 355 410 355 c 2
 280 355 l 1
EndSplineSet
Validated: 3073
EndChar

StartChar: uni0253
Encoding: 595 595 598
Width: 527
VWidth: 0
Flags: W
HStem: -10 50<188.922 342.236> 400 50<209.857 342.589> 620 50<164.272 272.252>
VStem: 68 80<81.125 330.902 416 605.645> 405 80<115.575 324.425>
LayerCount: 2
Fore
SplineSet
148 416 m 1
 181 438 223 450 268 450 c 0
 428 450 485 345 485 220 c 0
 485 95 426 -10 268 -10 c 0
 168 -10 68 16 68 180 c 2
 68 533 l 6
 68 632 147 670 217 670 c 4
 255 670 292 656 318 625 c 5
 255 595 l 5
 241 615 221 620 202 620 c 4
 162 620 148 582 148 500 c 6
 148 416 l 1
148 230 m 2
 148 148 l 2
 148 56 215 40 283 40 c 0
 368 40 405 135 405 220 c 0
 405 305 368 400 283 400 c 0
 190 400 148 322 148 230 c 2
EndSplineSet
Validated: 3073
EndChar

StartChar: uni018A
Encoding: 394 394 599
Width: 747
VWidth: 0
Flags: W
HStem: 0 50<280 513.351> 448 21G<98 123> 650 50<146.829 195 280 520.5>
VStem: 20 88<497.138 614.511> 195 85<50 647> 613 85<192.383 523.986>
LayerCount: 2
Fore
SplineSet
280 650 m 1
 280 50 l 1
 452 50 l 2
 537 50 613 140 613 360 c 0
 613 580 537 650 452 650 c 2
 280 650 l 1
437 0 m 2
 195 0 l 1
 195 647 l 5
 136 637 108 600 108 556 c 4
 108 512 118 508 131 500 c 5
 118 448 l 5
 78 462 20 486 20 551 c 4
 20 639 96 700 195 700 c 6
 437 700 l 2
 597 700 698 602 698 360 c 0
 698 120 595 0 437 0 c 2
EndSplineSet
Validated: 3073
EndChar

StartChar: uni0257
Encoding: 599 599 600
Width: 582
VWidth: 0
Flags: W
HStem: -10 50<196.864 325.1> 0 21G<381 461> 400 50<197.02 321.93> 620 50<477.272 585.252>
VStem: 44 80<125.955 314.045> 381 80<0 23 101.368 324.963 402 605.645>
LayerCount: 2
Fore
SplineSet
461 0 m 1x7c
 381 0 l 1x7c
 381 23 l 1
 345 0 299 -10 246 -10 c 0xbc
 121 -10 44 95 44 220 c 0
 44 345 122 450 246 450 c 0
 299 450 345 432 381 402 c 1
 381 533 l 2
 381 632 460 670 530 670 c 0
 568 670 605 656 631 625 c 1
 568 595 l 1
 554 615 534 620 515 620 c 0
 475 620 461 582 461 500 c 2
 461 0 l 1x7c
381 196 m 0
 381 288 354 400 261 400 c 0
 176 400 124 305 124 220 c 0
 124 135 176 40 261 40 c 0xbc
 318 40 381 86 381 196 c 0
EndSplineSet
Validated: 3073
EndChar

StartChar: uni01DD
Encoding: 477 477 601
Width: 502
VWidth: 0
Flags: W
HStem: -10 50<181.049 306.621> 170 50<128 375> 400 50<146.021 299.772>
VStem: 380 80<220 315>
LayerCount: 2
Fore
SplineSet
380 220 m 1
 380 330 314 400 219 400 c 0
 168 400 132 377 109 340 c 1
 49 363 l 1
 89 414 152 450 234 450 c 0
 364 450 460 360 460 220 c 0
 460 80 354 -10 254 -10 c 0
 115 -10 44 110 44 220 c 1
 380 220 l 1
375 170 m 1
 128 170 l 1
 139 96 176 40 239 40 c 0
 302 40 358 89 375 170 c 1
EndSplineSet
Validated: 3073
EndChar

StartChar: uni018E
Encoding: 398 398 603
Width: 546
VWidth: 0
Flags: W
HStem: 0 50<47 382> 390 50<153 382> 650 50<63 382>
VStem: 382 85<50 390 440 650>
LayerCount: 2
Fore
SplineSet
47 0 m 1
 47 50 l 9
 382 50 l 1
 382 390 l 1
 153 390 l 17
 153 440 l 9
 382 440 l 1
 382 650 l 1
 63 650 l 17
 63 700 l 1
 467 700 l 1
 467 0 l 1
 47 0 l 1
EndSplineSet
Validated: 3073
EndChar

StartChar: uni0198
Encoding: 408 408 604
Width: 671
VWidth: 0
Flags: W
HStem: 0 21G<85 170 492.272 602> 655 55<534.408 621.668> 680 20G<85 170>
VStem: 85 85<0 229 340 700> 636 70<538.751 641.13>
LayerCount: 2
Fore
SplineSet
304 379 m 1xd8
 602 0 l 1
 508 0 l 1
 254 323 l 1
 170 229 l 1
 170 0 l 1
 85 0 l 1
 85 700 l 1
 170 700 l 1xb8
 170 340 l 1
 418 618 l 6
 461 666 507 710 572 710 c 4
 638 710 706 666 706 583 c 4
 706 518 646 477 630 472 c 5
 600 528 l 5
 623 543 636 556 636 594 c 4
 636 626 611 655 582 655 c 4
 554 655 539 642 488 585 c 6
 304 379 l 1xd8
EndSplineSet
Validated: 3073
EndChar

StartChar: uni0199
Encoding: 409 409 605
Width: 479
VWidth: 0
Flags: W
HStem: 0 21G<72 152 344.145 446> 420 20G<318.222 428> 620 50<168.272 276.252>
VStem: 72 80<0 131 233 605.645>
LayerCount: 2
Fore
SplineSet
152 233 m 1
 336 440 l 1
 428 440 l 1
 254 245 l 1
 446 0 l 1
 360 0 l 1
 207 193 l 1
 152 131 l 1
 152 0 l 1
 72 0 l 1
 72 533 l 2
 72 632 151 670 221 670 c 0
 259 670 296 656 322 625 c 1
 259 595 l 1
 245 615 225 620 206 620 c 0
 166 620 152 582 152 500 c 2
 152 233 l 1
EndSplineSet
Validated: 3073
EndChar

StartChar: Engsami
Encoding: 58626 58626 606
Width: 687
VWidth: 0
Flags: W
HStem: -170 50<328.634 490.839> 0 21G<85 170> 680 20G<85 183.518 519 604>
VStem: 85 85<0 555> 519 85<-88.3594 0 144 700>
AnchorPoint: "bottom" 350 -160 basechar 0
AnchorPoint: "top" 350 700 basechar 0
LayerCount: 2
Fore
SplineSet
519 700 m 1
 604 700 l 1
 604 78 l 2
 604 -122 571 -170 394 -170 c 0
 339 -170 282 -149 236 -125 c 1
 286 -73 l 1
 332 -105 374 -120 409 -120 c 0
 498 -120 515 -89 518 0 c 1
 517 0 l 1
 170 555 l 1
 170 0 l 1
 85 0 l 1
 85 700 l 1
 170 700 l 1
 171 700 l 1
 519 144 l 1
 519 700 l 1
EndSplineSet
Validated: 3073
EndChar

StartChar: uni019D
Encoding: 413 413 607
Width: 623
VWidth: 0
Flags: W
HStem: -170 50<-52.2517 54.4539> 0 21G<462 547> 620 50<226.606 403.091> 640 20G<72 157>
VStem: 72 85<-105.645 570.86 626 660> 462 85<0 552.719>
LayerCount: 2
Fore
SplineSet
72 660 m 1xdc
 157 660 l 1xdc
 157 626 l 1
 188 642 234 670 307 670 c 0
 447 670 547 602 547 460 c 2
 547 0 l 17
 462 0 l 9
 462 448 l 2
 462 588 392 620 322 620 c 0xec
 250 620 190 583 157 554 c 1
 157 -33 l 2
 157 -132 73 -170 3 -170 c 0
 -35 -170 -72 -156 -98 -125 c 1
 -35 -95 l 1
 -21 -115 -1 -120 18 -120 c 0
 58 -120 72 -82 72 0 c 2
 72 660 l 1xdc
EndSplineSet
Validated: 3073
EndChar

StartChar: uni0272
Encoding: 626 626 608
Width: 531
VWidth: 0
Flags: W
HStem: -170 50<-52.2517 55.7281> 0 21G<383 463> 400 50<188.149 340.498> 420 20G<72 152>
VStem: 72 80<-105.645 369.252 425 440> 383 80<0 350.248>
LayerCount: 2
Fore
SplineSet
152 -33 m 2xec
 152 -132 73 -170 3 -170 c 0
 -35 -170 -72 -156 -98 -125 c 1
 -35 -95 l 1
 -21 -115 -1 -120 18 -120 c 0
 58 -120 72 -82 72 0 c 2
 72 440 l 1
 152 440 l 1xdc
 152 425 l 1
 183 441 217 450 254 450 c 0
 394 450 463 382 463 240 c 2
 463 0 l 1
 383 0 l 1
 383 228 l 2
 383 368 339 400 269 400 c 0
 224 400 185 382 152 353 c 1
 152 -33 l 2xec
EndSplineSet
Validated: 3073
EndChar

StartChar: uni0193
Encoding: 403 403 609
Width: 744
VWidth: 0
Flags: W
HStem: -10 50<292.784 475.287> 350 50<446 530> 650 50<268.31 465.551 632.816 747.187>
VStem: 50 85<220.082 492.779> 530 80<84.4482 350> 544 75<535 581.97>
LayerCount: 2
Fore
SplineSet
619 535 m 5xf4
 544 502 l 5xf4
 544 620 442 650 358 650 c 4
 242 650 135 560 135 350 c 4
 135 130 282 40 377 40 c 0
 441 40 493 62 530 102 c 1
 530 350 l 1
 446 350 l 1
 446 400 l 1
 610 400 l 1
 610 102 l 1xf8
 560 38 471 -10 362 -10 c 0
 232 -10 50 100 50 350 c 4
 50 600 212 700 343 700 c 4
 423 700 509 684 562 647 c 5
 591 688 641 705 688 705 c 4
 726 705 763 691 789 660 c 5
 726 630 l 5
 712 650 692 655 673 655 c 4
 633 655 619 617 619 535 c 5xf4
EndSplineSet
Validated: 3073
EndChar

StartChar: uni0260
Encoding: 608 608 610
Width: 557
VWidth: 0
Flags: W
HStem: -170 50<165.634 327.506> -10 50<191.709 344.36> 400 50<184.765 309.164> 499 50<452.238 560.252>
VStem: 44 80<114.669 327.089> 356 80<-88.3594 11 55.6195 349.653 412 484.595>
LayerCount: 2
Fore
SplineSet
356 71 m 1
 356 297 l 1
 340 357 305 400 250 400 c 0
 175 400 124 330 124 220 c 0
 124 110 175 40 270 40 c 0
 306 40 334 51 356 71 c 1
490 499 m 4
 459 499 436 476 436 385 c 6
 436 78 l 2
 436 -122 408 -170 231 -170 c 0
 176 -170 119 -149 73 -125 c 1
 123 -73 l 1
 169 -105 211 -120 246 -120 c 0
 338 -120 353 -86 356 11 c 1
 326 -2 293 -10 255 -10 c 0
 125 -10 44 80 44 220 c 0
 44 360 135 450 235 450 c 0
 284 450 324 435 356 412 c 5
 356 511 435 549 505 549 c 4
 543 549 580 535 606 504 c 5
 543 474 l 5
 529 494 509 499 490 499 c 4
EndSplineSet
Validated: 3073
EndChar

StartChar: uni01B3
Encoding: 435 435 611
Width: 581
VWidth: 0
Flags: W
HStem: 0 21G<191 276> 657 55<429.123 512.903> 680 20G<11 111.192>
VStem: 191 85<0 346> 531 70<591 639.859>
LayerCount: 2
Fore
SplineSet
531 585 m 1xd8
 531 626 503 657 470 657 c 0xd8
 431 657 414 617 387 564 c 2
 276 346 l 1
 276 0 l 1
 191 0 l 1
 191 347 l 1
 11 700 l 1
 101 700 l 1xb8
 234 439 l 1
 305 578 l 2
 332 631 380 712 474 712 c 0
 553 712 601 650 601 591 c 1
 531 585 l 1xd8
EndSplineSet
Validated: 3073
EndChar

StartChar: uni01B4
Encoding: 436 436 612
Width: 545
VWidth: 0
Flags: W
HStem: -170 50<80.1013 141.959> 400 50<403.041 464.899> 420 20G<22 102.235>
LayerCount: 2
Fore
SplineSet
292 304 m 2xa0
 325 395 370 450 447 450 c 0
 486 450 515 422 550 384 c 1
 486 352 l 1
 453 398 443 400 432 400 c 0xc0
 405 400 393 362 371 302 c 2
 253 -24 l 2
 220 -115 175 -170 98 -170 c 0
 59 -170 30 -142 -5 -104 c 1
 59 -72 l 1
 92 -118 102 -120 113 -120 c 0
 140 -120 152 -82 174 -22 c 2
 182 0 l 1
 22 440 l 1
 95 440 l 1
 218 100 l 1
 292 304 l 2xa0
EndSplineSet
Validated: 3073
EndChar

StartChar: uni0186
Encoding: 390 390 613
Width: 650
VWidth: 0
Flags: W
HStem: -10 50<184.286 367.216> 660 50<204.468 388.505>
VStem: 525 85<220.082 494.263>
AnchorPoint: "top" 310 700 basechar 0
LayerCount: 2
Fore
SplineSet
50 102 m 1
 109 129 l 1
 146 72 206 40 283 40 c 0
 378 40 525 130 525 350 c 0
 525 560 418 660 302 660 c 0
 218 660 161 622 128 575 c 1
 53 608 l 1
 99 665 181 710 317 710 c 0
 448 710 610 600 610 350 c 0
 610 100 428 -10 298 -10 c 0
 189 -10 100 38 50 102 c 1
EndSplineSet
Validated: 3073
EndChar

StartChar: uni0254
Encoding: 596 596 614
Width: 497
VWidth: 0
Flags: W
HStem: -10 50<141.021 294.772> 400 50<174.994 301.716>
VStem: 375 80<123.48 316.52>
AnchorPoint: "top" 241 490 basechar 0
LayerCount: 2
Fore
SplineSet
128 297 m 1
 63 330 l 1
 95 398 157 450 249 450 c 0
 349 450 455 360 455 220 c 0
 455 80 359 -10 229 -10 c 0
 147 -10 84 26 44 77 c 1
 104 100 l 1
 127 63 163 40 214 40 c 0
 309 40 375 110 375 220 c 0
 375 330 309 400 234 400 c 0
 179 400 144 357 128 297 c 1
EndSplineSet
Validated: 3073
EndChar

StartChar: uni0190
Encoding: 400 400 615
Width: 526
VWidth: 0
Flags: W
HStem: -10 50<199.588 359.764> 390 50<209.199 340> 660 50<192.036 353.592>
VStem: 40 85<128.505 303.601> 70 85<488.063 622.86>
AnchorPoint: "top" 262 700 basechar 0
LayerCount: 2
Fore
SplineSet
408 139 m 1xf0
 482 119 l 1
 454 46 389 -10 281 -10 c 0
 105 -10 40 135 40 215 c 0xf0
 40 275 71 370 168 415 c 1
 95 446 70 502 70 555 c 0
 70 635 139 710 271 710 c 0
 340 710 421 676 459 605 c 1
 385 585 l 1
 377 642 330 660 256 660 c 0
 193 660 155 615 155 555 c 0xe8
 155 495 195 440 305 440 c 2
 340 440 l 1
 340 390 l 1
 275 390 l 2
 165 390 125 275 125 215 c 0
 125 155 168 40 266 40 c 0
 352 40 393 69 408 139 c 1xf0
EndSplineSet
Validated: 3073
EndChar

StartChar: uni025B
Encoding: 603 603 616
Width: 438
VWidth: 0
Flags: W
HStem: -10 50<141.602 299.568> 220 50<161 282> 400 50<151.523 298.389>
VStem: 30 80<70.5807 184.923> 54 80<294.771 382.112>
AnchorPoint: "top" 216 490 basechar 0
LayerCount: 2
Fore
SplineSet
337 99 m 1xf0
 396 87 l 1
 373 44 313 -10 227 -10 c 0
 86 -10 30 46 30 125 c 0xf0
 30 176 56 224 121 250 c 1
 74 275 54 311 54 339 c 0
 54 404 104 450 227 450 c 0
 317 450 361 404 377 359 c 1
 318 347 l 1
 312 381 274 400 215 400 c 0
 165 400 134 375 134 339 c 0xe8
 134 303 166 270 254 270 c 2
 282 270 l 1
 282 220 l 1
 247 220 l 2
 159 220 110 190 110 125 c 0
 110 89 137 40 215 40 c 0
 267 40 321 64 337 99 c 1xf0
EndSplineSet
Validated: 3073
EndChar

StartChar: uni0256
Encoding: 598 598 618
Width: 532
VWidth: 0
Flags: W
HStem: -170 50<477.272 585.252> -10 50<196.864 325.1> 400 50<197.02 321.93> 640 20G<381 461>
VStem: 44 80<125.955 314.045> 381 80<-105.645 23 101.368 324.963 402 660>
LayerCount: 2
Fore
SplineSet
381 -33 m 6
 381 23 l 1
 345 0 299 -10 246 -10 c 0
 121 -10 44 95 44 220 c 0
 44 345 122 450 246 450 c 0
 299 450 345 432 381 402 c 1
 381 660 l 1
 461 660 l 1
 461 0 l 6
 461 -82 475 -120 515 -120 c 4
 534 -120 554 -115 568 -95 c 5
 631 -125 l 5
 605 -156 568 -170 530 -170 c 4
 460 -170 381 -132 381 -33 c 6
381 196 m 0
 381 288 354 400 261 400 c 0
 176 400 124 305 124 220 c 0
 124 135 176 40 261 40 c 0
 318 40 381 86 381 196 c 0
EndSplineSet
Validated: 3073
EndChar

StartChar: uni0191
Encoding: 401 401 619
Width: 531
VWidth: 0
Flags: W
HStem: -170 50<-39.2517 67.4539> 390 50<170 399> 650 50<170 489>
VStem: 85 85<-105.645 390 440 650>
LayerCount: 2
Fore
SplineSet
170 -33 m 6
 170 -132 86 -170 16 -170 c 4
 -22 -170 -59 -156 -85 -125 c 5
 -22 -95 l 5
 -8 -115 12 -120 31 -120 c 4
 71 -120 85 -82 85 0 c 6
 85 700 l 1
 489 700 l 17
 489 650 l 9
 170 650 l 1
 170 440 l 1
 399 440 l 17
 399 390 l 9
 170 390 l 1
 170 -33 l 6
EndSplineSet
Validated: 3073
EndChar

StartChar: florin
Encoding: 402 402 620
Width: 273
VWidth: 0
Flags: W
HStem: -170 50<-43.2517 64.7281> 390 50<30 81 161 240> 620 50<177.306 262.654>
VStem: 81 80<-105.645 390 440 604.615>
LayerCount: 2
Fore
SplineSet
161 -33 m 6
 161 -132 82 -170 12 -170 c 4
 -26 -170 -63 -156 -89 -125 c 5
 -26 -95 l 5
 -12 -115 8 -120 27 -120 c 4
 67 -120 81 -82 81 0 c 6
 81 390 l 1
 15 390 l 1
 30 440 l 1
 81 440 l 1
 81 535 l 2
 81 615 126 670 206 670 c 0
 235 670 258 666 277 659 c 1
 256 605 l 1
 248 615 238 620 221 620 c 0
 181 620 161 597 161 509 c 2
 161 440 l 1
 240 440 l 1
 240 390 l 1
 161 390 l 1
 161 -33 l 6
EndSplineSet
Validated: 3073
EndChar

StartChar: uni0194
Encoding: 404 404 621
Width: 563
VWidth: 0
Flags: W
HStem: -204 50<267.205 298.778> 680 20G<12 98.0849 468.878 554>
VStem: 196 71<-153.74 -61.636> 299 70<-153.74 -61.2141>
LayerCount: 2
Fore
SplineSet
282 -60 m 1
 273 -90 267 -118 267 -130 c 0
 267 -143 272 -154 283 -154 c 0
 294 -154 299 -143 299 -130 c 0
 299 -118 291 -90 282 -60 c 1
245 52 m 1
 12 700 l 1
 91 700 l 1
 283 158 l 1
 476 700 l 1
 554 700 l 1
 320 53 l 1
 330 25 369 -88 369 -130 c 0
 369 -180 332 -204 283 -204 c 0
 234 -204 196 -180 196 -130 c 0
 196 -88 234 22 245 52 c 1
EndSplineSet
Validated: 3073
EndChar

StartChar: uni0263
Encoding: 611 611 622
Width: 402
VWidth: 0
Flags: W
HStem: -204 50<184.149 222.893> 420 20G<9 91.1356 314.864 396>
VStem: 116 67<-153.74 -47.2193> 223 66<-153.74 -48.5149>
LayerCount: 2
Fore
SplineSet
239 57 m 1
 257 13 289 -93 289 -130 c 0
 289 -180 252 -204 203 -204 c 0
 154 -204 116 -180 116 -130 c 0
 116 -86 158 34 167 56 c 1
 9 440 l 1
 83 440 l 1
 203 145 l 1
 323 440 l 1
 396 440 l 1
 239 57 l 1
203 -46 m 1
 193 -81 183 -116 183 -130 c 0
 183 -143 192 -154 203 -154 c 0
 214 -154 223 -143 223 -130 c 0
 223 -116 214 -81 203 -46 c 1
EndSplineSet
Validated: 3073
EndChar

StartChar: uni01B2
Encoding: 434 434 623
Width: 685
VWidth: 0
Flags: W
HStem: -10 50<252.013 411.749> 680 20G<76 161 404 531>
VStem: 76 85<149.035 700> 524 85<179.58 490.879>
LayerCount: 2
Fore
SplineSet
404 700 m 1
 499 700 l 1
 563 590 609 516 609 292 c 0
 609 104 468 -10 340 -10 c 0
 234 -10 76 18 76 300 c 2
 76 700 l 1
 161 700 l 1
 161 300 l 2
 161 54 278 40 346 40 c 0
 444 40 524 170 524 292 c 0
 524 517 468 591 404 700 c 1
EndSplineSet
Validated: 3073
EndChar

StartChar: uni028B
Encoding: 651 651 624
Width: 521
VWidth: 0
Flags: W
HStem: -10 50<203.452 327.71> 387 59<292.864 320.597>
VStem: 70 80<99.3798 440> 382 80<112.539 317.759>
LayerCount: 2
Fore
SplineSet
277 387 m 1
 295 446 l 1
 372 428 462 359 462 212 c 0
 462 115 399 -10 264 -10 c 0
 124 -10 70 58 70 200 c 2
 70 440 l 1
 150 440 l 1
 150 212 l 2
 150 72 209 40 279 40 c 0
 336 40 382 117 382 211 c 0
 382 341 318 375 277 387 c 1
EndSplineSet
Validated: 3073
EndChar

StartChar: uni0292
Encoding: 658 658 627
Width: 459
VWidth: 0
Flags: W
HStem: -200 50<128.105 282.52> 132 50<248 277.168> 390 50<44 288>
VStem: 339 80<-92.9307 70.4875>
AnchorPoint: "top" 214 490 basechar 0
LayerCount: 2
Fore
SplineSet
188 132 m 2
 128 132 l 1
 288 390 l 1
 29 390 l 1
 44 440 l 1
 407 440 l 1
 248 182 l 1
 324 182 419 126 419 -18 c 0
 419 -116 340 -200 220 -200 c 0
 118 -200 43 -152 16 -96 c 1
 79 -72 l 1
 98 -121 152 -150 205 -150 c 0
 284 -150 339 -96 339 -18 c 0
 339 65 302 132 188 132 c 2
EndSplineSet
Validated: 3073
EndChar

StartChar: uni01B7
Encoding: 439 439 628
Width: 503
VWidth: 0
Flags: W
HStem: -10 50<157.265 302.72> 382 50<281 299.193> 650 50<77 321>
VStem: 30 67<98.7049 159.731> 372 85<117.436 303.297>
AnchorPoint: "top" 250 700 basechar 0
LayerCount: 2
Fore
SplineSet
221 382 m 2
 161 382 l 1
 321 650 l 1
 77 650 l 1
 77 700 l 1
 440 700 l 1
 281 432 l 1
 357 432 457 346 457 202 c 0
 457 104 373 -10 253 -10 c 0
 105 -10 41 60 30 159 c 1
 97 166 l 1
 105 92 151 40 238 40 c 0
 317 40 372 124 372 202 c 0
 372 285 335 382 221 382 c 2
EndSplineSet
Validated: 3073
EndChar

StartChar: uni01E5
Encoding: 485 485 632
Width: 517
VWidth: 0
UnlinkRmOvrlpSave: 1
Flags: W
HStem: -170 50<165.634 319.325> -80 50<265 335 430 502> 10 50<187.584 344.36> 400 50<183.456 309.164> 420 20G<356 436>
VStem: 44 80<127.215 334.432> 356 80<-30 31 75.6195 349.653 412 440>
LayerCount: 2
Fore
SplineSet
356 91 m 1xf6
 356 297 l 1
 340 357 305 400 250 400 c 0
 175 400 124 340 124 230 c 0
 124 120 175 60 270 60 c 0
 306 60 334 71 356 91 c 1xf6
436 440 m 1xee
 436 88 l 2
 436 41 435 2 430 -30 c 1
 502 -30 l 1
 502 -80 l 1
 418 -80 l 1
 394 -147 342 -170 231 -170 c 0
 176 -170 119 -149 73 -125 c 1
 123 -73 l 1
 169 -105 211 -120 246 -120 c 0
 293 -120 319 -106 335 -80 c 1
 265 -80 l 1
 265 -30 l 1
 351 -30 l 1
 354 -12 355 8 356 31 c 1
 326 18 293 10 255 10 c 0
 125 10 44 90 44 230 c 0
 44 370 135 450 235 450 c 0xf6
 284 450 324 435 356 412 c 1
 356 440 l 1
 436 440 l 1xee
EndSplineSet
EndChar

StartChar: uni0187
Encoding: 391 391 633
Width: 744
VWidth: 0
Flags: W
HStem: -10 50<292.784 475.714> 650 50<268.31 465.551 632.816 747.187>
VStem: 50 85<220.082 492.779> 544 75<535 581.97>
LayerCount: 2
Fore
SplineSet
343 700 m 0
 423 700 509 684 562 647 c 1
 591 688 641 705 688 705 c 0
 726 705 763 691 789 660 c 1
 726 630 l 1
 712 650 692 655 673 655 c 0
 633 655 619 617 619 535 c 1
 544 502 l 1
 544 620 442 650 358 650 c 0
 242 650 135 560 135 350 c 1
 135 130 282 40 377 40 c 0
 454 40 514 72 551 129 c 1
 610 102 l 1
 560 38 471 -10 362 -10 c 0
 232 -10 50 100 50 350 c 0
 50 600 212 700 343 700 c 0
EndSplineSet
Validated: 3073
EndChar

StartChar: uni0188
Encoding: 392 392 634
Width: 557
VWidth: 0
Flags: W
HStem: -10 50<204.228 357.979> 400 50<197.283 323.966> 499 50<453.012 560.252>
VStem: 44 80<123.48 316.52> 371 65<330 349.653>
LayerCount: 2
Fore
SplineSet
371 297 m 1
 355 357 320 400 265 400 c 0
 190 400 124 330 124 220 c 0
 124 110 190 40 285 40 c 0
 336 40 372 63 395 100 c 1
 455 77 l 1
 415 26 352 -10 270 -10 c 0
 140 -10 44 80 44 220 c 0
 44 360 150 450 250 450 c 0
 292 450 327 440 356 422 c 1
 361 514 437 549 505 549 c 0
 543 549 580 535 606 504 c 1
 543 474 l 1
 529 494 509 499 490 499 c 0
 459 499 436 476 436 385 c 2
 436 330 l 1
 371 297 l 1
EndSplineSet
Validated: 3073
EndChar

StartChar: uni0196
Encoding: 406 406 635
Width: 313
VWidth: 0
Flags: W
HStem: -10 50<176.368 262.926> 680 20G<84 169>
VStem: 84 85<45.596 700>
LayerCount: 2
Fore
SplineSet
84 700 m 25
 169 700 l 25
 169 160 l 6
 169 78 170 40 206 40 c 4
 225 40 230 45 244 65 c 5
 307 35 l 5
 281 4 259 -10 221 -10 c 4
 151 -10 84 28 84 127 c 6
 84 700 l 25
EndSplineSet
Validated: 3073
EndChar

StartChar: uni0269
Encoding: 617 617 636
Width: 308
VWidth: 0
Flags: W
HStem: -10 50<173.628 230.568> 390 50<44 84>
VStem: 84 80<44.4922 390> 240 56<46.5751 115>
LayerCount: 2
Fore
SplineSet
191 -10 m 0
 127 -10 84 24 84 152 c 2
 84 390 l 1
 44 390 l 1
 44 440 l 1
 164 440 l 1
 164 160 l 2
 164 83 169 40 200 40 c 0
 225 40 240 61 240 115 c 1
 296 115 l 1
 296 32 256 -10 191 -10 c 0
EndSplineSet
Validated: 3073
EndChar

StartChar: uni0197
Encoding: 407 407 637
Width: 251
VWidth: 0
Flags: W
HStem: 0 21G<84 169> 390 50<23 84 169 230> 680 20G<84 169>
VStem: 84 85<0 390 440 700>
LayerCount: 2
Fore
SplineSet
23 390 m 5
 23 440 l 5
 84 440 l 1
 84 700 l 1
 169 700 l 1
 169 440 l 1
 230 440 l 5
 230 390 l 5
 169 390 l 1
 169 0 l 1
 84 0 l 1
 84 390 l 1
 23 390 l 5
EndSplineSet
Validated: 3073
EndChar

StartChar: uni0268
Encoding: 616 616 638
Width: 250
VWidth: 0
Flags: W
HStem: 0 21G<87 167> 253 50<22 87 167 229> 420 20G<87 167> 530 80<87 167>
VStem: 87 80<0 253 303 440 530 610>
LayerCount: 2
Fore
SplineSet
87 440 m 1
 167 440 l 1
 167 303 l 1
 229 303 l 1
 229 253 l 1
 167 253 l 1
 167 0 l 1
 87 0 l 1
 87 253 l 1
 22 253 l 1
 22 303 l 1
 87 303 l 1
 87 440 l 1
87 610 m 1
 167 610 l 1
 167 530 l 1
 87 530 l 1
 87 610 l 1
EndSplineSet
Validated: 3073
EndChar

StartChar: uni019F
Encoding: 415 415 639
Width: 701
VWidth: 0
Flags: W
HStem: -10 50<278.604 426.518> 325 50<136 567> 660 50<270.657 425.969>
VStem: 50 86<214.734 325 375 494.175> 567 86<214.734 325 375 490.856>
CounterMasks: 1 e0
LayerCount: 2
Fore
SplineSet
344 -10 m 0
 211 -10 50 100 50 350 c 0
 50 600 201 710 335 710 c 0
 498 710 653 600 653 350 c 0
 653 100 508 -10 344 -10 c 0
567 325 m 5
 136 325 l 5
 146 123 273 40 350 40 c 0
 444 40 558 132 567 325 c 5
567 375 m 5
 558 577 442 660 341 660 c 0
 255 660 145 568 136 375 c 5
 567 375 l 5
EndSplineSet
Validated: 3073
EndChar

StartChar: uni0275
Encoding: 629 629 640
Width: 516
VWidth: 0
Flags: W
HStem: -10 50<188.578 329.149> 195 50<125 393> 400 50<198.334 329.149>
VStem: 44 81<110.454 195 245 319.701> 393 81<115.006 195 245 324.994>
CounterMasks: 1 e0
LayerCount: 2
Fore
SplineSet
474 220 m 0
 474 66 380 -10 250 -10 c 0
 120 -10 44 80 44 220 c 0
 44 360 150 450 250 450 c 0
 380 450 474 374 474 220 c 0
393 195 m 5
 125 195 l 5
 132 100 177 40 265 40 c 0
 334 40 385 103 393 195 c 5
125 245 m 5
 393 245 l 5
 385 337 334 400 265 400 c 0
 196 400 134 340 125 245 c 5
EndSplineSet
Validated: 3073
EndChar

StartChar: uni01A4
Encoding: 420 420 641
Width: 642
VWidth: 0
Flags: W
HStem: 0 21G<195 280> 320 50<280 478.697> 448 21G<98 123> 650 50<146.829 195 280 479.44>
VStem: 20 88<497.138 614.511> 195 85<0 320 370 647> 532 85<425.964 594.036>
LayerCount: 2
Fore
SplineSet
280 650 m 1
 280 370 l 1
 415 370 l 2
 500 370 532 450 532 510 c 0
 532 570 500 650 415 650 c 2
 280 650 l 1
280 320 m 1
 280 0 l 1
 195 0 l 1
 195 647 l 5
 136 637 108 600 108 556 c 4
 108 512 118 508 131 500 c 5
 118 448 l 5
 78 462 20 486 20 551 c 4
 20 639 96 700 195 700 c 6
 400 700 l 2
 560 700 617 590 617 510 c 0
 617 430 558 320 400 320 c 2
 280 320 l 1
EndSplineSet
Validated: 3073
EndChar

StartChar: uni01A5
Encoding: 421 421 642
Width: 531
VWidth: 0
Flags: W
HStem: -8 50<214.169 337.87> 402 50<205.627 344.026> 562 50<168.272 276.252>
VStem: 72 80<-200 29 117.037 346.863 423 547.645> 409 80<127.955 322.168>
LayerCount: 2
Fore
SplineSet
72 475 m 6
 72 574 151 612 221 612 c 4
 259 612 296 598 322 567 c 5
 259 537 l 5
 245 557 225 562 206 562 c 4
 166 562 152 524 152 442 c 6
 152 423 l 1
 185 444 228 452 277 452 c 0
 402 452 489 347 489 222 c 0
 489 97 391 -8 267 -8 c 0
 221 -8 182 6 152 29 c 1
 152 -200 l 1
 72 -200 l 1
 72 475 l 6
152 248 m 2
 152 246 l 2
 152 154 176 42 282 42 c 0
 352 42 409 137 409 222 c 0
 409 307 362 402 292 402 c 0
 186 402 152 342 152 248 c 2
EndSplineSet
Validated: 3073
EndChar

StartChar: uni01A9
Encoding: 425 425 643
Width: 508
VWidth: 0
Flags: W
HStem: 0 50<150 480> 650 50<155 460>
LayerCount: 2
Fore
SplineSet
155 650 m 1
 358 354 l 1
 150 50 l 1
 480 50 l 1
 480 0 l 1
 30 0 l 1
 268 354 l 1
 34 700 l 1
 460 700 l 1
 475 650 l 1
 155 650 l 1
EndSplineSet
Validated: 3073
EndChar

StartChar: uni0283
Encoding: 643 643 644
Width: 353
VWidth: 0
Flags: W
HStem: -10 50<36.7483 144.728> 620 50<257.306 342.654>
VStem: 161 80<54.355 604.615>
LayerCount: 2
Fore
SplineSet
241 127 m 2
 241 28 162 -10 92 -10 c 0
 54 -10 17 4 -9 35 c 1
 54 65 l 1
 68 45 88 40 107 40 c 0
 147 40 161 78 161 160 c 2
 161 535 l 2
 161 615 206 670 286 670 c 0
 315 670 338 666 357 659 c 1
 336 605 l 1
 328 615 318 620 301 620 c 0
 261 620 241 597 241 509 c 2
 241 127 l 2
EndSplineSet
Validated: 3073
EndChar

StartChar: uni01B1
Encoding: 433 433 645
Width: 685
VWidth: 0
Flags: W
HStem: -10 50<260.047 421.585> 580 120<242.801 282 399 438.199> 650 50<122 197 484 559>
VStem: 70 85<176.959 436.237> 197 85<582.168 650> 399 85<582.168 650> 526 85<176.959 436.237>
LayerCount: 2
Fore
SplineSet
341 -10 m 0xbe
 213 -10 70 86 70 318 c 0
 70 440 141 551 197 605 c 1
 197 650 l 1
 122 650 l 1
 122 700 l 1xbe
 282 700 l 1
 282 580 l 1
 208 560 155 441 155 318 c 0
 155 132 232 40 341 40 c 0
 449 40 526 132 526 318 c 0
 526 441 473 560 399 580 c 1
 399 700 l 1xde
 559 700 l 1
 559 650 l 1
 484 650 l 1
 484 605 l 1
 540 551 611 440 611 318 c 0
 611 86 469 -10 341 -10 c 0xbe
EndSplineSet
Validated: 3073
EndChar

StartChar: uni028A
Encoding: 650 650 646
Width: 515
VWidth: 0
Flags: W
HStem: -10 50<188.158 327.842> 326 114<198.207 228 288 317.793> 390 50<91 148 368 425>
VStem: 60 80<86.7483 256.527> 148 80<325.859 390> 288 80<325.859 390> 376 80<86.7483 256.527>
LayerCount: 2
Fore
SplineSet
258 -10 m 0xbe
 123 -10 60 90 60 163 c 0
 60 267 122 325 148 344 c 1
 148 390 l 1
 91 390 l 1
 91 440 l 1xbe
 228 440 l 1
 228 326 l 1
 228 326 140 287 140 162 c 0
 140 89 186 40 258 40 c 0
 330 40 376 89 376 162 c 0
 376 287 288 326 288 326 c 1
 288 440 l 1xde
 425 440 l 1
 425 390 l 1
 368 390 l 1
 368 344 l 1
 394 325 456 267 456 163 c 0
 456 90 393 -10 258 -10 c 0xbe
EndSplineSet
Validated: 3073
EndChar

StartChar: uni018F
Encoding: 399 399 652
Width: 685
VWidth: 0
Flags: W
HStem: -10 50<264.783 417.386> 300 50<128 558> 660 50<239.468 421.294>
VStem: 558 87<208.543 300 350 494.247>
LayerCount: 2
Fore
SplineSet
558 300 m 1
 128 300 l 1
 147 116 270 40 334 40 c 0
 425 40 540 116 558 300 c 1
560 350 m 1
 560 560 446 660 337 660 c 0
 253 660 196 622 163 575 c 1
 88 608 l 1
 134 665 216 710 352 710 c 0
 479 710 645 600 645 350 c 0
 645 84 479 -10 334 -10 c 0
 201 -10 40 100 40 350 c 1
 560 350 l 1
EndSplineSet
Validated: 3073
EndChar

StartChar: uni019E
Encoding: 414 414 653
Width: 531
VWidth: 0
Flags: W
HStem: 0 21G<72 152> 400 50<188.149 340.498> 420 20G<72 152>
VStem: 72 80<0 369.252 425 440> 383 80<-199 350.248>
AnchorPoint: "bottom" 264 0 basechar 0
AnchorPoint: "cedilla" 264 0 basechar 0
AnchorPoint: "top" 268 490 basechar 0
LayerCount: 2
Fore
SplineSet
152 353 m 1xd8
 152 0 l 1
 72 0 l 1
 72 440 l 1
 152 440 l 1xb8
 152 425 l 1
 183 441 217 450 254 450 c 0
 394 450 463 382 463 240 c 2
 463 -199 l 1
 383 -199 l 1
 383 228 l 2
 383 368 339 400 269 400 c 0
 224 400 185 382 152 353 c 1xd8
EndSplineSet
Validated: 1051649
EndChar

StartChar: uni0220
Encoding: 544 544 654
Width: 623
VWidth: 0
Flags: W
HStem: 0 21G<72 157> 660 50<226.606 403.091> 680 20G<72 157>
VStem: 72 85<0 610.86 666 700> 462 85<-201 592.719>
LayerCount: 2
Fore
SplineSet
72 0 m 9xd8
 72 700 l 1
 157 700 l 1xb8
 157 666 l 1
 188 682 234 710 307 710 c 0
 447 710 547 642 547 500 c 2
 547 -201 l 17
 462 -201 l 9
 462 488 l 2
 462 628 392 660 322 660 c 0
 250 660 190 623 157 594 c 1
 157 0 l 17
 72 0 l 9xd8
EndSplineSet
Validated: 3073
EndChar

StartChar: uni01A2
Encoding: 418 418 655
Width: 862
VWidth: 0
Flags: W
HStem: -10 50<279.248 428.164> 554 50<621.323 686.632> 660 50<269.011 427.043>
VStem: 50 85<215.477 494.263> 568 85<213.851 492.062> 694 85<-201 548.404>
LayerCount: 2
Fore
SplineSet
779 -201 m 1
 694 -201 l 1
 694 434 l 2
 694 516 693 554 657 554 c 0
 638 554 633 549 619 529 c 1
 640 480 653 421 653 350 c 0
 653 100 508 -10 344 -10 c 0
 211 -10 50 100 50 350 c 0
 50 600 201 710 335 710 c 0
 432 710 526 672 586 588 c 1
 602 599 619 604 642 604 c 0
 712 604 779 566 779 467 c 2
 779 -201 l 1
341 660 m 0
 251 660 135 560 135 350 c 0
 135 130 270 40 350 40 c 0
 448 40 568 140 568 350 c 0
 568 570 446 660 341 660 c 0
EndSplineSet
Validated: 3073
EndChar

StartChar: uni01A3
Encoding: 419 419 656
Width: 680
VWidth: 0
Flags: W
HStem: -10 50<187.536 328.845> 364 50<451.569 516.632> 400 50<197.283 328.652>
VStem: 44 80<112.911 316.52> 394 80<117.779 324.126> 524 85<-200 358.404>
LayerCount: 2
Fore
SplineSet
609 -200 m 1xdc
 524 -200 l 1
 524 244 l 2
 524 326 523 364 487 364 c 0xdc
 468 364 463 359 449 339 c 1
 465 306 474 267 474 220 c 0
 474 66 380 -10 250 -10 c 0
 120 -10 44 80 44 220 c 0
 44 360 150 450 250 450 c 0xbc
 315 450 370 431 410 393 c 1
 427 407 446 414 472 414 c 4
 542 414 609 376 609 277 c 2
 609 -200 l 1xdc
394 220 m 0
 394 326 340 400 265 400 c 0xbc
 190 400 124 330 124 220 c 0
 124 110 170 40 265 40 c 0
 340 40 394 114 394 220 c 0
EndSplineSet
Validated: 3073
EndChar

StartChar: uni01AC
Encoding: 428 428 657
Width: 642
VWidth: 0
Flags: W
HStem: 0 21G<270 355> 448 21G<98 123> 650 50<143.144 270 355 607>
VStem: 20 88<497.138 614.535> 270 85<0 650>
LayerCount: 2
Fore
SplineSet
607 700 m 1
 607 650 l 1
 355 650 l 1
 355 0 l 1
 270 0 l 1
 270 650 l 1
 202 650 l 2
 144 650 108 600 108 556 c 0
 108 512 118 508 131 500 c 1
 118 448 l 1
 78 462 20 486 20 551 c 0
 20 639 96 700 195 700 c 2
 607 700 l 1
EndSplineSet
Validated: 3073
EndChar

StartChar: uni01AD
Encoding: 429 429 658
Width: 327
VWidth: 0
Flags: W
HStem: -10 50<179.674 265.926> 390 50<41 92 172 251> 620 50<188.272 296.252>
VStem: 92 80<45.596 390 440 605.645>
LayerCount: 2
Fore
SplineSet
172 160 m 2
 172 78 173 40 209 40 c 0
 228 40 233 45 247 65 c 1
 310 35 l 1
 284 4 262 -10 224 -10 c 0
 154 -10 92 28 92 127 c 2
 92 390 l 1
 26 390 l 1
 41 440 l 1
 92 440 l 1
 92 533 l 2
 92 632 171 670 241 670 c 0
 279 670 316 656 342 625 c 1
 279 595 l 1
 265 615 245 620 226 620 c 0
 186 620 172 582 172 500 c 2
 172 440 l 1
 251 440 l 1
 251 390 l 1
 172 390 l 1
 172 160 l 2
EndSplineSet
Validated: 3073
EndChar

StartChar: uni01AE
Encoding: 430 430 659
Width: 625
VWidth: 0
Flags: W
HStem: -170 50<372.546 479.252> 650 50<20 270 355 607>
VStem: 270 85<-105.645 650>
LayerCount: 2
Fore
SplineSet
355 0 m 2
 355 -82 369 -120 409 -120 c 0
 428 -120 448 -115 462 -95 c 1
 525 -125 l 1
 499 -156 462 -170 424 -170 c 0
 354 -170 270 -132 270 -33 c 2
 270 650 l 1
 20 650 l 1
 20 700 l 1
 607 700 l 1
 607 650 l 1
 355 650 l 1
 355 0 l 2
EndSplineSet
Validated: 3073
EndChar

StartChar: uni0288
Encoding: 648 648 660
Width: 277
VWidth: 0
Flags: W
HStem: -170 50<188.272 296.252> 390 50<41 92 172 251>
VStem: 92 80<-105.645 390 440 585>
LayerCount: 2
Fore
SplineSet
92 390 m 1
 26 390 l 1
 41 440 l 1
 92 440 l 1
 92 585 l 1
 172 600 l 1
 172 440 l 1
 251 440 l 1
 251 390 l 1
 172 390 l 1
 172 0 l 2
 172 -82 186 -120 226 -120 c 0
 245 -120 265 -115 279 -95 c 1
 342 -125 l 1
 316 -156 279 -170 241 -170 c 0
 171 -170 92 -132 92 -33 c 2
 92 390 l 1
EndSplineSet
Validated: 3073
EndChar

StartChar: uni01B5
Encoding: 437 437 661
Width: 508
VWidth: 0
Flags: W
HStem: 0 50<139 480> 340 50<120 206 315 397> 650 50<50 366>
LayerCount: 2
Fore
SplineSet
366 650 m 1
 35 650 l 1
 50 700 l 1
 476 700 l 1
 315 390 l 1
 397 390 l 5
 397 340 l 5
 289 340 l 1
 139 50 l 1
 480 50 l 1
 480 0 l 1
 30 0 l 1
 206 340 l 1
 120 340 l 5
 120 390 l 5
 232 390 l 1
 366 650 l 1
EndSplineSet
Validated: 3073
EndChar

StartChar: uni01B6
Encoding: 438 438 662
Width: 420
VWidth: 0
Flags: W
HStem: 0 50<146 402> 203 50<95 158 278 332> 390 50<36 280>
LayerCount: 2
Fore
SplineSet
280 390 m 1
 21 390 l 1
 36 440 l 1
 399 440 l 1
 278 253 l 1
 332 253 l 5
 332 203 l 5
 245 203 l 1
 146 50 l 1
 402 50 l 1
 402 0 l 1
 26 0 l 1
 158 203 l 1
 95 203 l 5
 95 253 l 5
 191 253 l 1
 280 390 l 1
EndSplineSet
Validated: 3073
EndChar

StartChar: uni01C2
Encoding: 450 450 665
Width: 346
VWidth: 0
Flags: W
HStem: 0 21G<148 203> 280 50<40 148 203 306> 390 50<40 148 203 306> 680 20G<148 203>
VStem: 148 55<0 280 330 390 440 700>
LayerCount: 2
Fore
SplineSet
148 280 m 1
 40 280 l 1
 40 330 l 1
 148 330 l 1
 148 390 l 1
 40 390 l 1
 40 440 l 1
 148 440 l 1
 148 700 l 1
 203 700 l 1
 203 440 l 1
 306 440 l 1
 306 390 l 1
 203 390 l 1
 203 330 l 1
 306 330 l 1
 306 280 l 1
 203 280 l 1
 203 0 l 1
 148 0 l 1
 148 280 l 1
EndSplineSet
Validated: 3073
EndChar

StartChar: uni0222
Encoding: 546 546 699
Width: 550
VWidth: 0
Flags: W
HStem: -10 50<196.573 361.892> 660 50<195.893 242 312 358.5>
VStem: 45 85<105.076 263.271> 69 85<480.671 616.374> 405 85<463.556 604.81> 420 85<95.6097 246.23>
LayerCount: 2
Fore
SplineSet
312 710 m 1xd8
 404 710 490 630 490 530 c 0xd8
 490 436 431 400 360 374 c 1
 437 334 505 281 505 178 c 0
 505 70 413 -10 268 -10 c 0
 135 -10 45 78 45 178 c 0xe4
 45 287 117 332 196 365 c 1
 127 400 69 447 69 538 c 0
 69 626 150 710 242 710 c 1
 242 660 l 1
 196 660 154 606 154 538 c 0
 154 472 221 440 296 405 c 1
 357 431 405 463 405 530 c 0
 405 596 356 660 312 660 c 1
 312 710 l 1xd8
255 338 m 1
 187 312 130 273 130 178 c 0
 130 102 191 40 275 40 c 0
 371 40 420 92 420 178 c 0xe4
 420 265 339 300 255 338 c 1
EndSplineSet
Validated: 3073
EndChar

StartChar: uni0223
Encoding: 547 547 700
Width: 490
VWidth: 0
Flags: W
HStem: -10 50<182.451 309.149> 550 49<160.027 227.424> 600 50<272 324.509>
VStem: 45 85<98.6551 256.393> 69 85<436.755 547.498> 345 85<442.82 579.538> 360 85<94.2403 251.049>
LayerCount: 2
Fore
SplineSet
272 650 m 1xec
 364 650 430 608 430 508 c 0xec
 430 429 378 393 318 364 c 1
 384 332 445 285 445 178 c 0
 445 50 376 -10 238 -10 c 0
 124 -10 45 50 45 178 c 0xf2
 45 271 107 315 174 349 c 1
 117 376 69 412 69 488 c 0
 69 559 121 599 188 599 c 0
 204 599 220 597 237 592 c 1
 224 544 l 1
 211 548 200 550 190 550 c 0
 167 550 154 536 154 488 c 0
 154 436 200 413 256 390 c 1
 306 417 345 450 345 508 c 0
 345 574 316 600 272 600 c 1
 272 650 l 1xec
232 323 m 1
 176 294 130 256 130 178 c 0
 130 102 180 40 245 40 c 0
 310 40 360 92 360 178 c 0xf2
 360 262 298 294 232 323 c 1
EndSplineSet
Validated: 3073
EndChar

StartChar: uni0241
Encoding: 577 577 711
Width: 456
VWidth: 0
Flags: W
HStem: 0 21G<110 190> 272 48<190 259.071> 620 50<120.583 274.327>
VStem: 110 80<0 272> 331 80<386.848 562.383>
LayerCount: 2
Fore
SplineSet
190 0 m 1
 110 0 l 1
 110 320 l 1
 168 320 l 2
 243 320 331 356 331 466 c 0
 331 576 280 620 185 620 c 0
 134 620 113 597 90 560 c 1
 30 583 l 1
 70 634 118 670 200 670 c 0
 330 670 411 606 411 466 c 0
 411 340 300 272 190 272 c 1
 190 0 l 1
EndSplineSet
Validated: 3073
EndChar

StartChar: uni0242
Encoding: 578 578 712
Width: 426
VWidth: 0
Flags: W
HStem: 0 120<110 188.762> 72 48<190 247.555> 400 50<126.717 259.189>
VStem: 110 80<0 72> 306 80<177.099 349.93>
LayerCount: 2
Fore
SplineSet
190 0 m 1xb8
 110 0 l 1
 110 120 l 1
 150 120 l 2xb8
 225 120 306 146 306 256 c 0
 306 366 252 400 185 400 c 0
 134 400 113 367 90 330 c 1
 30 353 l 1
 70 404 118 450 200 450 c 0
 300 450 386 396 386 256 c 0
 386 130 276 72 190 72 c 1x78
 190 0 l 1xb8
EndSplineSet
Validated: 3073
EndChar

StartChar: uni0251
Encoding: 593 593 713
Width: 550
VWidth: 0
Flags: W
HStem: -10 50<204.228 359.046 449.305 507.843> 400 50<197.283 324.056> 420 20G<358 438>
VStem: 44 80<123.48 316.52> 358 80<65.5632 366.264 420 440> 508 34<44.4025 64>
LayerCount: 2
Fore
SplineSet
438 440 m 1xbc
 438 135 l 2
 438 71 452 40 475 40 c 0
 491 40 508 49 508 64 c 1
 542 64 l 1
 542 25 505 -10 462 -10 c 0
 435 -10 410 2 391 21 c 1
 357 1 317 -10 270 -10 c 0
 140 -10 44 80 44 220 c 0
 44 360 150 450 250 450 c 0xdc
 292 450 328 439 358 420 c 1
 358 440 l 1
 438 440 l 1xbc
358 333 m 1
 339 373 308 400 265 400 c 0
 190 400 124 330 124 220 c 0
 124 110 190 40 285 40 c 0
 317 40 343 49 364 65 c 1
 360 77 358 90 358 104 c 2
 358 333 l 1
EndSplineSet
Validated: 3073
EndChar

StartChar: uni2C6D
Encoding: 11373 11373 714
Width: 706
VWidth: 0
Flags: W
HStem: -10 50<292.784 476.729 566.969 652.926> 660 50<271.495 456.797> 680 20G<474 559>
VStem: 50 85<220.082 494.263> 474 85<66.7991 640.411 693 700>
LayerCount: 2
Fore
SplineSet
474 700 m 1xb8
 559 700 l 1xb8
 559 160 l 2
 559 78 560 40 596 40 c 0
 615 40 620 45 634 65 c 1
 697 35 l 1
 671 4 649 -10 611 -10 c 0
 574 -10 539 0 513 24 c 1
 470 3 419 -10 362 -10 c 0
 232 -10 50 100 50 350 c 0
 50 600 212 710 343 710 c 0xd8
 394 710 437 704 474 693 c 1
 474 700 l 1xb8
474 629 m 1
 443 648 405 660 358 660 c 0xd8
 242 660 135 560 135 350 c 0
 135 130 282 40 377 40 c 0
 418 40 455 49 485 66 c 1
 478 83 474 103 474 127 c 2
 474 629 l 1
EndSplineSet
Validated: 3073
EndChar

StartChar: uni026F
Encoding: 623 623 715
Width: 784
VWidth: 0
Flags: W
HStem: -10 50<187.07 326.926 463.95 608.709> 0 21G<636 716> 420 20G<72 152 354 434 636 716>
VStem: 72 80<85.309 440> 354 80<72.5178 440> 636 80<0 13 65.7344 440>
CounterMasks: 1 1c
LayerCount: 2
Fore
SplineSet
636 84 m 1xbc
 636 440 l 1
 716 440 l 1
 716 0 l 1
 636 0 l 1x7c
 636 13 l 1
 610 -2 584 -10 549 -10 c 0
 479 -10 429 7 398 42 c 1
 362 14 306 -10 264 -10 c 0
 142 -10 72 58 72 200 c 2
 72 440 l 1
 152 440 l 1
 152 196 l 2
 152 63 195 40 249 40 c 0
 289 40 334 56 354 89 c 1
 354 440 l 1
 434 440 l 1
 434 196 l 2
 434 63 464 40 534 40 c 0
 577 40 608 57 636 84 c 1xbc
EndSplineSet
Validated: 3073
EndChar

StartChar: uni019C
Encoding: 412 412 716
Width: 914
VWidth: 0
Flags: W
HStem: -10 50<211.736 354.443 544.291 677.004> 0 21G<747 832> 640 20G<84 169 417 502 747 832>
VStem: 84 85<88.4631 660> 417 85<104.994 660> 747 85<0 50 111.33 660>
LayerCount: 2
Fore
SplineSet
832 660 m 1xbc
 832 0 l 1
 747 0 l 1x7c
 747 50 l 1
 730 26 700 -10 627 -10 c 0
 530 -10 487 14 453 62 c 1
 407 8 339 -10 294 -10 c 0
 154 -10 84 58 84 200 c 2
 84 660 l 1
 169 660 l 1
 169 212 l 2
 169 76 209 40 279 40 c 0
 351 41 417 84 417 200 c 2
 417 660 l 1
 502 660 l 1
 502 212 l 2
 502 76 542 40 612 40 c 0
 684 40 732 112 747 154 c 1
 747 660 l 1
 832 660 l 1xbc
EndSplineSet
Validated: 3073
EndChar

StartChar: uni0271
Encoding: 625 625 717
Width: 784
VWidth: 0
Flags: W
HStem: -170 50<511.748 619.728> 0 21G<72 152 354 434> 400 50<179.291 324.05 461.074 600.93> 420 20G<72 152>
VStem: 72 80<0 374.266 427 440> 354 80<0 367.482> 636 80<-105.645 354.691>
CounterMasks: 1 0e
LayerCount: 2
Fore
SplineSet
716 -33 m 18xee
 716 -132 637 -170 567 -170 c 0
 529 -170 492 -156 466 -125 c 1
 529 -95 l 1
 543 -115 563 -120 582 -120 c 0
 622 -120 636 -82 636 0 c 10
 636 244 l 2
 636 377 593 400 539 400 c 0
 499 400 454 384 434 351 c 1
 434 0 l 1
 354 0 l 1
 354 244 l 2
 354 377 324 400 254 400 c 0xee
 211 400 180 383 152 356 c 1
 152 0 l 1
 72 0 l 1
 72 440 l 1
 152 440 l 1xde
 152 427 l 1
 178 442 204 450 239 450 c 0
 309 450 359 433 390 398 c 1
 426 426 482 450 524 450 c 0
 646 450 716 382 716 240 c 2
 716 -33 l 18xee
EndSplineSet
Validated: 3073
EndChar

StartChar: uni2C6E
Encoding: 11374 11374 718
Width: 794
VWidth: 0
Flags: W
HStem: -170 50<501.748 608.454> 0 21G<85 170> 680 20G<85 179.325 616.675 711>
VStem: 85 85<0 536> 626 85<-105.645 536>
LayerCount: 2
Fore
SplineSet
711 -33 m 2
 711 -132 627 -170 557 -170 c 0
 519 -170 482 -156 456 -125 c 1
 519 -95 l 1
 533 -115 553 -120 572 -120 c 0
 612 -120 626 -82 626 0 c 2
 626 536 l 1
 398 50 l 1
 170 536 l 1
 170 0 l 1
 85 0 l 1
 85 700 l 1
 170 700 l 1
 398 211 l 1
 626 700 l 1
 711 700 l 1
 711 -33 l 2
EndSplineSet
Validated: 3073
EndChar

StartChar: uni027D
Encoding: 637 637 719
Width: 331
VWidth: 0
Flags: W
HStem: -170 50<168.272 276.252> 400 50<173.591 315.813> 420 20G<72 152>
VStem: 72 80<-105.645 377.802 427 440>
LayerCount: 2
Fore
SplineSet
72 440 m 1xb0
 152 440 l 1xb0
 152 427 l 1
 177 442 201 450 236 450 c 0
 273 450 303 445 328 436 c 1
 328 362 l 1
 313 391 280 400 243 400 c 0xd0
 201 400 176 384 152 359 c 1
 152 0 l 2
 152 -82 166 -120 206 -120 c 0
 225 -120 245 -115 259 -95 c 1
 322 -125 l 1
 296 -156 259 -170 221 -170 c 0
 151 -170 72 -132 72 -33 c 2
 72 440 l 1xb0
EndSplineSet
Validated: 3073
EndChar

StartChar: uni0244
Encoding: 580 580 720
Width: 685
VWidth: 0
Flags: W
HStem: -10 50<263.289 426.451> 340 50<28 76 161 524 609 657> 680 20G<76 161 524 609>
VStem: 76 85<160.097 340 390 700> 524 85<160.097 340 390 700>
LayerCount: 2
Fore
SplineSet
28 340 m 1
 28 390 l 1
 76 390 l 1
 76 700 l 1
 161 700 l 1
 161 390 l 1
 524 390 l 1
 524 700 l 1
 609 700 l 1
 609 390 l 1
 657 390 l 1
 657 340 l 1
 609 340 l 1
 609 298 l 2
 609 48 484 -10 340 -10 c 0
 234 -10 76 48 76 298 c 2
 76 340 l 1
 28 340 l 1
524 340 m 1
 161 340 l 1
 161 298 l 2
 161 78 278 40 346 40 c 0
 422 40 524 88 524 298 c 2
 524 340 l 1
EndSplineSet
Validated: 3073
EndChar

StartChar: uni0289
Encoding: 649 649 721
Width: 521
VWidth: 0
Flags: W
HStem: -10 50<203.312 353.236> 0 21G<381 461> 203 50<33 70 150 381 461 498> 420 20G<70 150 381 461>
VStem: 70 80<99.8354 203 253 440> 381 80<0 16 65.7344 203 253 440>
LayerCount: 2
Fore
SplineSet
33 203 m 1xbc
 33 253 l 1
 70 253 l 1
 70 440 l 1
 150 440 l 1
 150 253 l 1
 381 253 l 1
 381 440 l 1
 461 440 l 1
 461 253 l 1
 498 253 l 1
 498 203 l 1
 461 203 l 1
 461 0 l 1
 381 0 l 1x7c
 381 16 l 1
 345 -1 302 -10 264 -10 c 0
 109 -10 70 75 70 203 c 1
 33 203 l 1xbc
150 203 m 1
 152 71 211 40 279 40 c 0xbc
 322 40 353 57 381 84 c 1
 381 203 l 1
 150 203 l 1
EndSplineSet
Validated: 3073
EndChar

StartChar: uni028C
Encoding: 652 652 722
Width: 415
VWidth: 0
Flags: W
HStem: 0 21G<9 96.2941 328.765 409> 420 20G<161.727 256.273>
AnchorPoint: "bottom" 207 0 basechar 0
AnchorPoint: "top" 211 490 basechar 0
LayerCount: 2
Fore
SplineSet
169 440 m 1
 249 440 l 1
 409 0 l 1
 336 0 l 1
 213 340 l 1
 89 0 l 1
 9 0 l 1
 169 440 l 1
EndSplineSet
Validated: 1051649
EndChar

StartChar: uni0245
Encoding: 581 581 723
Width: 634
VWidth: 0
Flags: W
HStem: 0 21G<19 106.288 529.712 617> 680 20G<266.714 369.286>
AnchorPoint: "bottom" 319 0 basechar 0
AnchorPoint: "top" 318 700 basechar 0
LayerCount: 2
Fore
SplineSet
537 0 m 1
 318 601 l 1
 99 0 l 1
 19 0 l 1
 274 700 l 1
 362 700 l 1
 617 0 l 1
 537 0 l 1
EndSplineSet
Validated: 1051649
EndChar

StartChar: uni2C64
Encoding: 11364 11364 725
Width: 546
VWidth: 0
Flags: W
HStem: -170 50<187.546 294.252> 0 21G<440 522> 320 50<170 300.073> 650 50<170 369.44>
VStem: 85 85<-105.645 320 370 650> 422 85<426.24 594.036> 440 82<0 98.4018>
LayerCount: 2
Fore
SplineSet
85 -33 m 2xfa
 85 700 l 1
 290 700 l 2
 450 700 507 590 507 510 c 0xfc
 507 446 469 362 372 332 c 1
 437 267 522 94 522 0 c 1
 440 0 l 1
 440 93 353 264 279 320 c 1
 170 320 l 1
 170 0 l 2
 170 -82 184 -120 224 -120 c 0
 243 -120 263 -115 277 -95 c 1
 340 -125 l 1
 314 -156 277 -170 239 -170 c 0
 169 -170 85 -132 85 -33 c 2xfa
170 650 m 1
 170 370 l 1
 305 370 l 2
 390 370 422 450 422 510 c 0
 422 570 390 650 305 650 c 2
 170 650 l 1
EndSplineSet
Validated: 3073
EndChar

StartChar: uni048A
Encoding: 1162 1162 742
Width: 753
VWidth: 0
Flags: W
HStem: 0 50<604 630> 680 20G<85 170 519 604> 700 57<285.316 404.684>
VStem: 85 85<0 30 151 700> 232 38<776.892 794.842> 420 38<776.892 794.842> 519 85<50 548 670 700>
LayerCount: 2
Fore
SplineSet
519 700 m 1
 604 700 l 1
 604 50 l 5
 724 50 l 5
 650 -124 l 5
 604 -124 l 5
 630 0 l 5
 519 0 l 5
 519 548 l 1
 170 30 l 1
 170 0 l 1
 85 0 l 1
 85 700 l 1
 170 700 l 1
 170 151 l 1
 519 670 l 1
 519 700 l 1
345 757 m 0
 382 757 417 781 420 803 c 1
 458 793 l 1
 452 743 403 700 345 700 c 0
 287 700 238 743 232 793 c 1
 270 803 l 1
 273 781 308 757 345 757 c 0
EndSplineSet
Validated: 3073
EndChar

StartChar: uni048B
Encoding: 1163 1163 743
Width: 593
VWidth: 0
Flags: W
HStem: 0 50<456 470> 420 20G<60 140 361.654 456> 530 57<197.316 316.684>
VStem: 60 80<111 440> 144 38<606.892 624.842> 332 38<606.892 624.842> 376 80<50 326>
LayerCount: 2
Fore
SplineSet
60 440 m 1
 140 440 l 1
 140 111 l 1
 376 440 l 1
 456 440 l 1
 456 50 l 5
 564 50 l 5
 490 -124 l 5
 444 -124 l 5
 470 0 l 5
 376 0 l 5
 376 326 l 1
 140 0 l 1
 60 0 l 1
 60 440 l 1
257 587 m 0
 294 587 329 611 332 633 c 1
 370 623 l 1
 364 573 315 530 257 530 c 0
 199 530 150 573 144 623 c 1
 182 633 l 1
 185 611 220 587 257 587 c 0
EndSplineSet
Validated: 3073
EndChar

StartChar: uni048C
Encoding: 1164 1164 744
Width: 572
VWidth: 0
Flags: W
HStem: 0 50<210 398.29> 390 50<210 399.985> 530 50<40 125 210 320> 680 20G<125 210>
VStem: 125 85<50 390 440 530 580 700> 462 85<126.983 311.333>
LayerCount: 2
Fore
SplineSet
547 223 m 0
 547 123 483 0 325 0 c 2
 125 0 l 1
 125 530 l 1
 40 530 l 5
 40 580 l 5
 125 580 l 1
 125 700 l 1
 210 700 l 1
 210 580 l 1
 320 580 l 5
 320 530 l 5
 210 530 l 1
 210 440 l 1
 323 440 l 2
 460 440 547 325 547 223 c 0
210 390 m 1
 210 50 l 1
 340 50 l 2
 425 50 462 153 462 223 c 0
 462 293 425 390 340 390 c 2
 210 390 l 1
EndSplineSet
Validated: 3073
EndChar

StartChar: uni048D
Encoding: 1165 1165 745
Width: 511
VWidth: 0
Flags: W
HStem: 0 50<199 372.951> 215 50<199 371.583> 318 50<25 119 199 305> 420 20G<119 199>
VStem: 119 80<50 215 265 318 368 440> 399 80<73.795 188.21>
LayerCount: 2
Fore
SplineSet
479 129 m 0
 479 68 444 0 286 0 c 2
 119 0 l 1
 119 318 l 1
 25 318 l 5
 25 368 l 5
 119 368 l 1
 119 440 l 1
 199 440 l 1
 199 368 l 1
 305 368 l 5
 305 318 l 5
 199 318 l 1
 199 265 l 1
 284 265 l 2
 422 265 479 226 479 129 c 0
199 215 m 1
 199 50 l 1
 306 50 l 2
 369 50 399 81 399 129 c 0
 399 177 373 215 296 215 c 2
 199 215 l 1
EndSplineSet
Validated: 3073
EndChar

StartChar: uni048E
Encoding: 1166 1166 746
Width: 532
VWidth: 0
Flags: W
HStem: 0 21G<85 170> 320 50<170 323.719> 650 50<170 369.44>
VStem: 85 85<0 320 370 650> 422 85<426.435 594.036>
LayerCount: 2
Fore
SplineSet
170 650 m 1
 170 370 l 1
 305 370 l 2
 312 370 318 370 324 371 c 1
 272 425 l 1
 326 470 l 1
 378 397 l 1
 409 426 422 472 422 510 c 0
 422 570 390 650 305 650 c 2
 170 650 l 1
170 320 m 1
 170 0 l 1
 85 0 l 1
 85 700 l 1
 290 700 l 2
 450 700 507 590 507 510 c 0
 507 456 480 387 413 349 c 1
 443 307 l 1
 412 281 l 1
 365 330 l 1
 343 323 318 320 290 320 c 2
 170 320 l 1
EndSplineSet
Validated: 3073
EndChar

StartChar: uni048F
Encoding: 1167 1167 747
Width: 531
VWidth: 0
Flags: W
HStem: -8 50<214.169 337.841> 402 50<205.627 344.026> 422 20G<72 152>
VStem: 72 80<-200 29 117.037 346.863 423 442> 409 80<127.085 322.168>
LayerCount: 2
Fore
SplineSet
152 248 m 2xd8
 152 246 l 2
 152 154 176 42 282 42 c 0
 303 42 322 51 340 65 c 1
 284 123 l 1
 338 168 l 1
 379 111 l 1
 398 144 409 184 409 222 c 0
 409 307 362 402 292 402 c 0
 186 402 152 342 152 248 c 2xd8
152 29 m 1
 152 -200 l 1
 72 -200 l 1
 72 442 l 1
 152 442 l 1xb8
 152 423 l 1
 185 444 228 452 277 452 c 0
 402 452 489 347 489 222 c 0
 489 157 462 97 419 55 c 1
 455 5 l 1
 424 -21 l 1
 380 24 l 1
 347 4 309 -8 267 -8 c 0
 221 -8 182 6 152 29 c 1
EndSplineSet
Validated: 3073
EndChar

StartChar: uni0492
Encoding: 1170 1170 748
Width: 555
VWidth: 0
Flags: W
HStem: 0 21G<133 218> 390 50<40 133 218 320> 650 50<218 537>
VStem: 133 85<0 390 440 650>
LayerCount: 2
Fore
SplineSet
40 390 m 5
 40 440 l 5
 133 440 l 1
 133 700 l 1
 537 700 l 1
 537 650 l 1
 218 650 l 1
 218 440 l 1
 320 440 l 5
 320 390 l 5
 218 390 l 1
 218 0 l 1
 133 0 l 1
 133 390 l 1
 40 390 l 5
EndSplineSet
Validated: 3073
EndChar

StartChar: uni0493
Encoding: 1171 1171 749
Width: 436
VWidth: 0
Flags: W
HStem: 0 21G<121 201> 234 50<25 121 201 305> 390 50<201 410>
VStem: 121 80<0 234 284 390>
LayerCount: 2
Fore
SplineSet
25 234 m 1
 25 284 l 1
 121 284 l 1
 121 440 l 1
 410 440 l 1
 410 390 l 1
 201 390 l 1
 201 284 l 1
 305 284 l 1
 305 234 l 1
 201 234 l 1
 201 0 l 1
 121 0 l 1
 121 234 l 1
 25 234 l 1
EndSplineSet
Validated: 3073
EndChar

StartChar: uni0494
Encoding: 1172 1172 750
Width: 570
VWidth: 0
Flags: W
HStem: -106 50<286.352 385.653> -29 20G<244.769 275> 0 21G<85 170> 400 50<207.643 368.846> 650 50<170 489>
VStem: 85 85<0 369.252 425 650> 417 85<-3.3799 347.06>
LayerCount: 2
Fore
SplineSet
170 353 m 1
 170 0 l 1
 85 0 l 1
 85 700 l 1
 489 700 l 1
 489 650 l 1
 170 650 l 1
 170 425 l 1
 201 441 243 450 280 450 c 4
 420 450 502 382 502 240 c 6
 502 142 l 6
 502 -58 422 -106 332 -106 c 4
 296 -106 244 -89 214 -61 c 5
 264 -9 l 5
 286 -41 312 -56 347 -56 c 4
 386 -56 417 -12 417 120 c 6
 417 228 l 6
 417 368 365 400 295 400 c 4
 250 400 203 382 170 353 c 1
EndSplineSet
Validated: 3073
EndChar

StartChar: uni0495
Encoding: 1173 1173 751
Width: 465
VWidth: 0
Flags: W
HStem: -115 50<235.954 322.863> 0 21G<60 140> 238 50<171.768 311.132> 390 50<140 349>
VStem: 60 80<0 209.256 264 390> 341 80<-38.2696 203.6>
LayerCount: 2
Fore
SplineSet
341 66 m 4
 341 206 317 238 247 238 c 4
 202 238 173 221 140 192 c 5
 140 0 l 1
 60 0 l 1
 60 440 l 1
 349 440 l 1
 349 390 l 1
 140 390 l 1
 140 264 l 5
 171 280 195 288 232 288 c 4
 372 288 421 220 421 78 c 4
 421 -39 376 -115 276 -115 c 4
 233 -115 189 -100 168 -70 c 5
 218 -18 l 5
 238 -54 256 -65 291 -65 c 4
 330 -65 341 -4 341 66 c 4
EndSplineSet
Validated: 3073
EndChar

StartChar: uni0496
Encoding: 1174 1174 752
Width: 877
VWidth: 0
Flags: W
HStem: 0 50<720.311 742.834> 650 50<52 92.2905 696.709 737>
VStem: 42 85<0 46.9383> 352 85<0 325 380 700> 764 48<-154 -18.668>
LayerCount: 2
Fore
SplineSet
437 325 m 1
 437 0 l 1
 352 0 l 1
 352 325 l 1
 269 292 127 19 127 0 c 1
 42 0 l 1
 42 33 161 268 286 350 c 1
 165 428 134 650 52 650 c 1
 52 700 l 1
 235 700 271 427 352 380 c 1
 352 700 l 1
 437 700 l 1
 437 380 l 1
 518 427 554 700 737 700 c 1
 737 650 l 1
 655 650 624 428 503 350 c 1
 599 287 693 132 730 50 c 5
 812 50 l 5
 812 -154 l 5
 764 -154 l 5
 764 -40 732 0 732 0 c 5
 662 0 l 1
 662 19 520 292 437 325 c 1
EndSplineSet
Validated: 3073
EndChar

StartChar: uni0497
Encoding: 1175 1175 753
Width: 694
VWidth: 0
Flags: W
HStem: 0 21G<39 124 274 354> 390 50<34 87.0855 540.914 594>
VStem: 39 85<0 54.4141> 274 80<0 187.622 239 440> 602 48<-154 -18.668>
LayerCount: 2
Fore
SplineSet
354 185 m 1
 354 0 l 1
 274 0 l 1
 274 185 l 1
 263 186 252 187 242 190 c 1
 187 142 124 38 124 0 c 1
 39 0 l 1
 39 28 103 143 184 221 c 1
 115 280 122 390 34 390 c 1
 34 440 l 1
 216 440 203 270 274 239 c 1
 274 440 l 1
 354 440 l 1
 354 239 l 1
 425 270 412 440 594 440 c 1
 594 390 l 1
 506 390 513 280 444 221 c 1
 499 168 546 98 571 50 c 1
 650 50 l 1
 650 -154 l 5
 602 -154 l 5
 602 -40 570 0 570 0 c 5
 504 0 l 1
 504 38 441 142 386 190 c 1
 376 187 365 186 354 185 c 1
EndSplineSet
Validated: 3073
EndChar

StartChar: uni0498
Encoding: 1176 1176 754
Width: 526
VWidth: 0
Flags: W
HStem: -176 24<188 273.367> -10 50<163.188 233 287 318.47> 390 50<182 312.801> 660 50<168.408 329.964>
VStem: 296 62<-140.05 -71.7033> 367 85<488.063 622.86> 397 85<128.592 303.601>
LayerCount: 2
Fore
SplineSet
114 139 m 1xfa
 129 69 170 40 256 40 c 0
 354 40 397 155 397 215 c 0xfa
 397 275 357 390 247 390 c 2
 182 390 l 1
 182 440 l 1
 217 440 l 2
 327 440 367 495 367 555 c 0
 367 615 329 660 266 660 c 0
 192 660 145 642 137 585 c 1
 63 605 l 1
 101 676 182 710 251 710 c 0
 383 710 452 635 452 555 c 0xfc
 452 502 427 446 354 415 c 1
 451 370 482 275 482 215 c 0
 482 142 428 17 287 -6 c 1
 284 -34 l 1
 324 -41 358 -63 358 -102 c 0
 358 -142 300 -176 188 -176 c 1
 188 -152 l 1
 254 -152 296 -144 296 -108 c 0
 296 -78 278 -66 224 -60 c 1
 233 -10 l 1
 130 -7 67 48 40 119 c 1
 114 139 l 1xfa
EndSplineSet
Validated: 3073
EndChar

StartChar: uni0499
Encoding: 1177 1177 755
Width: 438
VWidth: 0
Flags: W
HStem: -176 24<132 217.368> -9 49<126.536 177 231 281.204> 220 50<144 265> 400 50<127.611 274.477>
VStem: 240 62<-140.05 -71.7033> 292 80<294.771 382.112> 316 80<71.0567 184.923>
LayerCount: 2
Fore
SplineSet
89 99 m 1xfa
 105 64 159 40 211 40 c 0
 289 40 316 89 316 125 c 0xfa
 316 190 267 220 179 220 c 2
 144 220 l 1
 144 270 l 1
 172 270 l 2
 260 270 292 303 292 339 c 0
 292 375 261 400 211 400 c 0
 152 400 114 381 108 347 c 1
 49 359 l 1
 65 404 109 450 199 450 c 0
 322 450 372 404 372 339 c 0xf4
 372 311 352 275 305 250 c 1
 370 224 396 176 396 125 c 0
 396 52 349 -1 231 -9 c 1
 228 -34 l 1
 268 -41 302 -63 302 -102 c 0
 302 -142 244 -176 132 -176 c 1
 132 -152 l 1
 198 -152 240 -144 240 -108 c 0
 240 -78 222 -66 168 -60 c 1
 177 -9 l 1
 103 -1 51 48 30 87 c 1
 89 99 l 1xfa
EndSplineSet
Validated: 3073
EndChar

StartChar: uni049A
Encoding: 1178 1178 756
Width: 727
VWidth: 0
Flags: W
HStem: 0 50<532.64 592.834> 680 20G<85 170 472.222 590>
VStem: 85 85<0 229 340 700> 614 48<-154 -18.668>
LayerCount: 2
Fore
SplineSet
614 -154 m 5
 614 -40 582 0 582 0 c 5
 354 0 357 313 272 344 c 1
 170 229 l 1
 170 0 l 1
 85 0 l 1
 85 700 l 1
 170 700 l 1
 170 340 l 1
 490 700 l 1
 590 700 l 1
 316 393 l 1
 455 333 448 50 582 50 c 6
 662 50 l 5
 662 -154 l 5
 614 -154 l 5
EndSplineSet
Validated: 3073
EndChar

StartChar: uni049B
Encoding: 1179 1179 757
Width: 534
VWidth: 0
Flags: W
HStem: 0 50<407 420.834> 420 20G<72 152 318.222 428>
VStem: 72 80<0 131 233 440> 442 48<-154 -18.668>
LayerCount: 2
Fore
SplineSet
152 131 m 1
 152 0 l 1
 72 0 l 1
 72 440 l 1
 152 440 l 1
 152 233 l 1
 336 440 l 1
 428 440 l 1
 254 245 l 1
 407 50 l 1
 490 50 l 1
 490 -154 l 1
 442 -154 l 1
 442 -40 410 0 410 0 c 1
 360 0 l 1
 207 193 l 1
 152 131 l 1
EndSplineSet
Validated: 3073
EndChar

StartChar: uni049C
Encoding: 1180 1180 758
Width: 663
VWidth: 0
Flags: W
HStem: 0 58<590.593 640> 350 58<170 226> 680 20G<85 170 460.5 648>
VStem: 85 85<0 350 408 700> 226 56<222 350 418 530>
LayerCount: 2
Fore
SplineSet
170 0 m 1
 85 0 l 1
 85 700 l 1
 170 700 l 1
 170 408 l 1
 226 408 l 1
 226 530 l 5
 282 530 l 5
 282 418 l 1
 315 439 373 504 548 700 c 1
 648 700 l 1
 374 393 l 1
 513 333 506 58 640 58 c 1
 640 0 l 1
 412 0 413 350 301 350 c 2
 282 350 l 1
 282 222 l 5
 226 222 l 5
 226 350 l 1
 170 350 l 1
 170 0 l 1
EndSplineSet
Validated: 3073
EndChar

StartChar: uni049D
Encoding: 1181 1181 759
Width: 547
VWidth: 0
Flags: W
HStem: 0 21G<72 152 412.091 514> 220 50<152 188 244 253> 420 20G<72 152 386.706 496>
VStem: 72 80<0 220 270 440> 188 56<90 220 270 398>
LayerCount: 2
Fore
SplineSet
152 0 m 1
 72 0 l 1
 72 440 l 1
 152 440 l 1
 152 270 l 1
 188 270 l 1
 188 398 l 1
 244 398 l 1
 244 270 l 1
 257 270 l 1
 404 440 l 1
 496 440 l 1
 322 245 l 1
 514 0 l 1
 428 0 l 1
 253 220 l 1
 244 220 l 1
 244 90 l 1
 188 90 l 1
 188 220 l 1
 152 220 l 1
 152 0 l 1
EndSplineSet
Validated: 3073
EndChar

StartChar: uni049E
Encoding: 1182 1182 760
Width: 643
VWidth: 0
Flags: W
HStem: 0 58<570.64 620> 530 50<30 123 208 310> 680 20G<123 208 510.222 628>
VStem: 123 85<0 229 340 530 580 700>
LayerCount: 2
Fore
SplineSet
30 530 m 5
 30 580 l 5
 123 580 l 1
 123 700 l 1
 208 700 l 1
 208 580 l 1
 310 580 l 5
 310 530 l 5
 208 530 l 1
 208 340 l 1
 528 700 l 1
 628 700 l 1
 354 393 l 1
 493 333 486 58 620 58 c 1
 620 0 l 1
 392 0 395 313 310 344 c 1
 208 229 l 1
 208 0 l 1
 123 0 l 1
 123 530 l 1
 30 530 l 5
EndSplineSet
Validated: 3073
EndChar

StartChar: uni049F
Encoding: 1183 1183 761
Width: 537
VWidth: 0
Flags: W
HStem: 0 21G<130 210 402.145 504> 420 20G<376.222 486> 480 50<30 130 210 310> 640 20G<130 210>
VStem: 130 80<0 131 233 480 530 660>
LayerCount: 2
Fore
SplineSet
310 530 m 1
 310 480 l 1
 210 480 l 1
 210 233 l 1
 394 440 l 1
 486 440 l 1
 312 245 l 1
 504 0 l 1
 418 0 l 1
 265 193 l 1
 210 131 l 1
 210 0 l 1
 130 0 l 1
 130 480 l 1
 30 480 l 1
 30 530 l 1
 130 530 l 1
 130 660 l 1
 210 660 l 1
 210 530 l 1
 310 530 l 1
EndSplineSet
Validated: 3073
EndChar

StartChar: uni04A0
Encoding: 1184 1184 762
Width: 755
VWidth: 0
Flags: W
HStem: 0 58<682.64 732> 650 50<10 235>
VStem: 235 85<0 229 340 650>
LayerCount: 2
Fore
SplineSet
732 58 m 1
 732 0 l 1
 504 0 507 313 422 344 c 1
 320 229 l 1
 320 0 l 1
 235 0 l 1
 235 650 l 1
 10 650 l 1
 10 700 l 1
 320 700 l 1
 320 340 l 1
 640 700 l 1
 740 700 l 1
 466 393 l 1
 605 333 598 58 732 58 c 1
EndSplineSet
Validated: 3073
EndChar

StartChar: uni04A1
Encoding: 1185 1185 763
Width: 568
VWidth: 0
Flags: W
HStem: 0 21G<161 241 433.145 535> 390 50<15 161>
VStem: 161 80<0 131 233 390>
LayerCount: 2
Fore
SplineSet
241 131 m 1
 241 0 l 1
 161 0 l 1
 161 390 l 1
 15 390 l 1
 15 440 l 1
 241 440 l 1
 241 233 l 1
 425 440 l 1
 517 440 l 1
 343 245 l 1
 535 0 l 1
 449 0 l 1
 296 193 l 1
 241 131 l 1
EndSplineSet
Validated: 3073
EndChar

StartChar: uni04A2
Encoding: 1186 1186 764
Width: 735
VWidth: 0
Flags: W
HStem: 0 50<577 600.834> 350 50<170 492> 680 20G<85 170 492 577>
VStem: 85 85<0 350 400 700> 492 85<50 350 400 700> 622 48<-154 -18.668>
LayerCount: 2
Fore
SplineSet
170 700 m 1
 170 400 l 1
 492 400 l 1
 492 700 l 1
 577 700 l 1
 577 50 l 1
 670 50 l 1
 670 -154 l 1
 622 -154 l 1
 622 -40 590 0 590 0 c 1
 492 0 l 1
 492 350 l 1
 170 350 l 1
 170 0 l 1
 85 0 l 1
 85 700 l 1
 170 700 l 1
EndSplineSet
Validated: 3073
EndChar

StartChar: uni04A3
Encoding: 1187 1187 765
Width: 600
VWidth: 0
Flags: W
HStem: 0 50<456 486.834> 215 50<140 376> 420 20G<60 140 376 456>
VStem: 60 80<0 215 265 440> 376 80<50 215 265 440> 508 48<-154 -18.668>
LayerCount: 2
Fore
SplineSet
60 440 m 1
 140 440 l 1
 140 265 l 1
 376 265 l 1
 376 440 l 1
 456 440 l 1
 456 50 l 1
 556 50 l 1
 556 -154 l 1
 508 -154 l 1
 508 -40 476 0 476 0 c 1
 376 0 l 1
 376 215 l 1
 140 215 l 1
 140 0 l 1
 60 0 l 1
 60 440 l 1
EndSplineSet
Validated: 3073
EndChar

StartChar: uni04A4
Encoding: 1188 1188 766
Width: 914
VWidth: 0
Flags: W
HStem: 0 21G<85 170 492 577> 350 50<170 492> 650 50<577 896>
VStem: 85 85<0 350 400 700> 492 85<0 350 400 650>
LayerCount: 2
Fore
SplineSet
170 700 m 1
 170 400 l 1
 492 400 l 1
 492 700 l 1
 896 700 l 1
 896 650 l 1
 577 650 l 1
 577 0 l 1
 492 0 l 1
 492 350 l 1
 170 350 l 1
 170 0 l 1
 85 0 l 1
 85 700 l 1
 170 700 l 1
EndSplineSet
Validated: 3073
EndChar

StartChar: uni04A5
Encoding: 1189 1189 767
Width: 691
VWidth: 0
Flags: W
HStem: 0 21G<60 140 376 456> 215 50<140 376> 390 50<456 665>
VStem: 60 80<0 215 265 440> 376 80<0 215 265 390>
LayerCount: 2
Fore
SplineSet
60 440 m 1
 140 440 l 1
 140 265 l 1
 376 265 l 1
 376 440 l 1
 665 440 l 1
 665 390 l 1
 456 390 l 1
 456 0 l 1
 376 0 l 1
 376 215 l 1
 140 215 l 1
 140 0 l 1
 60 0 l 1
 60 440 l 1
EndSplineSet
Validated: 3073
EndChar

StartChar: uni04A6
Encoding: 1190 1190 768
Width: 961
VWidth: 0
Flags: W
HStem: -106 50<677.352 776.653> -29 20G<635.769 666> 0 21G<85 170 476 561> 400 50<598.643 759.846> 650 50<170 476>
VStem: 85 85<0 650> 476 85<0 369.252 425 650> 808 85<-3.3799 347.06>
LayerCount: 2
Fore
SplineSet
85 0 m 1
 85 700 l 1
 561 700 l 1
 561 425 l 1
 592 441 634 450 671 450 c 0
 811 450 893 382 893 240 c 2
 893 142 l 2
 893 -58 813 -106 723 -106 c 0
 687 -106 635 -89 605 -61 c 1
 655 -9 l 1
 677 -41 703 -56 738 -56 c 0
 777 -56 808 -12 808 120 c 2
 808 228 l 2
 808 368 756 400 686 400 c 0
 641 400 594 382 561 353 c 1
 561 0 l 1
 476 0 l 1
 476 650 l 1
 170 650 l 1
 170 0 l 1
 85 0 l 1
EndSplineSet
Validated: 3073
EndChar

StartChar: uni04A7
Encoding: 1191 1191 769
Width: 781
VWidth: 0
Flags: W
HStem: -115 50<551.954 638.863> 0 21G<60 140 376 456> 238 50<487.768 627.132> 390 50<140 376>
VStem: 60 80<0 390> 376 80<0 209.256 264 390> 657 80<-38.2696 203.6>
LayerCount: 2
Fore
SplineSet
657 66 m 4
 657 206 633 238 563 238 c 0
 518 238 489 221 456 192 c 1
 456 0 l 1
 376 0 l 1
 376 390 l 1
 140 390 l 1
 140 0 l 1
 60 0 l 1
 60 440 l 1
 456 440 l 1
 456 264 l 1
 487 280 511 288 548 288 c 0
 688 288 737 220 737 78 c 4
 737 -39 692 -115 592 -115 c 4
 549 -115 505 -100 484 -70 c 5
 534 -18 l 5
 554 -54 572 -65 607 -65 c 4
 646 -65 657 -4 657 66 c 4
EndSplineSet
Validated: 3073
EndChar

StartChar: uni04A8
Encoding: 1192 1192 770
Width: 810
VWidth: 0
Flags: W
HStem: -10 50<292.784 435.379 540.356 663.437> 619 41<454.521 525.227> 660 41<267.315 343>
VStem: 50 85<220.082 493.711> 308 85<205.981 502.924> 581 85<212.156 502.924>
LayerCount: 2
Fore
SplineSet
762 71 m 1
 725 20 673 -10 623 -10 c 0
 573 -10 527 -1 487 17 c 1
 450 -1 408 -10 362 -10 c 0
 232 -10 50 100 50 350 c 0
 50 600 212 701 343 701 c 1
 344 660 l 1
 234 660 135 560 135 350 c 0
 135 130 282 40 377 40 c 0
 397 40 417 42 436 47 c 1
 355 107 308 213 308 358 c 0
 308 540 392 660 491 660 c 0
 582 660 666 540 666 358 c 0
 666 225 620 113 539 49 c 1
 561 42 585 40 608 40 c 0
 645 40 680 67 704 112 c 1
 762 71 l 1
490 73 m 1
 544 112 581 192 581 342 c 0
 581 498 544 619 492 619 c 0
 434 619 393 498 393 342 c 0
 393 191 434 112 490 73 c 1
EndSplineSet
Validated: 3073
EndChar

StartChar: uni04A9
Encoding: 1193 1193 771
Width: 625
VWidth: 0
Flags: W
HStem: -10 50<205.57 297.841 432.234 495.948> 349 50<323.629 395.203> 390 50<183.252 251>
VStem: 44 80<126.531 327.969> 216 80<116.674 312.934> 419 80<104.897 314.398>
LayerCount: 2
Fore
SplineSet
595 71 m 1xdc
 558 20 506 -10 456 -10 c 0
 424 -10 393 -5 366 4 c 1
 338 -5 306 -10 270 -10 c 0
 166 -10 44 70 44 230 c 0
 44 352 120 440 251 440 c 1
 251 390 l 1xbc
 171 390 124 330 124 230 c 0
 124 90 210 40 285 40 c 0
 289 40 294 40 298 40 c 1
 247 80 216 143 216 222 c 0
 216 310 276 399 358 399 c 0
 442 399 499 310 499 222 c 0
 499 139 475 78 431 40 c 1
 434 40 438 40 441 40 c 0
 478 40 513 67 537 112 c 1
 595 71 l 1xdc
364 60 m 1
 399 83 419 129 419 206 c 0
 419 296 398 349 359 349 c 0xdc
 324 349 296 306 296 206 c 0
 296 124 328 81 364 60 c 1
EndSplineSet
Validated: 3073
EndChar

StartChar: uni04AA
Encoding: 1194 1194 772
Width: 650
VWidth: 0
Flags: W
HStem: -176 24<294 379.367> -9 49<294.02 339 393 476.243> 660 50<271.495 455.532>
VStem: 50 85<218.831 494.263> 402 62<-140.05 -71.7033>
LayerCount: 2
Fore
SplineSet
339 -9 m 1
 212 3 50 114 50 350 c 0
 50 600 212 710 343 710 c 0
 479 710 561 665 607 608 c 1
 532 575 l 1
 499 622 442 660 358 660 c 0
 242 660 135 560 135 350 c 0
 135 130 282 40 377 40 c 0
 454 40 514 72 551 129 c 1
 610 102 l 1
 565 44 488 -1 393 -9 c 1
 390 -34 l 1
 430 -41 464 -63 464 -102 c 0
 464 -142 406 -176 294 -176 c 1
 294 -152 l 1
 360 -152 402 -144 402 -108 c 0
 402 -78 384 -66 330 -60 c 1
 339 -9 l 1
EndSplineSet
Validated: 3073
EndChar

StartChar: uni04AB
Encoding: 1195 1195 773
Width: 497
VWidth: 0
UnlinkRmOvrlpSave: 1
Flags: W
HStem: -176 24<202 287.367> -9 49<204.398 247 301 358.799> 400 50<197.283 324.006>
VStem: 44 80<123.449 316.52> 310 62<-140.05 -71.7033>
LayerCount: 2
Fore
SplineSet
371 297 m 1
 355 357 320 400 265 400 c 0
 190 400 124 330 124 220 c 0
 124 110 190 40 285 40 c 0
 336 40 372 63 395 100 c 1
 455 77 l 1
 420 33 368 0 301 -8 c 1
 298 -34 l 1
 338 -41 372 -63 372 -102 c 0
 372 -142 314 -176 202 -176 c 1
 202 -152 l 1
 268 -152 310 -144 310 -108 c 0
 310 -78 292 -66 238 -60 c 1
 247 -9 l 1
 129 1 44 88 44 220 c 0
 44 360 150 450 250 450 c 0
 342 450 404 398 436 330 c 1
 371 297 l 1
EndSplineSet
EndChar

StartChar: uni04AC
Encoding: 1196 1196 774
Width: 625
VWidth: 0
Flags: W
HStem: 0 50<355 384.834> 650 50<20 270 355 607>
VStem: 270 85<50 650> 406 48<-154 -18.668>
LayerCount: 2
Fore
SplineSet
20 700 m 1
 607 700 l 1
 607 650 l 1
 355 650 l 1
 355 50 l 5
 454 50 l 5
 454 -154 l 5
 406 -154 l 5
 406 -40 374 0 374 0 c 5
 270 0 l 5
 270 650 l 1
 20 650 l 1
 20 700 l 1
EndSplineSet
Validated: 3073
EndChar

StartChar: uni04AD
Encoding: 1197 1197 775
Width: 458
VWidth: 0
Flags: W
HStem: 0 50<271 298.834> 390 50<26 191 271 436>
VStem: 191 80<50 390> 320 48<-154 -18.668>
LayerCount: 2
Fore
SplineSet
288 0 m 5
 191 0 l 5
 191 390 l 1
 26 390 l 1
 26 440 l 1
 436 440 l 1
 436 390 l 1
 271 390 l 1
 271 50 l 5
 368 50 l 5
 368 -154 l 5
 320 -154 l 5
 320 -40 288 0 288 0 c 5
EndSplineSet
Validated: 3073
EndChar

StartChar: uni04AF
Encoding: 1199 1199 777
Width: 415
VWidth: 0
Flags: W
HStem: 420 20G<9 89.2353 321.706 409>
VStem: 169 80<-200 0>
LayerCount: 2
Fore
SplineSet
169 0 m 1
 9 440 l 1
 82 440 l 1
 205 100 l 1
 329 440 l 1
 409 440 l 1
 249 0 l 1
 249 -200 l 1
 169 -200 l 1
 169 0 l 1
EndSplineSet
Validated: 3073
EndChar

StartChar: uni04B0
Encoding: 1200 1200 778
Width: 465
VWidth: 0
Flags: W
HStem: 0 21G<191 276> 204 50<94 191 276 374> 680 20G<11 111.192 356.808 457>
VStem: 191 85<0 204 254 346>
LayerCount: 2
Fore
SplineSet
94 204 m 1
 94 254 l 1
 191 254 l 1
 191 347 l 1
 11 700 l 1
 101 700 l 1
 234 439 l 1
 367 700 l 1
 457 700 l 1
 276 346 l 1
 276 254 l 1
 374 254 l 1
 374 204 l 1
 276 204 l 1
 276 0 l 1
 191 0 l 1
 191 204 l 1
 94 204 l 1
EndSplineSet
Validated: 3073
EndChar

StartChar: uni04B1
Encoding: 1201 1201 779
Width: 415
VWidth: 0
Flags: W
HStem: -50 50<69 169 249 349> 420 20G<9 89.2353 321.706 409>
VStem: 169 80<-200 -50>
LayerCount: 2
Fore
SplineSet
69 -50 m 1
 69 0 l 1
 169 0 l 1
 9 440 l 1
 82 440 l 1
 205 100 l 1
 329 440 l 1
 409 440 l 1
 249 0 l 1
 349 0 l 1
 349 -50 l 1
 249 -50 l 1
 249 -200 l 1
 169 -200 l 1
 169 -50 l 1
 69 -50 l 1
EndSplineSet
Validated: 3073
EndChar

StartChar: uni04B2
Encoding: 1202 1202 780
Width: 659
VWidth: 0
Flags: W
HStem: 0 50<483 524.834> 680 20G<62 157.323 392.677 488>
VStem: 546 48<-154 -18.668>
LayerCount: 2
Fore
SplineSet
126 0 m 1
 42 0 l 1
 233 370 l 1
 62 700 l 1
 147 700 l 1
 275 452 l 1
 403 700 l 1
 488 700 l 1
 318 370 l 1
 483 50 l 1
 594 50 l 1
 594 -154 l 1
 546 -154 l 1
 546 -40 514 0 514 0 c 1
 424 0 l 1
 275 288 l 1
 126 0 l 1
EndSplineSet
Validated: 3073
EndChar

StartChar: uni04B3
Encoding: 1203 1203 781
Width: 534
VWidth: 0
Flags: W
HStem: 0 50<372 420.834> 420 20G<32 130.932 277.917 377>
VStem: 442 48<-154 -18.668>
LayerCount: 2
Fore
SplineSet
161 241 m 1
 32 440 l 1
 118 440 l 1
 204 307 l 1
 291 440 l 1
 377 440 l 1
 248 241 l 1
 372 50 l 1
 490 50 l 1
 490 -154 l 1
 442 -154 l 1
 442 -40 410 0 410 0 c 1
 318 0 l 1
 204 175 l 1
 91 0 l 1
 4 0 l 1
 161 241 l 1
EndSplineSet
Validated: 3073
EndChar

StartChar: uni04B4
Encoding: 1204 1204 782
Width: 846
VWidth: 0
Flags: W
HStem: 0 50<326 632> 650 50<20 240 326 547>
VStem: 240 86<50 650> 632 85<50 700> 733 48<-154 -18.668>
LayerCount: 2
Fore
SplineSet
701 0 m 1
 240 0 l 1
 240 650 l 1
 20 650 l 1
 20 700 l 1
 547 700 l 1
 547 650 l 1
 326 650 l 1
 326 50 l 1
 632 50 l 1
 632 700 l 1
 717 700 l 1
 717 50 l 1
 781 50 l 1
 781 -154 l 1
 733 -154 l 1
 733 -40 701 0 701 0 c 1
EndSplineSet
Validated: 3073
EndChar

StartChar: uni04B5
Encoding: 1205 1205 783
Width: 655
VWidth: 0
Flags: W
HStem: 0 50<251 467> 390 50<26 171 251 396>
VStem: 171 80<50 390> 467 80<50 440> 563 48<-154 -18.668>
LayerCount: 2
Fore
SplineSet
531 0 m 1
 171 0 l 1
 171 390 l 1
 26 390 l 1
 26 440 l 1
 396 440 l 1
 396 390 l 1
 251 390 l 1
 251 50 l 1
 467 50 l 1
 467 440 l 1
 547 440 l 1
 547 50 l 1
 611 50 l 1
 611 -154 l 1
 563 -154 l 1
 563 -40 531 0 531 0 c 1
EndSplineSet
Validated: 3073
EndChar

StartChar: uni04B6
Encoding: 1206 1206 784
Width: 650
VWidth: 0
Flags: W
HStem: 0 50<486 515.834> 255 50<207.524 364.471> 680 20G<60 145 401 486>
VStem: 60 85<386.259 700> 401 85<50 280 335.748 700> 537 48<-154 -18.668>
LayerCount: 2
Fore
SplineSet
486 50 m 1
 585 50 l 1
 585 -154 l 1
 537 -154 l 1
 537 -40 505 0 505 0 c 1
 401 0 l 1
 401 280 l 1
 370 264 306 255 269 255 c 0
 129 255 60 336 60 530 c 2
 60 700 l 1
 145 700 l 1
 145 542 l 2
 145 328 214 305 284 305 c 0
 329 305 368 323 401 352 c 1
 401 700 l 1
 486 700 l 1
 486 50 l 1
EndSplineSet
Validated: 3073
EndChar

StartChar: uni04B7
Encoding: 1207 1207 785
Width: 542
VWidth: 0
Flags: W
HStem: 0 50<401 428.834> 153 50<162.116 297.952> 420 20G<40 120 321 401>
VStem: 40 80<259.104 440> 321 80<50 178 225.253 440> 450 48<-154 -18.668>
LayerCount: 2
Fore
SplineSet
401 50 m 1
 498 50 l 1
 498 -154 l 1
 450 -154 l 1
 450 -40 418 0 418 0 c 1
 321 0 l 1
 321 178 l 1
 290 162 251 153 214 153 c 0
 61 153 40 235 40 440 c 1
 120 440 l 1
 120 226 159 203 229 203 c 0
 274 203 302 221 321 250 c 1
 321 440 l 1
 401 440 l 1
 401 50 l 1
EndSplineSet
Validated: 3073
EndChar

